<?xml version="1.0" encoding="UTF-8"?><svg id="a" xmlns="http://www.w3.org/2000/svg" viewBox="0 0 172.77 149.75"><path d="M24.76,148.46c-.64,.66-1.44,1.08-2.41,1.24-.97,.17-2.11-.15-3.41-.96-1.82-1.13-3.93-3.2-6.32-6.21-2.39-3.01-4.58-6.37-6.56-10.09-.76,1.41-1.22,2.61-1.39,3.6-.16,.99,.02,1.82,.55,2.49,.07-.11,.28-.14,.62-.09s.67,.16,.97,.35c.49,.3,.74,.76,.76,1.37,.02,.61-.18,1.24-.58,1.9-.47,.76-1.06,1.25-1.75,1.46-.69,.21-1.42,.08-2.18-.39-.92-.57-1.54-1.46-1.86-2.65-.31-1.19-.3-2.57,.04-4.12,.34-1.56,1-3.11,1.96-4.66,.35-.57,.83-1.25,1.44-2.04-2.15-4.42-3.58-8.57-4.28-12.45S0,110.25,1.4,107.99c.81-1.31,1.67-2.26,2.57-2.87l26.05,25.03-3.64,5.87-12.86-12.33c-1.09,.72-2,1.43-2.74,2.14-.74,.71-1.45,1.51-2.12,2.41,2.38,3.62,5.01,7.02,7.89,10.18,2.88,3.16,5.36,5.39,7.46,6.69,1.03,.64,1.91,.92,2.64,.85-.62,1.01-1.25,1.84-1.89,2.5ZM2.32,112.97c-.1,1.56,.31,3.5,1.22,5.81,.92,2.32,2.21,4.83,3.89,7.52,1.6-1.72,3.1-3.08,4.51-4.09l-9.63-9.25Z"/><path d="M36.39,119.53c-1.56,.16-3.08-.4-4.55-1.68-.72-.63-1.34-1.32-1.84-2.05l-14.74-19.68,3.95-5.98,6.62,8.84c.18-1.03,.39-1.82,.64-2.37,.25-.55,.56-1.04,.94-1.47,2.48-2.84,5.79-2.47,9.91,1.13,1.66,1.45,3.16,3.32,4.5,5.61,1.34,2.29,2.03,4.77,2.09,7.43,.06,2.66-.95,5.17-3.01,7.54-1.43,1.64-2.93,2.54-4.49,2.7Zm3.19-11.1c-.36-1.46-1.06-2.99-2.11-4.58s-2.21-2.95-3.49-4.07c-.96-.84-1.93-1.39-2.9-1.64-.97-.25-1.72-.08-2.24,.53-.32,.36-.61,.81-.89,1.35-.28,.54-.39,.99-.32,1.35l7.45,10.01c.23,.32,.47,.6,.74,.83,1.11,.97,2.22,.81,3.34-.46,.65-.75,.8-1.85,.44-3.31Z"/><path d="M53.81,99.82c-1.84,.04-3.64-.91-5.42-2.84-1.47-1.6-2.78-3.68-3.92-6.24-1.14-2.56-1.64-5.22-1.49-7.99,.15-2.77,1.33-5.17,3.54-7.21,3.01-2.77,6.25-2.28,9.72,1.49l.03,.04c.09-.04,.23-.15,.42-.32,.78-.71,1.48-1.74,2.11-3.09,.63-1.34,1.09-2.69,1.37-4.04l1.2,.66c-.01,1.36-.33,2.79-.96,4.31-.63,1.51-1.49,2.97-2.59,4.38,1.78,2.32,3.03,4.63,3.72,6.95,.7,2.32,.83,4.47,.41,6.47-.42,2-1.35,3.66-2.79,4.98-1.74,1.6-3.53,2.43-5.37,2.46Zm4.65-9.47c-.03-1.17-.35-2.5-.96-4.01-.61-1.51-1.44-3.03-2.51-4.57-.77,.44-1.54,.24-2.32-.6-.89-.96-1.11-1.94-.66-2.91-.76-.73-1.37-1.16-1.83-1.28s-.92,.04-1.4,.47c-.78,.72-1.01,1.97-.7,3.78,.31,1.8,.97,3.7,1.97,5.69,1.01,1.99,2.06,3.58,3.17,4.78,1.04,1.13,1.87,1.77,2.49,1.92,.62,.15,1.27-.09,1.95-.72,.56-.52,.83-1.36,.8-2.53Z"/><path d="M73.32,82.92c-1.33-.19-2.58-1.06-3.74-2.58-.48-.64-1.01-1.54-1.58-2.72l-6.71-14.25,5.51-4.18,7.11,15.09c.21,.44,.45,.83,.7,1.16,.79,1.05,1.57,1.28,2.34,.7,.71-.54,1.1-1.3,1.15-2.29,.06-.99-.16-2.12-.65-3.39l-6.71-14.25,5.51-4.18,7.11,15.09c.19,.46,.45,.91,.78,1.34,.39,.51,.78,.78,1.19,.81,.41,.03,.89-.16,1.45-.59,.71-.54,1.1-1.32,1.16-2.33,.06-1.01-.15-2.14-.61-3.39l1.61-1.22c1.15,3.47,1.4,6.22,.75,8.26-.65,2.04-1.67,3.58-3.07,4.65-1.1,.83-2.2,1.19-3.32,1.07-1.11-.12-2.19-.73-3.23-1.83,.2,2.06,.01,3.71-.56,4.94-.57,1.24-1.35,2.23-2.35,2.98-1.22,.93-2.5,1.3-3.83,1.1Z"/><path d="M96.95,65.5c-1.2-.4-2.25-1.28-3.14-2.65-.46-.7-.84-1.46-1.15-2.29l-5.31-13.73-1.33,.87-.73-1.82,1.33-.87-2.42-6.33,5.42-4.69c.43,1.18,.69,1.87,.78,2.07,.3,.87,.97,2.6,2.01,5.17l2.41-1.58,.73,1.82-2.41,1.58,5.31,13.73c.25,.68,.49,1.19,.72,1.54,.63,.96,1.41,1.14,2.35,.53,.48-.32,.8-.58,.97-.8,.48,1.9,.54,3.36,.16,4.37-.37,1.01-.99,1.79-1.84,2.35-1.37,.89-2.65,1.14-3.85,.74Z"/><path d="M133.78,42.52c-2.15-.65-3.91-2.32-5.29-5.03-.68-1.34-1.25-2.94-1.69-4.79l-4.5-19.58c-2.12,1.91-3.43,4.04-3.95,6.41-.52,2.37-.27,4.55,.75,6.54,.71,1.4,1.77,2.56,3.19,3.49-1.62,.83-3.09,1.08-4.39,.74-1.31-.34-2.33-1.24-3.07-2.69-.95-1.85-1.1-4.01-.47-6.47,.63-2.46,1.92-4.83,3.88-7.13,1.96-2.29,4.32-4.14,7.08-5.56,.97-.5,1.8-.83,2.5-1.01l4.87,22.41c.43,2.04,.98,3.71,1.63,4.99,1.38,2.71,3.19,3.49,5.41,2.36,3.19-1.63,3.9-5.69,2.13-12.19l-5.81-21.93,6.03-3.08,5.94,21.87c1.23,4.66,1.27,8.62,.12,11.9-1.15,3.28-3.44,5.8-6.89,7.56-2.82,1.44-5.3,1.84-7.45,1.19Z"/><path d="M162.61,29.99c-1.2-.12-2.23-.51-3.08-1.17-.85-.66-1.48-1.46-1.89-2.4-.42-.97-.56-1.91-.42-2.83,.14-.92,.46-1.68,.97-2.28,.25-2.55,.33-5.06,.27-7.53-.07-2.47-.25-5.08-.55-7.85l6.12-3.73c1.79,3.69,3.81,7.64,6.08,11.85,.92,1.7,1.55,2.94,1.89,3.73,.78,1.79,.97,3.45,.56,4.99-.41,1.54-1.17,2.85-2.29,3.93-1.12,1.08-2.36,1.92-3.74,2.53-1.41,.62-2.71,.86-3.92,.74Zm3.29-5.76c.45-.96,.36-2.17-.27-3.6-.38-.88-1.01-2.07-1.88-3.58-1.76-3.21-2.93-5.37-3.52-6.48,.31,2.62,.33,5.91,.07,9.87,.83,.06,1.39,.42,1.69,1.1,.24,.56,.28,1.14,.1,1.74-.17,.6-.54,1.02-1.1,1.27-.62,.27-1.09,.25-1.44-.05,.46,1.06,1.01,1.74,1.66,2.05s1.43,.26,2.37-.15c1.08-.47,1.85-1.19,2.3-2.16Z"/></svg>