<?xml version="1.0" encoding="UTF-8"?><svg id="a" xmlns="http://www.w3.org/2000/svg" viewBox="0 0 276 96"><defs><style>.b{fill:#ffffe8;stroke:#5d412e;stroke-miterlimit:10;}.c{fill:#281009;}</style></defs><g><path class="b" d="M248.81,.5H27.19c-.29,12.9-12.12,23.27-26.69,23.27v48.45c14.57,0,26.4,10.38,26.69,23.27H248.81c.29-12.9,12.12-23.27,26.69-23.27V23.77c-14.57,0-26.4-10.38-26.69-23.27Z"/><path class="b" d="M243.86,6.14c0-.3,.01-.59,.03-.89H32.91c.01,.3,.03,.59,.03,.89,0,13.12-11.95,23.75-26.7,23.75-.13,0-.27,0-.4,0v37.07c.13,0,.27,0,.4,0,14.75,0,26.7,10.63,26.7,23.75,0,.02,0,.04,0,.06H243.86s0-.04,0-.06c0-13,11.74-23.55,26.3-23.74V29.88c-14.56-.19-26.3-10.74-26.3-23.74Z"/></g><g><path class="c" d="M71.71,24.83c-1.42,.54-2.53,1.38-3.31,2.51-.78,1.13-1.17,2.52-1.17,4.17,0,.74,.07,1.26,.21,1.55,.14,.29,.21,.46,.21,.5-1.08,0-1.89-.23-2.42-.68-.53-.45-.8-1.2-.8-2.24,0-1.28,.53-2.53,1.58-3.75s2.4-2.2,4.05-2.95c1.64-.75,3.29-1.13,4.94-1.13,.28,0,.68,.02,1.2,.06l.27,18.51,6.32-18.42h3.82l.27,18.42,6.32-18.42h2.11l-8.37,22.42h-4.33l-.36-15.32-5.72,15.32h-4.33l-.48-20.55Z"/><path class="c" d="M101.36,44.58c-.57-.65-.86-1.46-.86-2.42,0-.42,.05-.9,.15-1.43,.1-.53,.21-1.05,.32-1.55,.11-.5,.19-.82,.23-.96,.16-.7,.31-1.39,.45-2.08,.14-.68,.21-1.23,.21-1.66,0-1.02-.36-1.54-1.08-1.54-.52,0-.98,.26-1.38,.77-.4,.51-.72,1.18-.96,2l-2.05,9.66h-4.33l4.36-20.46,4.45-.6-1.62,7.58c1-1.12,2.18-1.69,3.52-1.69,1.02,0,1.84,.28,2.44,.84,.6,.56,.9,1.41,.9,2.56,0,.58-.07,1.23-.21,1.94-.14,.71-.34,1.58-.6,2.6-.16,.62-.31,1.23-.44,1.82-.13,.59-.2,1.06-.2,1.4,0,.4,.09,.71,.27,.93,.18,.22,.49,.33,.93,.33,.6,0,1.08-.22,1.44-.65,.36-.43,.72-1.1,1.08-2h1.26c-.74,2.21-1.6,3.69-2.57,4.44-.97,.75-1.98,1.13-3.02,1.13-1.22,0-2.12-.33-2.69-.98Z"/><path class="c" d="M109.26,44.36c-.86-.76-1.29-1.97-1.29-3.61,0-1.36,.28-2.88,.84-4.54,.56-1.67,1.46-3.1,2.71-4.32,1.24-1.21,2.81-1.82,4.69-1.82,2.57,0,3.85,1.61,3.85,4.82v.03c.06,.02,.17,.03,.33,.03,.66,0,1.42-.17,2.29-.53,.86-.35,1.65-.78,2.35-1.28l.27,.81c-.58,.62-1.34,1.15-2.27,1.58-.93,.43-1.95,.74-3.05,.92-.16,1.83-.57,3.42-1.23,4.79s-1.52,2.42-2.56,3.16c-1.04,.74-2.18,1.11-3.4,1.11-1.48,0-2.66-.38-3.52-1.14Zm6.17-2.39c.48-.55,.9-1.3,1.26-2.26,.36-.95,.62-2.01,.78-3.17-.54-.12-.81-.54-.81-1.26,0-.82,.31-1.36,.93-1.62-.04-.66-.14-1.12-.3-1.37s-.44-.38-.84-.38c-.66,0-1.3,.48-1.93,1.44-.62,.96-1.12,2.12-1.5,3.46-.38,1.34-.57,2.53-.57,3.55,0,.96,.11,1.61,.33,1.94,.22,.33,.62,.5,1.2,.5,.48,0,.96-.28,1.44-.83Z"/><path class="c" d="M122.25,44.66c-.59-.6-.89-1.5-.89-2.71,0-.5,.08-1.15,.24-1.96l3.22-15.08,4.45-.6-3.46,16.25c-.08,.3-.12,.62-.12,.96,0,.4,.09,.69,.29,.86,.19,.17,.51,.26,.95,.26,.58,0,1.12-.25,1.62-.74,.5-.49,.86-1.13,1.08-1.91h1.26c-.74,2.17-1.7,3.64-2.86,4.41-1.16,.77-2.32,1.16-3.46,1.16-.96,0-1.74-.3-2.33-.9Z"/><path class="c" d="M130.45,44.4c-.82-.77-1.23-1.98-1.23-3.63,0-1.38,.27-2.91,.81-4.57,.54-1.67,1.42-3.1,2.65-4.32,1.22-1.21,2.78-1.82,4.66-1.82,2.21,0,3.31,.96,3.31,2.89,0,1.12-.32,2.16-.96,3.1-.64,.94-1.49,1.7-2.56,2.27-1.06,.57-2.2,.9-3.4,.98-.04,.44-.06,.74-.06,.9,0,1.67,.62,2.5,1.87,2.5,.56,0,1.16-.15,1.81-.45s1.22-.68,1.75-1.14c-.54,2.97-2.28,4.45-5.21,4.45-1.46,0-2.61-.39-3.43-1.16Zm5.64-7.3c.67-.48,1.21-1.1,1.62-1.85,.41-.75,.62-1.54,.62-2.36s-.25-1.23-.75-1.23c-.7,0-1.4,.64-2.09,1.91-.69,1.27-1.21,2.7-1.55,4.29,.76-.02,1.48-.27,2.15-.75Z"/><path class="c" d="M156.84,24.71c-1.52,.5-2.7,1.33-3.54,2.48-.83,1.15-1.25,2.58-1.25,4.29,0,.76,.07,1.28,.21,1.57,.14,.28,.21,.45,.21,.51-2.15,0-3.22-.91-3.22-2.74,0-1.24,.48-2.49,1.43-3.75,.95-1.25,2.18-2.28,3.67-3.07,1.49-.79,2.98-1.19,4.47-1.19,.74,0,1.5,.14,2.29,.42l-.69,15.86,6.62-15.86h4.33l-3.16,22.15h-4.33l1.93-13.51-5.66,13.51h-4.12l.6-13.57-5.03,13.57h-2.41l7.64-20.67Z"/><path class="c" d="M171.7,44.4c-.82-.77-1.23-1.98-1.23-3.63,0-1.38,.27-2.91,.81-4.57,.54-1.67,1.42-3.1,2.65-4.32,1.22-1.21,2.78-1.82,4.66-1.82,2.21,0,3.31,.96,3.31,2.89,0,1.12-.32,2.16-.96,3.1-.64,.94-1.5,1.7-2.56,2.27-1.06,.57-2.2,.9-3.4,.98-.04,.6-.06,1-.06,1.2,0,.98,.17,1.65,.51,2,.34,.35,.89,.53,1.65,.53,1.08,0,2.01-.25,2.78-.75,.77-.5,1.62-1.26,2.54-2.29h1.02c-2.23,3.71-4.99,5.57-8.28,5.57-1.48,0-2.64-.39-3.46-1.16Zm5.64-7.33c.67-.48,1.21-1.09,1.62-1.84,.41-.74,.62-1.52,.62-2.35s-.25-1.23-.75-1.23c-.72,0-1.43,.63-2.12,1.9-.69,1.26-1.19,2.7-1.49,4.3,.74-.04,1.45-.3,2.12-.78Z"/><path class="c" d="M190.58,44.58c-.57-.65-.86-1.46-.86-2.42,0-.42,.05-.9,.15-1.43,.1-.53,.21-1.05,.32-1.55,.11-.5,.19-.82,.23-.96,.16-.7,.31-1.39,.45-2.08s.21-1.23,.21-1.66c0-1.02-.36-1.54-1.08-1.54-.52,0-.98,.26-1.38,.77s-.72,1.18-.96,2l-2.05,9.66h-4.33l3.19-15.05h4.33l-.33,1.56c1-1.12,2.18-1.69,3.52-1.69,1.02,0,1.84,.28,2.44,.84,.6,.56,.9,1.41,.9,2.56,0,.58-.07,1.23-.21,1.94s-.34,1.58-.6,2.6c-.16,.62-.31,1.23-.44,1.82-.13,.59-.2,1.06-.2,1.4,0,.4,.09,.71,.27,.93s.49,.33,.93,.33c.6,0,1.08-.22,1.44-.65,.36-.43,.72-1.1,1.08-2h1.26c-.74,2.21-1.6,3.69-2.57,4.44-.97,.75-1.98,1.13-3.02,1.13-1.22,0-2.12-.33-2.69-.98Z"/><path class="c" d="M198.26,44.66c-.59-.6-.89-1.5-.89-2.71,0-.5,.08-1.15,.24-1.96l2.05-9.66h4.33l-2.17,10.23c-.06,.24-.09,.49-.09,.75,0,.88,.3,1.32,.9,1.32,.56,0,1.04-.24,1.44-.71s.72-1.12,.96-1.94l2.05-9.66h4.33l-2.17,10.23c-.08,.3-.12,.62-.12,.96,0,.4,.1,.69,.29,.86,.19,.17,.51,.26,.95,.26,.32,0,.56-.03,.71-.08s.25-.08,.29-.11c-.08,1.02-.43,1.8-1.05,2.32s-1.38,.78-2.29,.78c-.84,0-1.52-.25-2.03-.75-.51-.5-.82-1.2-.92-2.11-.68,1.1-1.4,1.86-2.15,2.26s-1.53,.6-2.33,.6c-.96,0-1.74-.3-2.33-.9Z"/></g><g><path class="c" d="M107.51,56.42c-.24,.29-.88,.46-1.7,.51,1.63,2.14,5.56,4.46,9.53,5.56l-.02,.24c-.95,.22-1.7,1.06-1.96,1.94-3.33-1.83-6.58-4.63-8.14-7.72-2.25,3.62-6.29,6.73-10.7,8.56l-.18-.26c3.46-2.12,6.66-5.32,8.16-8.38h-4.08l-.2-.62h6.35l.77-1.24,2.16,1.41Zm4.72,16.08s1.46,1.13,2.34,1.94c-.07,.24-.29,.35-.57,.35h-18.51l-.15-.64h8.23v-4.74h-5.87l-.18-.62h6.05v-4.17h-5.12l-.18-.64h9.64l1.17-1.43s1.35,.97,2.16,1.72c-.07,.24-.26,.35-.57,.35h-4.9v4.17h3.44l1.21-1.52s1.37,1.06,2.23,1.79c-.07,.24-.29,.35-.6,.35h-6.29v4.74h5.16l1.3-1.66Z"/><path class="c" d="M126.82,62.6s1.37,1.06,2.21,1.83c-.04,.24-.27,.35-.6,.35h-11.58l-.18-.64h6.66c.46-1.59,.95-3.79,1.13-4.94l2.82,.97c-.07,.22-.31,.46-.79,.42-.57,.88-1.59,2.36-2.65,3.55h1.79l1.19-1.54Zm-9.8-4.33h5.41c-.24-.02-.51-.13-.77-.33-.02-.99-.6-2.14-1.19-2.78l.22-.16c3.84,.73,3.24,3.13,1.94,3.27h2.52l1.17-1.48s1.35,1.06,2.18,1.76c-.07,.24-.29,.35-.6,.35h-10.72l-.15-.64Zm8.63,7.68l1.94,1.52c-.13,.18-.38,.31-.84,.38v6.33c0,.09-.68,.46-1.65,.46h-.35v-1.48h-4.3v1.39c0,.15-.62,.53-1.59,.53h-.33v-8.89l2.18,.88h3.97l.97-1.12Zm-6.84-6.46c4.48,2.23,2.47,5.58,.86,4.02,.02-1.28-.55-2.85-1.12-3.91l.26-.11Zm5.94,13.04v-4.81h-4.3v4.81h4.3Zm12.67-14.74c-.18,.2-.49,.26-1.02,.29-.82,1.46-2.36,4.06-3.51,5.47,2.8,1.7,3.88,3.82,3.88,5.71,.02,2.23-.9,3.4-3.51,3.49,0-.62-.13-1.35-.31-1.61-.22-.22-.68-.4-1.3-.49v-.33h1.96c.24,0,.38-.02,.57-.11,.4-.24,.62-.66,.62-1.48,0-1.7-.71-3.42-2.47-5.12,.55-1.48,1.35-4.24,1.83-6.11h-2.87v17.32c0,.15-.64,.66-1.65,.66h-.35v-19.75l2.29,1.12h2.47l1.19-1.15,2.16,2.07Z"/><path class="c" d="M150.48,68.05c1.99,2.07,5.52,3.62,8.67,4.24l-.02,.24c-.86,.18-1.5,.88-1.74,1.94-3.24-1.24-5.91-3.4-7.5-6.42h-.04v6.88c0,.2-.91,.6-1.7,.6h-.4v-6.09c-2.1,2.32-5.21,4.08-8.91,5.25l-.18-.31c3.13-1.54,5.74-3.88,7.33-6.33h-6.53l-.2-.64h8.49v-1.96l2.87,.29c-.04,.29-.22,.51-.77,.57v1.1h5.21l1.28-1.61s1.41,1.1,2.29,1.9c-.04,.24-.29,.35-.6,.35h-7.55Zm-11.61-10.77h4.06l-.31-2.29,2.74,.2c-.02,.26-.2,.49-.64,.62l.2,1.48h1.06l1.08-1.46s1.24,1.02,1.96,1.74c-.04,.24-.29,.35-.57,.35h-3.44l.24,1.81c-.29,.42-1.01,.6-1.96,.57l-.29-2.38h-3.97l-.15-.64Zm17.59,4.08c-.22,.18-.66,.2-1.3-.07-3.91,.49-9.8,.77-14.89,.55l-.04-.4c4.94-.24,11.12-1.15,14.36-2.01l1.88,1.92Zm-14.61,1.17c5.21,1.24,3.46,5.01,1.63,3.6-.18-1.17-1.06-2.6-1.85-3.46l.22-.13Zm5.16-.55c4.68,.99,2.85,4.35,1.12,3-.11-.99-.77-2.16-1.37-2.87l.24-.13Zm2.43-4.7h2.63l.4-2.34,2.71,.51c-.07,.26-.29,.51-.84,.53l-.22,1.3h1.76l1.08-1.48s1.24,1.04,1.96,1.76c-.04,.24-.26,.35-.57,.35h-4.35l-.22,1.32c-.38,.29-1.19,.4-2.07,.22l.26-1.54h-2.36l-.18-.64Zm7.1,5.85c-.13,.22-.42,.38-.9,.29-1.21,1.28-2.76,2.38-4.1,3.09l-.26-.24c.84-1.01,1.88-2.78,2.65-4.5l2.62,1.37Z"/><path class="c" d="M178.83,69.11s1.52,1.12,2.47,1.96c-.07,.24-.29,.35-.62,.35h-8.72v3.53c0,.13-.68,.53-1.79,.53h-.38v-4.06h-9.02l-.2-.64h9.22v-2.18h-3.93v.53c0,.2-.93,.66-1.76,.66h-.31v-8.6c-.24,.07-.51,.11-.75,.11h-.29v-5.89l2.07,.86h2.98l.97-1.06,2.12,1.57c-.13,.15-.46,.33-.88,.42v3.16c-.02,.15-.99,.55-1.66,.55h-.33v-.79h-3.29v.57c0,.11-.29,.29-.71,.44l2.01,.82h9.62l1.06-1.1,2.16,1.66c-.13,.13-.44,.31-.88,.4v5.94c-.02,.15-1.04,.64-1.77,.64h-.35v-.86h-3.93v2.18h5.52l1.35-1.68Zm-14.08-12.22v2.6h3.29v-2.6h-3.29Zm1.12,5.69v2.34h3.93v-2.34h-3.93Zm3.93,5.38v-2.41h-3.93v2.41h3.93Zm4.13-7.48c0,.18-.9,.62-1.74,.62h-.29v-5.71l2.14,.88h2.96l.95-1.08,2.16,1.59c-.15,.15-.49,.35-.9,.44v3.18c-.02,.16-1.02,.57-1.68,.57h-.33v-.86h-3.27v.38Zm-1.96,2.1v2.34h3.93v-2.34h-3.93Zm3.93,5.38v-2.41h-3.93v2.41h3.93Zm-1.96-11.08v2.6h3.27v-2.6h-3.27Z"/></g></svg>