<?xml version="1.0" encoding="UTF-8"?><svg id="a" xmlns="http://www.w3.org/2000/svg" viewBox="0 0 170.41 73.84"><defs><style>.b{fill:#ffffe8;}</style></defs><path class="b" d="M17.13,34.46c0-.72,.1-1.55,.32-2.49,.21-.93,.51-2.14,.9-3.62,.45-1.54,.79-2.86,1.02-3.94,.23-1.08,.34-2.05,.34-2.9,0-2.23-.97-3.35-2.92-3.35-.52,0-1.05,.07-1.61,.2l-3.89,18.56H4.28L10.9,5.61l7.2-.98-2.39,11.37h.39c1.27,0,2.43-.44,3.5-1.33,1.07-.89,1.91-1.99,2.51-3.32,.6-1.33,.9-2.63,.9-3.91,0-1.51-.45-2.75-1.34-3.72-.89-.97-2.23-1.45-4.02-1.45-2.63,0-4.93,.48-6.91,1.43-1.98,.95-3.51,2.33-4.6,4.14-1.09,1.8-1.63,3.94-1.63,6.4,0,1.21,.11,2.06,.34,2.54,.23,.48,.34,.75,.34,.81-1.75,0-3.06-.37-3.92-1.11-.86-.74-1.29-1.96-1.29-3.67,0-2.1,.85-4.14,2.56-6.13,1.7-1.99,3.89-3.59,6.55-4.83,2.66-1.23,5.32-1.85,7.98-1.85,2.43,0,4.48,.36,6.13,1.08,1.65,.72,2.89,1.68,3.7,2.88,.81,1.2,1.22,2.5,1.22,3.91,0,1.54-.47,3.09-1.41,4.63-.94,1.54-2.22,2.81-3.85,3.79,1.23,.36,2.1,.96,2.6,1.8,.5,.84,.75,1.88,.75,3.13,0,.95-.11,1.96-.34,3.03-.23,1.07-.55,2.39-.97,3.96-.26,1.02-.5,2.02-.73,3-.23,.98-.34,1.81-.34,2.46,0,.75,.17,1.43,.51,2.02,.34,.59,.8,1,1.39,1.23-1.98,.56-3.59,.84-4.82,.84-2.53,0-3.8-1.1-3.8-3.3Z"/><path class="b" d="M35.19,35.32c-1.33-1.26-2-3.24-2-5.93,0-2.26,.44-4.76,1.31-7.48,.88-2.72,2.3-5.08,4.28-7.06,1.98-1.99,4.49-2.98,7.54-2.98,3.57,0,5.35,1.58,5.35,4.73,0,1.84-.52,3.53-1.56,5.07-1.04,1.54-2.42,2.78-4.14,3.72-1.72,.94-3.55,1.47-5.5,1.6-.07,.99-.1,1.64-.1,1.97,0,1.61,.28,2.7,.83,3.27s1.44,.86,2.68,.86c1.75,0,3.25-.41,4.5-1.23,1.25-.82,2.62-2.07,4.11-3.74h1.65c-3.6,6.07-8.06,9.11-13.39,9.11-2.4,0-4.27-.63-5.6-1.89Zm9.13-11.99c1.09-.79,1.96-1.79,2.63-3,.66-1.21,1-2.49,1-3.84s-.41-2.02-1.22-2.02c-1.17,0-2.31,1.03-3.43,3.1-1.12,2.07-1.92,4.41-2.41,7.04,1.2-.07,2.34-.49,3.43-1.28Z"/><path class="b" d="M58.99,36.31c-1.07-.61-1.87-1.39-2.39-2.36-.52-.97-.78-1.98-.78-3.03s.25-2.03,.75-2.83c.5-.8,1.11-1.39,1.83-1.75,1.27-2.3,2.37-4.62,3.31-6.97,.94-2.35,1.83-4.88,2.68-7.61l7.2-.99c.16,4.2,.44,8.75,.83,13.64,.16,1.97,.24,3.4,.24,4.28,0,.75-.07,1.38-.19,1.87,1.52-.89,2.69-1.71,3.5-2.46h2.04c-2.08,2.43-4.56,4.48-7.45,6.15-.94,1.02-2.1,1.76-3.48,2.24-1.38,.48-2.77,.71-4.16,.71-1.56,0-2.87-.3-3.94-.91Zm5.4-4.06c.81-.72,1.22-1.89,1.22-3.5,0-.98-.1-2.36-.29-4.13-.32-3.74-.54-6.25-.63-7.53-.78,2.59-2.09,5.7-3.94,9.31,.75,.39,1.12,.97,1.12,1.72,0,.62-.2,1.18-.61,1.67-.41,.49-.92,.74-1.53,.74-.68,0-1.12-.21-1.31-.64,0,1.18,.24,2.05,.71,2.61,.47,.56,1.22,.84,2.26,.84,1.2,0,2.21-.36,3.02-1.08Z"/><path class="b" d="M82.21,35.32c-1.33-1.26-2-3.24-2-5.93,0-2.26,.44-4.76,1.31-7.48,.88-2.72,2.3-5.08,4.28-7.06,1.98-1.99,4.49-2.98,7.54-2.98,3.57,0,5.35,1.58,5.35,4.73,0,1.84-.52,3.53-1.56,5.07-1.04,1.54-2.42,2.78-4.14,3.72-1.72,.94-3.55,1.47-5.5,1.6-.07,.99-.1,1.64-.1,1.97,0,1.61,.28,2.7,.83,3.27s1.44,.86,2.68,.86c1.75,0,3.25-.41,4.5-1.23,1.25-.82,2.62-2.07,4.11-3.74h1.65c-3.6,6.07-8.06,9.11-13.39,9.11-2.4,0-4.27-.63-5.6-1.89Zm9.13-11.99c1.09-.79,1.96-1.79,2.63-3,.66-1.21,1-2.49,1-3.84s-.41-2.02-1.22-2.02c-1.17,0-2.31,1.03-3.43,3.1-1.12,2.07-1.92,4.41-2.41,7.04,1.2-.07,2.34-.49,3.43-1.28Z"/><path class="b" d="M107.72,12.31h7.01l-.63,3.05c1.1-.98,2.1-1.74,2.99-2.26,.89-.52,1.86-.79,2.9-.79s1.86,.36,2.46,1.08c.6,.72,.9,1.59,.9,2.61,0,.95-.31,1.79-.92,2.51-.62,.72-1.48,1.08-2.58,1.08-.71,0-1.19-.17-1.44-.52-.24-.34-.43-.84-.56-1.5-.1-.43-.19-.74-.29-.94-.1-.2-.28-.3-.54-.3-.68,0-1.26,.14-1.73,.42-.47,.28-1.08,.76-1.83,1.45l-3.89,18.71h-7.01l5.16-24.62Z"/><path class="b" d="M128.72,35.77c-1.06-.97-1.58-2.42-1.58-4.36,0-.79,.08-1.58,.24-2.36l3.5-16.74h7.01l-3.5,16.74c-.16,.82-.24,1.41-.24,1.77,0,1.08,.55,1.62,1.65,1.62,1.49,0,2.88-.95,4.16-2.86,1.28-1.9,2.31-4.17,3.09-6.79,.78-2.62,1.17-4.89,1.17-6.79-.07,.17-.28,.29-.63,.37-.36,.08-.67,.12-.92,.12-.55,0-.98-.26-1.29-.79-.31-.52-.46-1.1-.46-1.72,0-.79,.25-1.43,.75-1.92,.5-.49,1.26-.74,2.26-.74,1.07,0,1.85,.4,2.34,1.21,.49,.8,.73,1.83,.73,3.08,0,2.95-.5,6.11-1.51,9.48-1.01,3.36-2.55,6.23-4.62,8.59-2.08,2.36-4.66,3.54-7.74,3.54-1.88,0-3.35-.48-4.4-1.45Z"/><path class="b" d="M153.91,35.32c-1.33-1.26-2-3.24-2-5.93,0-2.26,.44-4.76,1.31-7.48,.88-2.72,2.3-5.08,4.28-7.06,1.98-1.99,4.49-2.98,7.54-2.98,3.57,0,5.35,1.58,5.35,4.73,0,1.84-.52,3.53-1.56,5.07-1.04,1.54-2.42,2.78-4.14,3.72-1.72,.94-3.55,1.47-5.5,1.6-.06,.72-.1,1.21-.1,1.48,0,2.72,1.01,4.09,3.02,4.09,.91,0,1.88-.25,2.92-.74,1.04-.49,1.98-1.12,2.82-1.87-.88,4.86-3.68,7.29-8.42,7.29-2.37,0-4.22-.63-5.55-1.89Zm9.13-11.94c1.09-.79,1.96-1.8,2.63-3.03,.66-1.23,1-2.52,1-3.87s-.41-2.02-1.22-2.02c-1.14,0-2.26,1.04-3.38,3.13s-1.96,4.42-2.51,7.02c1.23-.03,2.39-.44,3.48-1.23Z"/><path class="b" d="M15.17,55.73s1.29,1.01,2.07,1.76c-.04,.24-.28,.35-.59,.35H6.31l-.15-.64h7.9l1.11-1.48Zm-1.05,2.91s1.22,.95,1.96,1.68c-.07,.24-.28,.35-.57,.35H7.45l-.17-.64h5.76l1.09-1.39Zm0,2.85s1.22,.95,1.96,1.68c-.07,.24-.28,.35-.57,.35H7.45l-.17-.64h5.76l1.09-1.39Zm.04,3.29l2.05,1.59c-.13,.18-.46,.35-.89,.44v5.14c-.02,.15-.94,.57-1.59,.57h-.31v-1.21h-3.84v1.32c0,.18-.83,.62-1.61,.62h-.26v-8.25l1.96,.84h3.53l.96-1.06Zm-4.63-11.63c5.13,.73,3.32,4.72,1.35,3.31-.11-1.12-.85-2.43-1.55-3.2l.2-.11Zm3.88,17.54v-4.21h-3.84v4.21h3.84Zm10.93-17.14s1.42,1.17,2.31,2.01c-.07,.24-.31,.35-.61,.35h-3.19v14.83c0,1.48-.37,2.56-2.99,2.78-.04-.66-.2-1.21-.55-1.5-.37-.35-.92-.6-2.12-.77v-.31s2.55,.18,3.08,.18c.41,0,.52-.15,.52-.46v-14.74h-4.45l-.17-.64h6.87l1.29-1.72Z"/><path class="b" d="M54.84,68.02s-.09,.15-.24,.24l2.05,.95c-.13,.22-.31,.35-.81,.29-.76,1.35-2.09,3.04-3.73,4.08l-.24-.26c1.07-1.32,1.92-3.38,2.31-4.9-.22,.09-.52,.13-.85,.13h-.31v-14.78l2.05,.82h1.92l.94-1.13,1.92,1.52c-.17,.18-.44,.33-.9,.42v12.29c0,.11-.65,.55-1.57,.55h-.31v-1.06h-2.25v.84Zm0-12.8v3.29h2.25v-3.29h-2.25Zm2.25,7.26v-3.33h-2.25v3.33h2.25Zm0,4.08v-3.44h-2.25v3.44h2.25Zm-.63,1.66c4.65,1.9,2.84,5.38,1.2,3.93-.04-1.26-.76-2.8-1.44-3.79l.24-.13Zm14.69-1.06s.98,.95,1.53,1.61c-.04,.24-.24,.35-.55,.35h-1.77v2.07c0,1.37-.26,2.16-2.53,2.38-.04-.57-.15-1.06-.42-1.35-.31-.29-.76-.51-1.68-.64v-.35s1.92,.15,2.33,.15c.35,0,.44-.13,.44-.44v-1.83h-6.13v3.88c0,.2-.72,.62-1.51,.62h-.28v-4.5h-1.4l-.15-.64h1.55v-6.64l1.9,.84h2.05v-1.57h-5.11l-.17-.62h2.99v-1.88h-2.18l-.17-.64h2.36v-1.72h-2.49l-.17-.64h2.66v-2.34l2.53,.24c-.04,.26-.22,.46-.68,.55v1.54h2.57v-2.34l2.51,.24c-.04,.29-.2,.46-.68,.55v1.54h.65l1-1.35s1.16,.93,1.83,1.63c-.04,.24-.26,.35-.57,.35h-2.92v1.72h.61l.87-1.15s1,.82,1.59,1.43c-.07,.24-.24,.35-.55,.35h-2.53v1.88h.98l.98-1.35s1.13,.95,1.83,1.61c-.04,.24-.26,.35-.57,.35h-5.41v1.57h1.99l.85-1.04,2.07,1.57c-.11,.15-.44,.35-.87,.42v4.72l.79-1.19Zm-8.77-3.84v2.23h2.16v-2.23h-2.16Zm0,5.16h2.16v-2.29h-2.16v2.29Zm1.72-10.5h2.57v-1.72h-2.57v1.72Zm0,2.52h2.57v-1.88h-2.57v1.88Zm2.23,2.82v2.23h2.18v-2.23h-2.18Zm2.18,5.16v-2.29h-2.18v2.29h2.18Z"/><path class="b" d="M117.48,64.8c-.13,.2-.33,.31-.81,.2-1.16,.79-2.95,1.74-4.67,2.41,1.68,1.63,3.86,2.58,6.24,3.07l-.04,.29c-1,.46-1.64,1.24-1.75,2.25-3.97-1.63-6.61-4.96-7.83-10.39h-.04c-.83,1.12-1.92,2.12-3.16,3.02v5.25c1.42-.42,3.19-.93,4.98-1.5l.09,.29c-1.31,.77-3.62,2.23-6.28,3.68-.13,.22-.31,.38-.46,.49l-1.46-2.14c.92-.55,1.07-.75,1.07-1.12v-3.64c-1.64,.9-3.51,1.66-5.48,2.23l-.17-.31c3.29-1.52,6.15-3.91,7.9-6.24h-7.27l-.17-.64h8.75v-2.56h-6.42l-.17-.64h6.59v-2.43h-7.44l-.17-.64h7.62v-2.74l2.92,.29c-.04,.31-.24,.53-.81,.62v1.83h4.71l1.2-1.59s1.37,1.1,2.18,1.88c-.07,.24-.28,.35-.57,.35h-7.53v2.43h3.93l1.13-1.52s1.33,1.06,2.12,1.81c-.07,.24-.28,.35-.59,.35h-6.59v2.56h5.46l1.22-1.63s1.35,1.12,2.2,1.92c-.04,.24-.28,.35-.59,.35h-8.2c.57,1.79,1.42,3.22,2.47,4.37,1.31-1.17,2.71-2.76,3.4-3.82l2.51,1.63Z"/><path class="b" d="M161.6,67.22s1.51,1.12,2.44,1.96c-.07,.24-.28,.35-.61,.35h-8.62v3.53c0,.13-.68,.53-1.77,.53h-.37v-4.06h-8.92l-.2-.64h9.12v-2.18h-3.88v.53c0,.2-.92,.66-1.75,.66h-.31v-8.6c-.24,.07-.5,.11-.74,.11h-.28v-5.89l2.05,.86h2.95l.96-1.06,2.09,1.57c-.13,.15-.46,.33-.87,.42v3.16c-.02,.15-.98,.55-1.64,.55h-.33v-.79h-3.25v.57c0,.11-.28,.29-.7,.44l1.99,.82h9.51l1.05-1.1,2.14,1.66c-.13,.13-.44,.31-.87,.4v5.94c-.02,.15-1.03,.64-1.75,.64h-.35v-.86h-3.88v2.18h5.46l1.33-1.68Zm-13.92-12.22v2.6h3.25v-2.6h-3.25Zm1.11,5.69v2.34h3.88v-2.34h-3.88Zm3.88,5.38v-2.41h-3.88v2.41h3.88Zm4.08-7.48c0,.18-.89,.62-1.72,.62h-.28v-5.71l2.12,.88h2.92l.94-1.08,2.14,1.59c-.15,.15-.48,.35-.89,.44v3.18c-.02,.16-1,.57-1.66,.57h-.33v-.86h-3.23v.38Zm-1.94,2.1v2.34h3.88v-2.34h-3.88Zm3.88,5.38v-2.41h-3.88v2.41h3.88Zm-1.94-11.08v2.6h3.23v-2.6h-3.23Z"/></svg>