<?xml version="1.0" encoding="UTF-8"?><svg id="a" xmlns="http://www.w3.org/2000/svg" viewBox="0 0 276 96"><defs><style>.b{fill:#ffffe8;stroke:#5d412e;stroke-miterlimit:10;}.c{fill:#281009;}</style></defs><g><path class="b" d="M248.81,.5H27.19c-.29,12.9-12.12,23.27-26.69,23.27v48.45c14.57,0,26.4,10.38,26.69,23.27H248.81c.29-12.9,12.12-23.27,26.69-23.27V23.77c-14.57,0-26.4-10.38-26.69-23.27Z"/><path class="b" d="M243.86,6.14c0-.3,.01-.59,.03-.89H32.91c.01,.3,.03,.59,.03,.89,0,13.12-11.95,23.75-26.7,23.75-.13,0-.27,0-.4,0v37.07c.13,0,.27,0,.4,0,14.75,0,26.7,10.63,26.7,23.75,0,.02,0,.04,0,.06H243.86s0-.04,0-.06c0-13,11.74-23.55,26.3-23.74V29.88c-14.56-.19-26.3-10.74-26.3-23.74Z"/></g><g><path class="c" d="M79.57,24.92c-1.34,.56-2.38,1.4-3.11,2.53-.73,1.12-1.1,2.48-1.1,4.06,0,.74,.07,1.26,.21,1.55,.14,.29,.21,.46,.21,.5-1.08,0-1.89-.23-2.42-.68-.53-.45-.8-1.2-.8-2.24,0-1.28,.53-2.53,1.58-3.75s2.4-2.2,4.05-2.95c1.65-.75,3.29-1.13,4.94-1.13,.28,0,.68,.02,1.2,.06l-1.93,8.97h4.42l1.93-8.97h4.33l-4.78,22.51h-4.33l2.41-11.31h-4.42l-2.41,11.31h-4.33l4.36-20.46Z"/><path class="c" d="M93.09,44.36c-.86-.76-1.29-1.97-1.29-3.61,0-1.36,.28-2.88,.84-4.54,.56-1.67,1.46-3.1,2.71-4.32,1.24-1.21,2.81-1.82,4.69-1.82,2.57,0,3.85,1.61,3.85,4.82v.03c.06,.02,.17,.03,.33,.03,.66,0,1.42-.17,2.29-.53,.86-.35,1.65-.78,2.35-1.28l.27,.81c-.58,.62-1.34,1.15-2.27,1.58-.93,.43-1.95,.74-3.05,.92-.16,1.83-.57,3.42-1.23,4.79s-1.52,2.42-2.56,3.16c-1.04,.74-2.18,1.11-3.4,1.11-1.48,0-2.66-.38-3.52-1.14Zm6.17-2.39c.48-.55,.9-1.3,1.26-2.26,.36-.95,.62-2.01,.78-3.17-.54-.12-.81-.54-.81-1.26,0-.82,.31-1.36,.93-1.62-.04-.66-.14-1.12-.3-1.37s-.44-.38-.84-.38c-.66,0-1.3,.48-1.93,1.44-.62,.96-1.12,2.12-1.5,3.46-.38,1.34-.57,2.53-.57,3.55,0,.96,.11,1.61,.33,1.94,.22,.33,.62,.5,1.2,.5,.48,0,.96-.28,1.44-.83Z"/><path class="c" d="M106.07,44.66c-.59-.6-.89-1.5-.89-2.71,0-.5,.08-1.15,.24-1.96l2.05-9.66h4.33l-2.17,10.23c-.06,.24-.09,.49-.09,.75,0,.88,.3,1.32,.9,1.32,.56,0,1.04-.24,1.44-.71s.72-1.12,.96-1.94l2.05-9.66h4.33l-2.17,10.23c-.1,.5-.15,.86-.15,1.08,0,.66,.34,.99,1.02,.99,.92,0,1.78-.58,2.57-1.75,.79-1.16,1.43-2.55,1.91-4.15,.48-1.6,.72-2.99,.72-4.15-.04,.1-.17,.18-.39,.23-.22,.05-.41,.08-.57,.08-.34,0-.61-.16-.8-.48-.19-.32-.29-.67-.29-1.05,0-.48,.16-.87,.47-1.17,.31-.3,.78-.45,1.4-.45,.66,0,1.14,.25,1.44,.74,.3,.49,.45,1.12,.45,1.88,0,1.81-.31,3.74-.93,5.79-.62,2.06-1.58,3.81-2.86,5.25-1.28,1.44-2.88,2.17-4.79,2.17-.98,0-1.79-.21-2.41-.63-.62-.42-1.02-1.05-1.2-1.9-1.12,1.69-2.55,2.53-4.27,2.53-.96,0-1.74-.3-2.33-.9Z"/><path class="c" d="M132.49,44.66c-.59-.6-.89-1.5-.89-2.71,0-.5,.08-1.15,.24-1.96l1.81-8.46h-.99l.24-1.2h.99l.9-4.15,4.45-.6-1.02,4.75h1.81l-.24,1.2h-1.81l-1.93,9.03c-.08,.3-.12,.62-.12,.96,0,.4,.09,.69,.29,.86,.19,.17,.51,.26,.95,.26,.58,0,1.12-.25,1.62-.74,.5-.49,.86-1.13,1.08-1.91h1.26c-.74,2.17-1.7,3.64-2.86,4.41-1.16,.77-2.32,1.16-3.46,1.16-.96,0-1.74-.3-2.33-.9Z"/><path class="c" d="M140.75,44.36c-.86-.76-1.29-1.97-1.29-3.61,0-1.38,.27-2.9,.81-4.56,.54-1.66,1.42-3.09,2.65-4.3,1.22-1.21,2.79-1.82,4.69-1.82,2.37,0,3.64,1.35,3.82,4.06,.44-.1,.83-.35,1.17-.74,.34-.39,.66-.84,.96-1.34h.96c-.54,1.08-1.02,1.93-1.44,2.54-.42,.61-.97,1.11-1.66,1.49-.12,1.89-.51,3.54-1.16,4.97-.65,1.42-1.5,2.52-2.54,3.29s-2.2,1.16-3.46,1.16c-1.49,0-2.66-.38-3.52-1.14Zm6.8-3.37c.64-1.2,1.08-2.69,1.32-4.45-.48-.18-.72-.63-.72-1.35,0-.78,.28-1.3,.84-1.57-.04-.64-.15-1.09-.32-1.34-.17-.25-.45-.38-.83-.38-.66,0-1.29,.48-1.9,1.43-.6,.95-1.09,2.11-1.46,3.46-.37,1.35-.56,2.54-.56,3.57,0,.96,.11,1.61,.33,1.94,.22,.33,.62,.5,1.2,.5,.74,0,1.43-.6,2.08-1.81Z"/><path class="c" d="M161.94,44.55c-.72-.67-1.08-1.62-1.08-2.84,0-.6,.07-1.17,.21-1.72l3.22-15.08,4.45-.6-1.44,6.77c.56-.34,1.02-.57,1.38-.68,.36-.11,.72-.17,1.08-.17,2.37,0,3.55,1.72,3.55,5.15,0,1.38-.27,2.86-.8,4.44s-1.41,2.92-2.65,4.05c-1.23,1.12-2.83,1.69-4.8,1.69-1.37,0-2.41-.34-3.13-1.01Zm6.56-3.07c.54-.77,.97-1.73,1.29-2.89,.32-1.15,.48-2.26,.48-3.33,0-.8-.14-1.48-.42-2.05s-.67-.84-1.17-.84c-.3,0-.64,.04-1.01,.14-.37,.09-.63,.23-.77,.41l-1.65,7.64c-.06,.24-.09,.47-.09,.69,0,.92,.53,1.38,1.59,1.38,.62,0,1.2-.39,1.75-1.16Z"/><path class="c" d="M175.07,44.66c-.59-.6-.89-1.5-.89-2.71,0-.5,.08-1.15,.24-1.96l2.05-9.66h4.33l-2.17,10.23c-.06,.3-.09,.58-.09,.84,0,.82,.3,1.23,.9,1.23,.56,0,1.04-.24,1.44-.71s.72-1.12,.96-1.94l2.05-9.66h4.33l-2.17,10.23c-.08,.3-.12,.62-.12,.96,0,.4,.09,.69,.29,.86,.19,.17,.51,.26,.95,.26,.56,0,1.05-.24,1.46-.72s.74-1.12,.98-1.93h1.26c-.74,2.17-1.66,3.64-2.75,4.41-1.09,.77-2.19,1.16-3.29,1.16-.86,0-1.55-.24-2.06-.72s-.82-1.19-.92-2.14c-.68,1.1-1.4,1.86-2.15,2.26-.75,.4-1.52,.6-2.3,.6-.96,0-1.74-.3-2.33-.9Z"/><path class="c" d="M191.83,51.99c-.71-.61-1.07-1.39-1.07-2.33,0-.88,.22-1.6,.66-2.17s1.01-1,1.72-1.32c.7-.32,1.64-.66,2.83-1.02l.3-1.32c-1.02,1.16-2.25,1.75-3.67,1.75-.96,0-1.74-.3-2.33-.9-.59-.6-.89-1.5-.89-2.71,0-.5,.08-1.15,.24-1.96l2.05-9.66h4.33l-2.17,10.23c-.06,.24-.09,.49-.09,.75,0,.88,.3,1.32,.9,1.32,.56,0,1.04-.24,1.44-.71s.72-1.12,.96-1.94l2.05-9.66h4.36l-3.67,17.45c-.4,1.93-1.11,3.26-2.12,4-1.01,.74-2.13,1.11-3.36,1.11-.94,0-1.77-.31-2.48-.92Zm2.81-2.32c.32-.37,.57-.97,.75-1.79l.36-1.78c-1.06,.36-1.89,.78-2.47,1.26-.58,.48-.87,1.1-.87,1.86,0,.24,.12,.47,.36,.68,.24,.21,.52,.32,.84,.32,.36,0,.7-.19,1.02-.56Z"/></g><g><path class="c" d="M105.24,61.32c-.55,.13-1.15,.26-1.81,.42-.24,2.85-.82,5.54-2.07,7.88,4.5,2.76,2.67,5.01,1.06,4.06-.49-.77-1.24-1.61-2.1-2.43-1.28,1.72-3.09,3.16-5.6,4.26l-.24-.24c2.18-1.35,3.71-3.04,4.77-4.99-1.28-1.08-2.71-2.03-3.95-2.76,.38-1.1,.79-2.71,1.21-4.43l-.9,.15c-.15,.29-.4,.44-.64,.49l-.71-2.32c.64,0,1.54-.02,2.63-.07,.55-2.43,1.04-4.85,1.21-6.29l2.85,.44c-.09,.26-.22,.51-.88,.55-.24,1.3-.66,3.22-1.15,5.23l2.52-.11c.04-.77,.04-1.54,.04-2.32l2.96,.51c-.09,.38-.38,.55-.86,.6-.02,.35-.04,.73-.07,1.1l1.72-.09,.02,.35Zm-3.86,.84c-.86,.18-1.79,.38-2.82,.57-.46,1.74-.95,3.51-1.43,4.94,1.1,.4,2.03,.79,2.8,1.17,.86-2.07,1.28-4.33,1.46-6.69Zm13.3-3.31c-.15,.2-.51,.38-.97,.49v13.7c-.02,.2-1.02,.73-1.77,.73h-.35v-1.92h-4.06v1.72c0,.24-.79,.75-1.7,.75h-.35v-16.99l2.14,.97h3.75l1.08-1.24,2.23,1.79Zm-3.09,12.36v-12.29h-4.06v12.29h4.06Z"/><path class="c" d="M123.95,55.91c-.11,.26-.38,.46-.86,.44-.66,1.72-1.41,3.31-2.27,4.77l1.1,.42c-.07,.22-.26,.35-.66,.42v12.88c-.04,.18-.88,.64-1.72,.64h-.38v-11.91c-.84,1.08-1.74,2.05-2.71,2.87l-.29-.2c1.85-2.71,3.77-7,4.77-11.25l3.02,.93Zm10.97,0s1.5,1.19,2.4,2.05c-.07,.24-.29,.35-.62,.35h-1.68v14.39c0,1.5-.4,2.58-3.18,2.78-.04-.64-.22-1.17-.6-1.5-.42-.33-1.04-.57-2.29-.75v-.31s2.78,.18,3.35,.18c.44,0,.57-.15,.57-.49v-14.3h-9.69l-.18-.64h10.57l1.32-1.76Zm-4.48,13.7c-.04,.11-.97,.51-1.63,.51h-.31v-1.54h-2.91v1.32c0,.2-.82,.64-1.63,.64h-.31v-9.8l2.03,.86h2.58l1.02-1.12,2.16,1.68c-.15,.18-.51,.38-.99,.46v7Zm-1.94-1.68v-5.69h-2.91v5.69h2.91Z"/><path class="c" d="M141.47,69.9s-.09,.15-.24,.24l2.07,.95c-.13,.22-.31,.35-.82,.29-.77,1.35-2.12,3.04-3.77,4.08l-.24-.26c1.08-1.32,1.94-3.38,2.34-4.9-.22,.09-.53,.13-.86,.13h-.31v-14.78l2.07,.82h1.94l.95-1.13,1.94,1.52c-.18,.18-.44,.33-.9,.42v12.29c0,.11-.66,.55-1.59,.55h-.31v-1.06h-2.27v.84Zm0-12.8v3.29h2.27v-3.29h-2.27Zm2.27,7.26v-3.33h-2.27v3.33h2.27Zm0,4.08v-3.44h-2.27v3.44h2.27Zm-.64,1.66c4.7,1.9,2.87,5.38,1.21,3.93-.04-1.26-.77-2.8-1.46-3.79l.24-.13Zm14.85-1.06s.99,.95,1.54,1.61c-.04,.24-.24,.35-.55,.35h-1.79v2.07c0,1.37-.26,2.16-2.56,2.38-.04-.57-.15-1.06-.42-1.35-.31-.29-.77-.51-1.7-.64v-.35s1.94,.15,2.36,.15c.35,0,.44-.13,.44-.44v-1.83h-6.2v3.88c0,.2-.73,.62-1.52,.62h-.29v-4.5h-1.41l-.15-.64h1.57v-6.64l1.92,.84h2.07v-1.57h-5.16l-.18-.62h3.02v-1.88h-2.21l-.18-.64h2.38v-1.72h-2.52l-.18-.64h2.69v-2.34l2.56,.24c-.04,.26-.22,.46-.68,.55v1.54h2.6v-2.34l2.54,.24c-.04,.29-.2,.46-.68,.55v1.54h.66l1.02-1.35s1.17,.93,1.85,1.63c-.04,.24-.26,.35-.57,.35h-2.96v1.72h.62l.88-1.15s1.01,.82,1.61,1.43c-.07,.24-.24,.35-.55,.35h-2.56v1.88h.99l.99-1.35s1.15,.95,1.85,1.61c-.04,.24-.26,.35-.57,.35h-5.47v1.57h2.01l.86-1.04,2.1,1.57c-.11,.15-.44,.35-.88,.42v4.72l.79-1.19Zm-8.87-3.84v2.23h2.18v-2.23h-2.18Zm0,5.16h2.18v-2.29h-2.18v2.29Zm1.74-10.5h2.6v-1.72h-2.6v1.72Zm0,2.52h2.6v-1.88h-2.6v1.88Zm2.25,2.82v2.23h2.21v-2.23h-2.21Zm2.21,5.16v-2.29h-2.21v2.29h2.21Z"/><path class="c" d="M161.16,75.13c2.76-.79,5.83-2.43,7.3-3.66l2.45,1.72c-.2,.22-.6,.26-1.24,.11-1.99,.95-5.32,1.83-8.41,2.16l-.11-.33Zm3.66-14.23c0,.18-.91,.62-1.72,.62h-.29v-6.16l2.18,.9h11.98l.95-1.04,2.12,1.52c-.13,.16-.42,.35-.82,.42v3.6c-.02,.13-1.08,.53-1.72,.53h-.33v-.82h-12.36v.42Zm10.59,10.92v-.79h-8.85v.53c0,.2-.88,.66-1.77,.66h-.29v-10.99l2.21,.93h8.49l1.02-1.1,2.1,1.61c-.13,.16-.42,.33-.82,.42v8.16c-.02,.16-1.04,.57-1.74,.57h-.35Zm-10.59-14.94v2.96h2.76v-2.96h-2.76Zm1.74,5.89v2.1h8.85v-2.1h-8.85Zm8.85,2.74h-8.85v2.1h8.85v-2.1Zm0,4.88v-2.14h-8.85v2.14h8.85Zm-5.87-13.5v2.96h2.8v-2.96h-2.8Zm2.6,15.14c11.47,.46,7.7,4.68,5.58,3.09-1.04-.9-2.96-2.03-5.65-2.78l.07-.31Zm2.18-15.14v2.96h2.85v-2.96h-2.85Z"/></g></svg>