<?xml version="1.0" encoding="UTF-8"?><svg id="a" xmlns="http://www.w3.org/2000/svg" viewBox="0 0 158.68 73.8"><defs><style>.b{fill:#ffffe8;}</style></defs><path class="b" d="M7.01,42.44c-.91-.2-1.7-.67-2.36-1.43-.67-.76-1-1.92-1-3.5,0-2.2,.66-5.15,1.97-8.86,1.31-3.71,3.04-7.43,5.18-11.18-1.62,.1-2.9,.34-3.85,.74-.94,.39-1.56,1-1.85,1.82,.13,0,.27,.16,.41,.49s.22,.67,.22,1.03c0,.59-.26,1.06-.78,1.4-.52,.34-1.17,.52-1.95,.52-.91,0-1.64-.25-2.19-.74-.55-.49-.83-1.2-.83-2.12,0-1.12,.43-2.13,1.29-3.05,.86-.92,2.05-1.65,3.58-2.19,1.52-.54,3.21-.81,5.06-.81,.68,0,1.52,.05,2.53,.15,2.66-4.27,5.48-7.75,8.45-10.46S26.71,.2,29.4,.2c1.56,0,2.84,.23,3.85,.69l-7.64,36.23h-7.01l3.75-17.87c-1.2-.56-2.3-.97-3.31-1.23-1.01-.26-2.08-.44-3.21-.54-1.85,4.04-3.37,8.17-4.55,12.38-1.19,4.22-1.78,7.59-1.78,10.12,0,1.25,.23,2.17,.68,2.76-1.2,0-2.26-.1-3.16-.29ZM25.6,3.69c-1.4,.76-2.85,2.16-4.36,4.21-1.51,2.05-2.98,4.54-4.41,7.46,2.34,.46,4.32,1.03,5.94,1.72l2.82-13.39Z"/><path class="b" d="M38.55,36.51c-1.07-.61-1.87-1.39-2.39-2.36-.52-.97-.78-1.98-.78-3.03s.25-2.03,.75-2.83c.5-.8,1.11-1.39,1.83-1.75,1.27-2.3,2.37-4.62,3.31-6.97,.94-2.35,1.83-4.88,2.68-7.61l7.2-.99c.16,4.2,.44,8.75,.83,13.64,.16,1.97,.24,3.4,.24,4.28,0,.75-.07,1.38-.19,1.87,1.52-.89,2.69-1.71,3.5-2.46h2.04c-2.08,2.43-4.56,4.48-7.45,6.15-.94,1.02-2.1,1.76-3.48,2.24-1.38,.48-2.77,.71-4.16,.71-1.56,0-2.87-.3-3.94-.91Zm5.4-4.06c.81-.72,1.22-1.89,1.22-3.5,0-.98-.1-2.36-.29-4.13-.32-3.74-.54-6.25-.63-7.53-.78,2.59-2.09,5.7-3.94,9.31,.75,.39,1.12,.97,1.12,1.72,0,.62-.2,1.18-.61,1.67-.41,.49-.92,.74-1.53,.74-.68,0-1.12-.21-1.31-.64,0,1.18,.24,2.05,.71,2.61,.47,.56,1.22,.84,2.26,.84,1.2,0,2.21-.36,3.02-1.08Z"/><path class="b" d="M74.13,35.96c-1.04-.97-1.56-2.35-1.56-4.16,0-.79,.1-1.64,.29-2.56l.39-1.92c.13-.56,.19-1.17,.19-1.82,0-1.58-.58-2.36-1.75-2.36-.52,0-1.06,.15-1.63,.44-.57,.3-1.23,.76-1.97,1.38l-2.53,12.16h-7.01L65.61,3.64l7.2-.98-3.65,17.33,9.39-7.48h4.82l-9.73,6.84c.49-.13,1.02-.2,1.61-.2,1.75,0,3.08,.54,3.99,1.62,.91,1.08,1.36,2.46,1.36,4.13,0,.69-.07,1.31-.19,1.87l-.54,2.46c-.16,.59-.24,1.12-.24,1.58,0,1.21,.63,1.82,1.9,1.82,.71,0,1.17-.05,1.36-.15,.19-.1,.31-.15,.34-.15-.07,1.08-.36,2-.9,2.76-.54,.76-1.15,1.33-1.85,1.72-.7,.39-1.29,.59-1.78,.59-2.01,0-3.54-.48-4.58-1.45Z"/><path class="b" d="M113.68,35.08c-1.64-1.59-2.46-3.95-2.46-7.06,0-1.54,.23-3.27,.68-5.17l4.96-19.99c-2.79,.76-4.96,2.09-6.52,4.01s-2.34,4.03-2.34,6.33c0,1.61,.42,3.17,1.27,4.68-1.85,0-3.29-.46-4.31-1.38-1.02-.92-1.53-2.22-1.53-3.89,0-2.13,.85-4.18,2.56-6.13s3.97-3.52,6.79-4.7c2.82-1.18,5.81-1.77,8.96-1.77,1.1,0,2.01,.08,2.73,.25l-5.94,22.75c-.55,2.07-.83,3.84-.83,5.32,0,3.12,1.27,4.68,3.8,4.68,3.63,0,6.15-3.38,7.54-10.14L133.9,.1h6.86l-4.72,22.75c-1.04,4.83-2.83,8.47-5.38,10.93-2.55,2.46-5.79,3.69-9.71,3.69-3.21,0-5.64-.8-7.28-2.39Z"/><path class="b" d="M145,36.51c-1.07-.61-1.87-1.39-2.39-2.36-.52-.97-.78-1.98-.78-3.03s.25-2.03,.75-2.83c.5-.8,1.11-1.39,1.83-1.75,1.27-2.3,2.37-4.62,3.31-6.97,.94-2.35,1.83-4.88,2.68-7.61l7.2-.99c.16,4.2,.44,8.75,.83,13.64,.16,1.97,.24,3.4,.24,4.28,0,2-.5,3.64-1.51,4.92-1.01,1.28-2.25,2.2-3.72,2.76-1.48,.56-2.98,.84-4.5,.84s-2.87-.3-3.94-.91Zm5.4-4.06c.81-.72,1.22-1.89,1.22-3.5,0-.98-.1-2.36-.29-4.13-.32-3.74-.54-6.25-.63-7.53-.78,2.59-2.09,5.7-3.94,9.31,.75,.39,1.12,.97,1.12,1.72,0,.62-.2,1.18-.61,1.67-.41,.49-.92,.74-1.53,.74-.68,0-1.12-.21-1.31-.64,0,1.18,.24,2.05,.71,2.61,.47,.56,1.22,.84,2.26,.84,1.2,0,2.21-.36,3.02-1.08Z"/><path class="b" d="M7.67,56.1s1.18,.93,1.92,1.63c-.04,.24-.26,.35-.57,.35H.42l-.17-.62H6.57l1.09-1.37Zm-1.92,4.17l1.03-1.28s1.13,.88,1.81,1.57c-.04,.24-.24,.35-.55,.35H1.42l-.17-.64H5.75Zm1.03,1.54s1.13,.9,1.81,1.59c-.04,.24-.24,.35-.55,.35H1.42l-.17-.64H5.75l1.03-1.3Zm.17,3.18l2.01,1.54c-.13,.15-.44,.33-.87,.42v5.16c-.02,.15-.94,.57-1.57,.57h-.31v-1.12H3.45v1.32c0,.2-.83,.62-1.59,.62h-.26v-8.32l1.94,.82h2.44l.96-1.01Zm-4.02-11.54c5.06,.71,3.34,4.57,1.4,3.2-.15-1.06-.92-2.34-1.59-3.07l.2-.13Zm3.27,17.47v-4.28H3.45v4.28h2.75Zm14.58-13.13c-.15,.2-.44,.33-.94,.42-.02,8.61-.11,13.19-1.07,14.43-.65,.79-1.57,1.15-2.79,1.15,.02-.66-.09-1.19-.44-1.48-.39-.33-1.33-.64-2.31-.82l.02-.35c1,.11,2.62,.22,3.12,.22,.41,0,.57-.07,.76-.29,.7-.73,.74-5.58,.76-13.19h-5.87c-.41,.73-.83,1.39-1.31,2.01l1.53,.66h2.25l.92-.99,1.94,1.5c-.13,.18-.48,.38-.92,.46v7.11c-.02,.13-.87,.51-1.44,.51h-.28v-1.15h-2.58v1.26c0,.2-.74,.62-1.48,.62h-.26v-9.53c-.61,.79-1.29,1.5-1.96,2.1l-.31-.18c1.33-2.18,2.71-5.58,3.45-8.87l2.84,.95c-.09,.26-.37,.46-.85,.44-.35,.86-.74,1.68-1.18,2.47h5.28l1.11-1.21,2.01,1.76Zm-8.64,3.4v2.65h2.58v-2.65h-2.58Zm2.58,6.16v-2.87h-2.58v2.87h2.58Z"/><path class="b" d="M49.17,60.96v12.07c0,.26-.72,.77-1.64,.77h-.35v-19.95l2.09,.93h3.67l.92-.99,2.01,1.52c-.13,.15-.41,.33-.81,.4v6.07c-.02,.15-1,.55-1.61,.55h-.31v-1.37h-3.97Zm0-5.54v2.12h3.97v-2.12h-3.97Zm3.97,4.92v-2.18h-3.97v2.18h3.97Zm7.99,4.28c-.13,.16-.41,.33-.81,.42v5.12c-.02,.15-.98,.6-1.64,.6h-.33v-1.3h-4.54v1.06c0,.18-.83,.62-1.66,.62h-.28v-7.88l2.05,.84h4.21l.98-1.01,2.01,1.54Zm-2.77,4.19v-4.08h-4.54v4.08h4.54Zm7.79-13.48c-.15,.18-.48,.38-.89,.46v15.45c0,1.43-.31,2.23-2.75,2.43-.04-.55-.13-1.04-.41-1.3-.31-.29-.79-.51-1.75-.66v-.31s1.99,.13,2.4,.13c.39,0,.48-.15,.48-.46v-10.11h-4.08v.55c0,.18-.83,.64-1.66,.64h-.28v-8.21l2.05,.84h3.75l.98-1.15,2.16,1.7Zm-7,.09v2.12h4.08v-2.12h-4.08Zm4.08,4.92v-2.18h-4.08v2.18h4.08Z"/><path class="b" d="M111.62,71.28c.72,1.04,.81,1.52,.55,1.85-.74,.84-2.29,.15-3.29-.66-1.2-.9-2.14-2.01-2.9-3.31-1.72,1.61-3.86,3-6.42,3.95l-.17-.29c2.36-1.3,4.32-3.09,5.89-5.05-.87-1.94-1.4-4.19-1.7-6.69h-4.47v3.33c1.31-.29,2.68-.57,4.08-.86l.07,.33c-1.11,.49-2.49,1.06-4.15,1.7v5.41c0,1.5-.35,2.58-2.88,2.8-.04-.64-.2-1.19-.5-1.52-.37-.33-.87-.57-2.03-.75v-.31s2.36,.18,2.88,.18c.37,0,.48-.15,.48-.46v-4.54c-1.09,.42-2.27,.84-3.56,1.3-.09,.29-.33,.49-.55,.55l-.98-2.49c1.03-.13,2.86-.46,5.08-.93v-3.73h-4.93l-.17-.62h5.11v-3.66c-1.59,.33-3.27,.6-4.87,.75l-.09-.31c3.03-.86,6.7-2.47,8.51-3.62l2.31,1.94c-.24,.22-.65,.26-1.27,.02-.74,.24-1.59,.51-2.55,.73v4.15h4.41c-.22-2.14-.31-4.46-.31-6.88l2.84,.31c-.02,.29-.22,.55-.76,.62-.02,2.05,.02,4.06,.22,5.96h3.23l1.27-1.54s1.4,1.06,2.29,1.83c-.07,.22-.28,.33-.59,.33h-6.13c.2,1.72,.55,3.33,1.07,4.77,.81-1.32,1.46-2.67,1.92-3.97l2.68,1.19c-.13,.24-.33,.38-.87,.29-.72,1.43-1.68,2.91-2.9,4.3,.63,1.15,1.46,2.1,2.49,2.8,.37,.31,.5,.29,.72-.11,.31-.55,.79-1.68,1.11-2.63l.26,.07-.41,3.49Zm-4.95-16.68c5.41,1.21,3.77,5.01,1.9,3.62-.22-1.19-1.2-2.62-2.09-3.49l.2-.13Z"/><path class="b" d="M148.54,54.01l1.85,1.39c-.13,.18-.44,.33-.83,.42v7.21c-.02,.15-.87,.53-1.42,.53h-.26v-1.32h-2.31v10.79c0,.29-.72,.77-1.59,.77h-.37v-19.44c-.13,.18-.37,.29-.76,.29-.48,1.63-1.05,3.22-1.7,4.7l1.11,.42c-.07,.2-.28,.35-.65,.42v13.04c-.02,.15-.83,.57-1.57,.57h-.35v-11.72c-.59,.97-1.22,1.83-1.9,2.58l-.31-.18c1.4-2.82,2.73-7.1,3.4-11.19l2.73,.86v-.15l2.05,.9h2.03l.85-.9Zm-2.97,1.54v2.65h2.31v-2.65h-2.31Zm2.31,6.05v-2.76h-2.31v2.76h2.31Zm10.06-6.13c-.13,.18-.48,.38-.89,.46v15.25c0,1.5-.31,2.38-2.86,2.62-.07-.64-.17-1.17-.5-1.46-.35-.35-.87-.6-1.94-.75v-.33s2.31,.15,2.77,.15c.39,0,.5-.13,.5-.46v-8.72h-2.4v.66c0,.18-.7,.57-1.44,.57h-.24v-9.31l1.79,.75h2.07l.98-1.15,2.16,1.7Zm-5.32,.09v2.65h2.4v-2.65h-2.4Zm2.4,6.05v-2.76h-2.4v2.76h2.4Z"/></svg>