<?xml version="1.0" encoding="UTF-8"?><svg id="a" xmlns="http://www.w3.org/2000/svg" viewBox="0 0 149 136.99"><defs><style>.c{fill:#40281b;}.d{fill:#f4b876;}</style></defs><g id="b"><path class="d" d="M135.88,31.4c-1.63-17.8-11.73-22.71-12.63-23.16-.91-.45-7.57,8.22-10.53,6.32-2.96-1.9-17.76,10.47-18.95,8.42-1.19-2.05-10.26,7.68-14.74,8.42-4.48,.74-17.93,5.95-18.95,6.32-1.02,.37-10.26,7.43-14.74,6.32-4.48-1.11-13.59,5.58-16.85,6.32,0,0-1.8,1.62,.03,2.5,1.83,.87,20.36,1.9,23.22,0,2.85-1.9,38.9,.24,45.21-2.35,6.31-2.59,14.05-3.7,21.79,.37,7.74,4.07,22,.74,24.64,0,.15-.04,.26-.09,.34-.13,.03-.02,.05-.04,.08-.07,.84-.81-6.42-2.94-7.92-19.27Z"/><path class="d" d="M10.92,67c16.55-2.44,37.16,.74,40.73,.2,3.67-.55,30.65-5.49,33.1-3.82,2.44,1.66,32.61,1.72,34.29,1.72s14.1-1.04,16.85,0c1.99,.75,3.76,3.27,6.32,4.21,.08-3.17-.11-5.34,0-6.32,.4-3.51-4.21-4.21-4.21-4.21,0,0-23.4,.85-27.37-2.11-3.97-2.96-24.66,4.92-31.59,2.11-6.93-2.81-16.3,.55-18.95,0-2.65-.55-31.55,.74-33.69,0-2.14-.74-10.61-2.4-12.63-2.11-2.02,.3-4.21,2.11-4.21,2.11,0,.96-.19,.85,0,6.32v2c.46-.04,.92-.07,1.39-.09Z"/><path class="d" d="M133.78,71.41c-1.06-.29-13.19,.11-17.36,.22-.72,.1-1.26,.16-1.48,.16-1.53,0-9.47,.11-20.16-2.44-10.69-2.55-18.64,.33-21.38,0-2.75-.33-14.51,2.72-16.19,2.72s-19.43,3.65-22.76,0c-.42-.46-1.09-.84-1.94-1.17-5.79-1.31-19.15,2.43-20.86,2.62-1.45,.16-1.34-.33-2.11,0,.18,5.48-.03,5.87,0,10.53,6-.6,20.04-2.62,23.16-2.11,3.36,.55,36.09,.83,37.9,0,1.82-.83,13.67-4.64,14.74-2.11,1.07,2.54,11.38,1.83,14.74,2.11,3.36,.28,27.71-.86,30.46,1.36,2.48,2,7.21-.21,9.55,.74-.11-4.17-.08-1.38,0-6.32-3.1-1.62-5.4-6.07-6.32-6.32Z"/><path class="d" d="M142.2,100.89c-.03-3.82-1.91-5.31-2.11-6.32-.03-.16-4.18-1.88-4.21-2.11-3.75-2.24-7.8-3.01-10.53-2.11-2.95,.97-25.29,.11-33.51-1.42-1.25-.12-2.19-.3-2.71-.54-1.75-.82-3.32-.1-4.69,.87-.83,.62-1.58,1.31-2.25,1.79-.83,.63-1.54,.99-2.12,.55-1.83-1.39-14.92-3.37-19.5-3.14-4.27,.21-19.93-2.81-23.78-.57-.19,.13-.36,.27-.47,.44-.16,.25-.4,.46-.66,.66-2.96,2.54-13.03,.82-14.04-.52-.12-.17-.46-.25-.92-.28-2.48,.44-8.21,3.53-11.16,4.28-.02,.89,.05,3.64,0,4.21-.16,2.01,2.21,1.2,2.11,6.32,8.63,.96,34.64,2.8,37.9,2.11,3.46-.74,32.54-3.21,35.8-2.11,3.26,1.11,23.71-.03,27.37,0,3.66,.03,12.57,6.88,16.85,2.11,4.28-4.77,6.15,1.78,10.53-2.11,.19-.17,1.59-2.12,2.11-2.11Z"/><path class="d" d="M45.34,126.16c1.32-.37,22.96,1.68,29.48,0,6.52-1.68,12.7,.81,14.74,2.11,2.04,1.29,11.25-1.98,16.85-2.11,5.6-.13,17.8,1.05,21.06,0,3.26-1.05,10.53,2.11,10.53,2.11,0,0,2.03-4.01,2.11-12.63-1.32-.83-3.32-1.37-4.21-2.11-1.3-1.06-.94-.04-4.45,.15-.42,.1-.84,.16-1.27,.16-4.68,0-5.68,.69-6.9-.79-1.22-1.48-10.41-2.67-12.25-2.42-1.83,.25-20.36,1.23-23.62,0-3.26-1.22-16.7,.49-17.92,0-1.22-.49-19.55,4.32-21.38,4.69-1.83,.37-12.63-2.96-14.87-2.96s-16.29,.74-18.53,1.11c-.1,.02-.24,0-.35,.02-1.5,.53-2.61,1.92-4.8,.04-.15,9.45,2.11,12.63,2.11,12.63,0,0,13.15,2.72,16.27,.61,.2-.17,.35-.35,.42-.55,.09-.24,.26-.41,.48-.56,2.31-2.54,15.26,.85,16.52,.49Z"/><path class="c" d="M148.99,104.37c-.12-1.04-.61-2.86-1.01-4.85,.02-4.62,.03-9.51,0-14.58-.39-1.8-.86-3.59-1.34-4.87-1.34-3.51,0-10.35,1.06-18.4-.07-3.14-.15-6.29-.24-9.41-.15-4.83-.49-9.18-.96-13.1-.59-1.09-1.29-2.67-2.11-4.92-3.38-9.24-2.73-11.83-5.27-20.67-3.82-6.74-7.76-8.88-8.96-9.57-2.44-1.41-3.46-1.55-5.3-3.39-1.83-1.85-5.3,1.11-6.52,1.85-1.22,.74-9.16,3.33-9.98,3.7-.81,.37-16.7,8.5-22.61,8.5s-4.98,4.82-6.82,6.67c-1.83,1.85-9.49,4.05-9.49,4.05,0,0-39.93,17-44.41,18.85-4.48,1.85-14.29,2.96-21.11,8.13l-2.81,2.96v19.81c-.59,5.92-1.61,10.62-.84,14.06,.66,2.96,.25,5.86,.84,7.76v37.66H17.98c8.71-3.53,10.54-5.54,16.34-2.77,1.65,.79,4.31,2.18,7.31,2.77h5.92l.72-.18c3.37,2.29,3.59,1.14,5.02,.96,.69-.09,2.24-.77,4.39-.77h8.64c1.27-.59,2.35-1.38,2.81-1.38,1.37,0,5.65-1.39,6.87-.83,.6,.27,2.47,1.63,4.23,2.22h23.5l.28,.28c5.4,3.33,7.29,2.32,8-.06,.71-2.37,9.06-.22,9.67-.22h24.42c.33-1.77,.83-4.78,1.51-7.03,.08-3.67,.16-8.63,.24-14.48,.62-3.8,1.23-7.81,1.12-8.7ZM45.34,44.04c4.48,1.11,13.72-5.95,14.74-6.32,1.02-.37,14.47-5.58,18.95-6.32,4.48-.74,13.55-10.48,14.74-8.42,1.19,2.05,15.99-10.33,18.95-8.42,2.96,1.9,9.62-6.77,10.53-6.32,.91,.45,11.01,5.36,12.63,23.16,1.63,17.8,10.15,18.73,7.51,19.47-2.65,.74-16.9,4.07-24.64,0-7.74-4.07-15.48-2.96-21.79-.37-6.31,2.59-42.36,.46-45.21,2.35-2.85,1.9-21.38,.87-23.22,0-1.83-.87-.03-2.5-.03-2.5,3.26-.74,12.37-7.43,16.85-6.32Zm-31.59,12.63c2.02-.3,10.5,1.37,12.63,2.11s31.04-.55,33.69,0c2.65,.55,12.03-2.81,18.95,0,6.92,2.81,27.61-5.06,31.59-2.11,3.97,2.96,27.37,2.11,27.37,2.11,0,0,4.62,.7,4.21,4.21-.11,.97,.08,3.15,0,6.32-2.56-.94-4.33-3.46-6.32-4.21-2.75-1.04-15.16,0-16.85,0s-31.84-.05-34.29-1.72c-2.44-1.66-29.43,3.27-33.1,3.82-3.67,.56-25.36-2.84-42.12,0v-2.11c-.19-5.47,0-5.36,0-6.32,0,0,2.19-1.81,4.21-2.11Zm126.35,27.37c-2.34-.95-7.06,1.26-9.55-.74-2.75-2.22-27.1-1.09-30.46-1.36-3.36-.28-13.67,.43-14.74-2.11-1.07-2.54-12.92,1.27-14.74,2.11-1.82,.83-34.54,.55-37.9,0-3.13-.52-17.16,1.51-23.16,2.11-.03-4.66,.18-5.05,0-10.53,.76-.33,.65,.16,2.11,0,1.98-.22,19.66-5.24,22.99-1.58,3.33,3.65,21.08,0,22.76,0s13.44-3.05,16.19-2.72c2.75,.33,10.69-2.55,21.38,0,10.69,2.55,18.64,2.44,20.16,2.44s17.43-.58,18.65-.25c.92,.25,3.22,4.7,6.32,6.32-.08,4.94-.11,2.14,0,6.32Zm-2.11,44.22s-7.27-3.16-10.53-2.11c-3.26,1.05-15.46-.13-21.06,0-5.6,.13-14.81,3.4-16.85,2.11-2.04-1.29-8.22-3.78-14.74-2.11-6.52,1.68-28.16-.37-29.48,0-1.32,.37-15.59-3.4-16.81-.07-1.22,3.33-16.88,.07-16.88,.07,0,0-2.25-3.19-2.11-12.63,2.45,2.09,3.54,.11,5.34-.19,2.24-.37,16.29-1.11,18.53-1.11s13.03,3.33,14.87,2.96c1.83-.37,20.16-5.18,21.38-4.69,1.22,.49,14.66-1.22,17.92,0,3.26,1.22,21.79,.25,23.62,0,1.83-.25,11.03,.94,12.25,2.42,1.22,1.48,2.21,.79,6.9,.79s4.11-1.34,5.53-.18c.9,.73,2.89,1.28,4.21,2.11-.08,8.62-2.11,12.63-2.11,12.63Zm2.11-25.27c-4.38,3.88-6.25-2.66-10.53,2.11-4.28,4.77-13.18-2.07-16.85-2.11-3.67-.03-24.12,1.11-27.37,0-3.26-1.11-32.34,1.37-35.8,2.11-3.26,.7-29.27-1.15-37.9-2.11,.1-5.11-2.27-4.3-2.11-6.32,.05-.57-.02-3.32,0-4.21,3.6-.91,11.37-5.33,12.26-4.13,1.07,1.43,12.37,3.28,14.51,0,2.14-3.28,19.86,.23,24.44,0,4.58-.23,17.67,1.76,19.5,3.14,1.83,1.39,4.93-5.13,9.06-3.21,4.12,1.92,32.68,3.2,36.04,2.09,2.72-.9,6.78-.14,10.53,2.11,.03,.22,4.18,1.95,4.21,2.11,.2,1.01,2.08,2.49,2.11,6.32-.51-.02-1.92,1.94-2.11,2.11Z"/></g></svg>