<?xml version="1.0" encoding="UTF-8"?><svg id="a" xmlns="http://www.w3.org/2000/svg" viewBox="0 0 149 145.65"><defs><style>.c{fill:#40281b;}.d{fill:#f4b876;}</style></defs><g id="b"><path class="d" d="M132.91,100.88c.71-1.74,1.62-3.45,1.25-5.45-.04-.22,.04-.51,.15-.72,.52-1.01,.75-2.1,1.01-3.19,.24-1.03,1.01-1.69,2.08-1.82,2.82-.34,4.68-2.38,4.45-5.01-.33-3.73-.16-7.44,.05-11.17,.26-4.53,.71-9.08-.15-13.57-1.14-5.9-3.21-11.54-5.31-17.14-1.52-4.06-4.16-7.31-7.91-9.58-.24-.15-.53-.51-.79-.14-.73,1.05-1.63,1.99-1.35,3.51,.39,2.17,.95,4.31,1.32,6.48,.06,.34,.26,.71-.03,1.06-.36-.17-.42-.54-.56-.83-1.6-3.18-3.05-6.44-5.3-9.27-1.03-1.3-1.7-2.89-2.68-4.24-1.68-2.31-3.48-4.52-5.21-6.78-.3-.4-.7-.76-.78-1.42,.65,.24,1.13,.58,1.53,.99,2.56,2.56,5.19,5.07,7.38,7.98,.6,.8,1.14,.8,1.85,.11,.61-.59,.69-1.19,.22-1.91-.39-.6-.72-1.23-1.07-1.85-1.65-2.88-3.69-5.45-6.16-7.65-4.2-3.75-9.16-6.09-14.5-7.73-5.5-1.69-11.18-2.62-16.72-4.13-1.53-.41-3.05-.86-4.66-.79-2.54,.12-4.63,1.03-6.02,3.27-.91,1.48-1.87,2.92-3.12,4.16-2.3,2.28-4.91,2.41-7.4,.35-1.79-1.49-3.2-3.27-4.35-5.28-.58-1.01-1.16-1.19-2.15-.64-1.85,1.03-3.79,1.85-5.71,2.73-1.55,.71-3.05,1.53-4.42,2.56-.21,.16-.59,.29-.54,.58,.06,.35,.47,.36,.75,.42,.67,.15,1.34,.27,2.01,.36,1.12,.15,1.98,.7,2.6,1.62,.08,.12,.21,.29,.18,.4-.06,.22-.31,.18-.48,.14-2.55-.55-5.07,.28-7.61,.12-1.31-.08-2.57,.33-3.78,.88-2.13,.98-3.81,2.54-5.46,4.14-4.33,2.21-8.15,5.17-11.43,8.86-3.95,4.44-6.78,9.54-8.87,15.07-.67,1.76-1.54,3.48-1.11,5.48,.05,.22-.03,.51-.13,.72-.49,1.02-.7,2.12-.93,3.21-.21,1.04-.97,1.71-2.03,1.87-2.81,.41-4.62,2.49-4.32,5.12,.42,3.72,.35,7.44,.22,11.16-.15,4.53-.49,9.09,.49,13.56,1.28,5.87,3.5,11.45,5.73,17.01,1.62,4.02,4.34,7.2,8.15,9.38,.24,.14,.54,.5,.79,.12,.71-1.07,1.58-2.03,1.26-3.55-.45-2.16-1.06-4.28-1.48-6.44-.07-.34-.28-.7,0-1.06,.37,.17,.43,.53,.58,.82,1.68,3.14,3.21,6.36,5.52,9.14,1.06,1.28,1.77,2.85,2.79,4.17,1.73,2.26,3.59,4.43,5.38,6.65,.31,.39,.71,.74,.81,1.4-.66-.23-1.14-.55-1.56-.95-2.63-2.5-5.31-4.94-7.57-7.8-.62-.78-1.16-.77-1.85-.07-.59,.61-.66,1.21-.18,1.91,.4,.59,.75,1.21,1.12,1.82,1.72,2.83,3.82,5.35,6.35,7.49,4.29,3.64,9.31,5.87,14.69,7.37,5.54,1.55,11.24,2.35,16.82,3.71,1.54,.38,3.07,.79,4.68,.68,2.53-.18,4.6-1.15,5.93-3.42,.88-1.5,1.8-2.96,3.01-4.23,2.25-2.34,4.85-2.53,7.39-.53,1.83,1.44,3.28,3.19,4.48,5.18,.6,1,1.19,1.16,2.16,.58,1.82-1.08,3.74-1.95,5.64-2.87,1.54-.75,3.01-1.6,4.36-2.66,.21-.16,.58-.3,.52-.6-.07-.34-.48-.34-.76-.4-.67-.13-1.35-.24-2.02-.31-.07,0-.15-.02-.22-.03,.66-.16,1.31-.32,1.97-.48,1.35-.33,2.58-.84,3.7-1.67,.1-.08,.21-.15,.31-.23,1.13-.06,2.21-.46,3.25-.97,1.52-.74,2.79-1.78,3.99-2.92,3.93-2.05,7.44-4.72,10.53-8.02,4.05-4.34,7.01-9.37,9.24-14.85ZM51.69,26.62v.02h-.01v-.02Zm-4.78-5.22c.2,0,.4,0,.6,.02l-.22,.26-.38-.28ZM16.05,93.8s-.01-.07-.02-.11l.06,.06-.04,.05Z"/><g><g><path class="c" d="M48.42,34.07c-1.01,.97-1.83,1.87-2.93,2.42-1.23,.61-2.31,.56-3.25-.42-1.63-1.7-3.18-3.49-4.12-5.69-.79-1.85-.35-3.6,1.13-5,1.34-1.26,2.73-2.44,4.42-3.21,2.57-1.18,5.05-.97,7.48,.43,.75,.43,.85,1.09,.82,1.83-.13,2.72-.99,5.23-2.26,7.61-.41,.76-.91,1.47-1.28,2.04Z"/><path class="c" d="M108.02,77.69c.94-1.17,2.04-2.16,3.4-2.83,1.57-.77,3.74-.5,4.98,.59,.41,.36,.74,.79,.83,1.31,.43,2.38,.82,4.77,0,7.16-1,2.92-4.25,5.06-7.33,4.82-1.32-.1-2.25-.8-2.92-1.89-.64-1.04-1.05-2.18-1.47-3.31-.25-.67-.09-1.35,.14-2,.51-1.46,1.32-2.73,2.37-3.85Z"/><path class="c" d="M98.3,25.57c-.29,.29-.5,.48-.68,.69-1.18,1.39-2.52,2.06-4.28,1.02-.18-.11-.41-.14-.63-.17-2.89-.36-4.34-2.26-5.2-4.82-.28-.84-.1-1.58,.65-2.04,1.58-.98,3.16-1.98,4.89-2.66,1.87-.74,3.48-.12,4.59,1.56,.39,.6,.78,1.2,1.11,1.83,.98,1.82,.82,3.16-.45,4.59Z"/><path class="c" d="M122.2,109.68c-.57,.73-1.22,1.26-1.87,1.79-1.15,.92-2.4,1.31-3.79,.61-1.47-.75-2.17-2.05-2.17-3.64,0-1.87,.37-3.7,1.21-5.4,.62-1.27,1.41-1.67,2.79-1.41,1.88,.35,3.4,1.3,4.61,2.76,1.28,1.55,1.22,2.71-.17,4.58-.2,.27-.44,.52-.61,.71Z"/><path class="c" d="M96.98,118.65c-1.19,1.42-2.45,2.31-3.8,3.09-.29,.17-.57,.29-.53,.75,.03,.3-.21,.57-.48,.75-.98,.65-2.05,1.03-3.23,1.01-.36,0-.81,0-.92-.46-.09-.39,.24-.62,.54-.78,2.37-1.32,3.67-3.67,5.29-5.66,1.42-1.74,1.53-4.02,1.62-6.2,.02-.53,.01-1.06,.05-1.58,.03-.38-.16-.93,.29-1.08,.4-.13,.68,.35,.95,.62,2.8,2.7,2.81,6.56,.22,9.55Z"/><path class="c" d="M123.48,48.33c-1.38-1.3-3.11-1.6-4.58-2.42-3.12-1.74-5.96-3.88-8.46-6.44-.93-.95-1.84-1.93-2.76-2.89-.13-.13-.33-.27-.27-.46,.09-.26,.36-.19,.56-.17,1.75,.16,3.26,.95,4.71,1.85,2.07,1.28,3.64,3.06,4.97,5.07,.18,.27,.28,.62,.74,.58,2.18-.16,3.39,1.24,4.42,2.86,.35,.55,.7,1.14,.66,2.02Z"/><path class="c" d="M131.34,46.44c1.14,1.84,1.94,3.76,1.81,5.95-.06,1.02,.34,1.95,.5,2.92,.29,1.73,.98,3.41,.67,5.22-.04,.21-.04,.43-.07,.65-.04,.25-.11,.52-.41,.53-.27,.02-.34-.24-.41-.44-.08-.2-.16-.41-.2-.62-.77-4.08-1.45-8.18-2.03-12.3-.09-.63-.1-1.28,.15-1.92Z"/><path class="c" d="M23.29,45.08c.39-.33,.62-.96,1.04-.78,.48,.2,.22,.82,.19,1.26-.06,.74-.17,1.51-.53,2.16-.83,1.51-.99,3.18-1.3,4.81-.16,.82-.33,1.64-.64,2.42-.13,.32-.24,.7-.66,.67-.39-.03-.52-.41-.62-.74-.18-.57-.17-1.16-.12-1.75,.08-.83,.19-1.67,.49-2.46,.57-1.5,.69-3.15,1.49-4.57,.21-.38,.47-.73,.66-1.02Z"/></g><g><path class="c" d="M71.69,109.12c-.91,1.2-1.99,2.21-3.33,2.91-1.55,.81-3.73,.59-4.99-.47-.42-.35-.76-.77-.87-1.29-.49-2.37-.93-4.75-.17-7.16,.93-2.94,4.12-5.16,7.21-5,1.32,.07,2.27,.74,2.97,1.82,.66,1.02,1.1,2.15,1.55,3.27,.26,.66,.12,1.35-.09,2.01-.47,1.47-1.25,2.76-2.27,3.91Z"/><path class="c" d="M63.06,43.49c.28-.3,.49-.49,.66-.71,1.15-1.42,2.47-2.12,4.26-1.12,.18,.1,.42,.13,.63,.15,2.9,.29,4.4,2.16,5.32,4.69,.3,.83,.14,1.57-.6,2.06-1.55,1.02-3.11,2.06-4.82,2.78-1.85,.78-3.48,.2-4.62-1.45-.41-.59-.8-1.18-1.16-1.8-1.03-1.8-.9-3.14,.33-4.6Z"/><path class="c" d="M97.66,51.06c2.89,2.43,3.11,4.69,.73,7.57-1.56,1.89-4.7,1.95-6.84,.13-2-1.7-2.32-4.47-.56-6.36,2.18-2.34,4.59-3.32,6.66-1.34Z"/><path class="c" d="M53.58,73.39c.55-.75,1.19-1.29,1.83-1.83,1.13-.94,2.37-1.37,3.78-.7,1.49,.71,2.22,1.99,2.26,3.58,.05,1.87-.28,3.71-1.08,5.43-.59,1.28-1.37,1.7-2.76,1.48-1.88-.3-3.43-1.22-4.67-2.65-1.32-1.52-1.29-2.68,.06-4.59,.2-.28,.43-.53,.59-.72Z"/><path class="c" d="M19.35,81.31c-.18-1.84,.05-3.37,.43-4.88,.08-.33,.19-.61-.17-.9-.23-.19-.27-.55-.2-.87,.22-1.16,.69-2.19,1.53-3.02,.25-.25,.57-.58,.97-.34,.35,.21,.27,.6,.18,.93-.71,2.62,.08,5.19,.37,7.74,.26,2.23,1.81,3.9,3.32,5.49,.36,.38,.75,.74,1.1,1.14,.25,.29,.78,.54,.57,.96-.18,.38-.72,.24-1.11,.25-3.89,.13-6.66-2.56-7-6.5Z"/></g><path class="c" d="M126.45,122.15c2.45-2.88,4.17-6.21,5.56-9.7,2.06-5.18,4.49-10.12,8.48-14.14,0-.16,.09-.25,.23-.29,.55-.85,1.14-1.68,1.65-2.56,2.51-4.36,3.88-9.1,4.74-14.02,.74-4.21,1.07-8.47,1.61-12.71,.33-2.63,.4-5.23,0-7.85-.7-4.53-2.21-8.81-4.1-12.97-1.61-3.53-3.2-7.07-5.2-10.4-2.3-3.84-5.24-7.17-8.29-10.42-3.34-3.57-6.61-7.22-10.21-10.52-5.22-4.78-11.05-8.58-17.79-10.92-3.96-1.38-8.03-2.09-12.2-2.25-5.22-.2-10.38-.72-15.42-2.18-2.55-.74-5.11-1.4-7.81-1.17-3.14,.26-5.97,1.58-8.86,2.65-1.69,.63-3.37,1.3-5.02,2.06-1.89,.86-3.74,1.76-5.42,2.96-2.27,1.61-4.67,2.99-7.24,4.04-1.69,.69-3.31,1.5-4.81,2.48-1.37,.89-2.7,1.86-3.97,2.91-.05,.02-.09,.03-.14,.05-4.39,1.6-8.15,4.12-11.1,7.77-2.38,2.94-4.02,6.31-5.32,9.83-1.94,5.23-4.24,10.23-8.13,14.35,0,.16-.08,.25-.23,.3-.53,.86-1.1,1.71-1.59,2.6-2.4,4.42-3.65,9.2-4.4,14.13-.64,4.23-.87,8.49-1.3,12.74-.27,2.63-.27,5.24,.2,7.84,.81,4.51,2.43,8.75,4.42,12.86,1.69,3.49,3.37,6.99,5.45,10.27,2.4,3.78,5.42,7.03,8.55,10.22,3.43,3.49,6.78,7.05,10.47,10.27,5.33,4.65,11.26,8.3,18.06,10.48,4,1.28,8.08,1.89,12.25,1.94,5.22,.07,10.4,.47,15.47,1.8,2.57,.68,5.14,1.27,7.84,.98,3.14-.34,5.93-1.72,8.79-2.87,1.67-.67,3.33-1.38,4.96-2.18,.71-.35,1.42-.7,2.11-1.07h0c1.12-.6,2.22-1.25,3.24-2.02,.44-.33,.88-.65,1.33-.96l1.71-1.11c1.31-.81,2.67-1.53,4.09-2.15,1.67-.73,3.27-1.58,4.75-2.6,.49-.34,.97-.68,1.45-1.04,4.36-1.49,8.13-3.91,11.13-7.44Zm-36.2,14.16c-1.2-1.99-2.65-3.73-4.48-5.18-2.53-2-5.14-1.81-7.39,.53-1.22,1.27-2.14,2.73-3.01,4.23-1.33,2.27-3.4,3.24-5.93,3.42-1.61,.11-3.14-.3-4.68-.68-5.58-1.37-11.28-2.16-16.82-3.71-5.37-1.51-10.39-3.73-14.69-7.37-2.52-2.14-4.63-4.66-6.35-7.49-.37-.61-.72-1.24-1.12-1.82-.48-.71-.42-1.31,.18-1.91,.69-.71,1.23-.72,1.85,.07,2.26,2.86,4.94,5.3,7.57,7.8,.42,.4,.9,.72,1.56,.95-.1-.66-.5-1.01-.81-1.4-1.79-2.22-3.64-4.39-5.38-6.65-1.01-1.32-1.72-2.89-2.79-4.17-2.31-2.78-3.84-6-5.52-9.14-.15-.28-.22-.65-.58-.82-.28,.36-.07,.72,0,1.06,.42,2.16,1.03,4.28,1.48,6.44,.31,1.51-.55,2.48-1.26,3.55-.25,.38-.55,.02-.79-.12-3.81-2.18-6.53-5.36-8.15-9.38-2.23-5.55-4.45-11.14-5.73-17.01-.98-4.47-.64-9.03-.49-13.56,.12-3.73,.2-7.45-.22-11.16-.3-2.63,1.52-4.71,4.32-5.12,.51-.08,.96-.27,1.3-.57v.02c1.59-1.09,3.57-2.99,4.93-5.65,.11-.36,.22-.71,.34-1.06,.27-.8,.58-1.58,.9-2.37,0-.04,.02-.08,.03-.12,0,0,.1-.22,.38-.82,.06-.13,.12-.27,.18-.4,.69-1.52,1.41-3.04,2.12-4.55h0c1.56-3.31,3.1-6.63,4.29-10.1,.47-1.37,1.26-2.56,2.33-3.54,.37-.33,.74-.71,1.18-.89,2.57-1.07,4.39-3.08,6.32-4.95,.06-.06,.13-.13,.2-.19,.9-.46,1.81-.89,2.75-1.28,1.4-.59,2.44-1.55,3.58-2.44,.71-.56,1.48-.98,2.3-1.31,.2-.01,.4-.01,.61,0,2.55,.16,5.07-.67,7.61-.12,.17,.04,.41,.08,.48-.14,.03-.11-.1-.27-.18-.4-.63-.92-1.48-1.47-2.6-1.62-.68-.09-1.35-.21-2.01-.36-.28-.06-.7-.07-.75-.42-.05-.3,.33-.42,.54-.58,1.37-1.03,2.87-1.84,4.42-2.56,1.92-.88,3.86-1.7,5.71-2.73,.99-.55,1.57-.38,2.15,.64,1.15,2.02,2.56,3.8,4.35,5.28,2.48,2.06,5.09,1.93,7.4-.35,1.25-1.24,2.2-2.68,3.12-4.16,1.39-2.24,3.48-3.15,6.02-3.27,1.61-.07,3.13,.38,4.66,.79,5.54,1.5,11.23,2.44,16.72,4.13,5.34,1.64,10.3,3.99,14.5,7.73,2.47,2.2,4.51,4.77,6.16,7.65,.35,.62,.69,1.25,1.07,1.85,.46,.72,.38,1.32-.22,1.91-.71,.69-1.25,.69-1.85-.11-2.19-2.91-4.81-5.42-7.38-7.98-.41-.41-.88-.74-1.53-.99,.08,.66,.47,1.02,.78,1.42,1.73,2.26,3.53,4.48,5.21,6.78,.98,1.35,1.65,2.94,2.68,4.24,2.24,2.83,3.69,6.09,5.3,9.27,.15,.29,.2,.65,.56,.83,.29-.36,.09-.72,.03-1.06-.37-2.17-.93-4.31-1.32-6.48-.27-1.52,.62-2.46,1.35-3.51,.26-.38,.55-.01,.79,.14,3.75,2.27,6.4,5.52,7.91,9.58,2.1,5.61,4.17,11.25,5.31,17.14,.87,4.49,.42,9.04,.15,13.57-.02,.32-.03,.63-.05,.95,0,.02,0,.04,0,.06-.26,4.59-.86,6.49-1.77,7.24-.91,.75-1.02-.3-2.36-.15-1.35,.15-3.85,2.35-4.75,5.7-.08,.3-.09,.58-.05,.87-.25,3.3-1.24,6.46-2.55,9.56-2.08,4.91-4.44,9.71-6.05,14.81-.44,1.38-1.19,2.59-2.25,3.6-.36,.34-.72,.72-1.16,.92-2.54,1.13-4.32,3.18-6.2,5.11-.51,.52-1.03,1.05-1.56,1.55-1.26,.66-2.56,1.25-3.9,1.77-1.29,.5-2.29,1.32-3.33,2.12-.17,0-.34,.01-.51,0-2.55-.09-5.05,.79-7.61,.31-.17-.03-.41-.07-.47,.15-.03,.11,.11,.27,.19,.39,.65,.91,1.52,1.43,2.64,1.56,.68,.07,1.35,.18,2.02,.31,.28,.06,.7,.06,.76,.4,.06,.29-.32,.43-.52,.6-1.35,1.06-2.82,1.91-4.36,2.66-1.89,.93-3.82,1.79-5.64,2.87-.97,.58-1.56,.42-2.16-.58Z"/></g></g></svg>