<?xml version="1.0" encoding="UTF-8"?><svg id="a" xmlns="http://www.w3.org/2000/svg" viewBox="0 0 149 143.29"><defs><style>.c{fill:#40281b;}.d{fill:#f4b876;}</style></defs><g id="b"><g><path class="d" d="M44.99,77.78l33.12-2.92,8.41,.5s.36-2.82,5.97-3.22c-4.49-2.22-5.77-2.27-5.77-2.27h-15.95l-1.92-1.21-29.64,1.21H3.68v2.92l16.11,.45,25.21,4.53Z"/><path class="d" d="M111.6,6.72h-3.82s-1.22,29.09-1.28,29.01c2.77-1.81,5.1-1.81,5.1-1.81V6.72Z"/><path class="d" d="M80.4,63.76l1.82,1.21h3.07c-.96-15.94,4.98-18.34,9.31-18.44,4.33-.1,7.22,2.21,6.82,1.4-.4-.81-.89-2.93-.73-6.75,.16-3.83,.49-4.84,.49-4.84V6.72h-31.94l-12.41,1.61-8.34-1.61H7.05l-3.37,30.83v27.42H56.79l23.61-1.21Z"/><path class="d" d="M119.31,47.97c5.94-3.83,16.25-5.29,17.77,12.84,.67-.23,2.56-.13,4.39-.01l3.06-52.85h-29.26v29.6s6.44,2.27,4.03,10.42Z"/><path class="d" d="M130.33,73.94c4.35,2.19,5.47,4.52,5.47,4.52h8.29v-8.58h-8.17c-.48,0-3.01,3.29-5.59,4.07Z"/><path class="d" d="M138.69,83.36c-.48,16.56-11.39,14.4-17.32,9.57,.96,3.83-3.37,12.61-3.37,12.61l-.48,33h17.65l11.67-3.01-.45-52.17h-7.7Z"/><path class="d" d="M101.32,94.3c-16.2,8.29-16.52-10.94-16.52-10.94h-11.38l-9.78-1.71-17.36,1.71H6.85l.28,15.71-3.24,41.72,31.57-2.25H103.73l.79-33.72h0c-1.67-1.23-4.3-5.48-3.2-10.52Z"/><path class="d" d="M121.62,86.69c2.3,.92,8.53,1.5,9.62-1.21,1.24-3.08-3.39-9.85-5.61-11.88-2.06-1.88-8.98-1.61-8.98-1.61,0,0,8.16-3.02,10.59-5.24,1.47-1.35,4.72-5.55,4.01-7.65-.96-2.83-7.2-2.59-9.63-2.21-2.58,.4-8.51,6.65-8.51,6.65,0,0,4.27-6.48,4-9.05-.32-3.11-4.42-9.14-6.92-9.04-2.32,.1-5.54,6.05-5.97,8.91-.37,2.42,2.49,9.37,2.49,9.37,0,0-4.67-6.45-6.58-8.06-1.52-1.28-5.86-3.16-7.22-1.61-1.75,2.01-.85,9.75,.8,11.88,1.93,2.49,10.43,4.63,10.43,4.63,0,0-10.91,2.13-13.15,5.44-1.48,2.17-2.73,8.93-1.44,11.28,1.23,2.24,6.38,2.78,8.5,2.21,2.61-.7,8.66-7.86,8.66-7.86,0,0-1.62,9.76-.96,12.89,.61,2.91,3.06,10.02,5.45,9.87,2.71-.16,4.59-8.6,5.29-11.88,.58-2.67,.16-11.08,.16-11.08,0,0,3.1,4.49,4.97,5.24Z"/><polygon class="d" points="107.8 109.73 108.68 135.61 114.97 138.62 113.67 109.73 107.8 109.73"/></g><path class="c" d="M91.63,1.81l-5.77-1.81-6.64,1.81H0V86.32l2.89,28.17-2.89,8.46v20.34l149-1.81V1.81h-57.37Zm23.65,6.13h29.26l-3.04,52.85c.31,.02,.61,.08,.9,.09l-.93,.37,.02-.38c-1.82-.11-3.69-.31-4.36-.08-1.52-18.13-11.89-16.66-17.83-12.84,2.41-8.16-4.03-10.42-4.03-10.42V7.94Zm28.82,61.93v8.58h-8.29s-1.12-2.33-5.47-4.52c2.59-.78,5.11-4.07,5.59-4.07h8.17ZM107.78,6.72h3.82v27.2s-2.33,0-5.1,1.81c.06,.08,1.28-29.01,1.28-29.01ZM3.68,37.55L7.05,6.72H48.48l8.34,1.61,12.41-1.61h31.94v29.62s-.33,1.01-.49,4.84c-.16,3.83,.36,5.94,.76,6.75,.4,.81-2.51-1.5-6.84-1.4-4.33,.1-10.29,2.5-9.32,18.44h-3.07l-1.82-1.21-23.61,1.21H3.68v-27.42Zm0,32.33H39.21l29.64-1.21,1.92,1.21h15.95s1.28,.05,5.77,2.27c-5.61,.4-5.97,3.25-5.97,3.25l-8.41-.52-33.12,2.91-25.21-4.53-16.11-.46v-2.92Zm100.84,34.95l-.79,33.72H35.46l-31.57,2.17,3.24-41.67-.28-15.68H46.28l17.36-1.71,9.78,1.71h11.38s.32,19.23,16.52,10.94c-1.1,5.05,1.53,9.3,3.2,10.52h0Zm4.16,30.78l-.88-25.88h5.88l1.29,28.89-6.29-3.01Zm7.81-43.07c-.71,3.29-2.59,11.72-5.29,11.88-2.39,.15-4.85-6.96-5.45-9.87-.65-3.13,.96-12.89,.96-12.89,0,0-6.05,7.15-8.66,7.86-2.12,.57-7.27,.03-8.5-2.21-1.29-2.35-.03-9.11,1.44-11.28,2.25-3.31,13.15-5.44,13.15-5.44,0,0-8.5-2.15-10.43-4.63-1.66-2.14-2.56-9.87-.8-11.88,1.35-1.55,5.69,.33,7.22,1.61,1.91,1.6,6.58,8.06,6.58,8.06,0,0-2.86-6.94-2.49-9.37,.44-2.86,3.66-8.82,5.97-8.91,2.49-.1,6.59,5.93,6.92,9.04,.27,2.57-4,9.05-4,9.05,0,0,5.92-6.25,8.51-6.65,2.43-.38,8.67-.61,9.63,2.21,.72,2.11-2.53,6.3-4.01,7.65-2.42,2.22-10.59,5.24-10.59,5.24,0,0,6.92-.27,8.98,1.61,2.22,2.03,6.85,8.8,5.61,11.88-1.09,2.71-7.32,2.12-9.62,1.21-1.87-.74-4.97-5.24-4.97-5.24,0,0,.41,8.4-.16,11.08Zm18.69,46.01h-17.65l.48-33.08s4.33-8.74,3.37-12.57c5.93,4.83,16.84,7.01,17.32-9.54h7.7l.45,52.17-11.67,3.01Z"/></g></svg>