<?xml version="1.0" encoding="UTF-8"?><svg id="a" xmlns="http://www.w3.org/2000/svg" viewBox="0 0 197.93 202.18"><defs><style>.b{fill:#40281b;}</style></defs><path class="b" d="M2.78,189.92c.63,2.24,1.77,4.04,3.4,5.42,1.64,1.38,3.71,2.22,6.22,2.52,1.18,.14,2.01,.13,2.49-.04,.49-.17,.76-.25,.83-.24-.21,1.72-.72,2.95-1.54,3.71s-2.05,1.03-3.7,.83c-2.03-.25-3.91-1.32-5.63-3.22-1.72-1.9-3.02-4.23-3.89-6.98-.88-2.75-1.15-5.43-.84-8.03,.05-.45,.16-1.08,.33-1.89l13.83,4.77,.85-7-13.83-4.77,.83-6.86,34.72,11.91-.83,6.86-17.45-5.99-.85,7,17.45,5.99-.83,6.86-31.56-10.85Z"/><path class="b" d="M38.16,168.34c-1.62,.87-3.66,.85-6.12-.06-2.04-.75-4.15-2.01-6.33-3.77-2.18-1.76-3.84-3.91-4.96-6.44-1.13-2.53-1.17-5.21-.13-8.03,1.42-3.84,4.53-4.88,9.33-3.1l.04,.02c.06-.08,.14-.24,.23-.48,.37-.99,.52-2.23,.48-3.71-.05-1.48-.25-2.89-.62-4.22l1.37,.04c.61,1.21,.98,2.64,1.11,4.27,.13,1.63,.02,3.33-.31,5.08,2.64,1.25,4.8,2.75,6.48,4.49,1.68,1.74,2.78,3.6,3.31,5.57,.53,1.97,.46,3.87-.21,5.7-.82,2.22-2.04,3.77-3.66,4.64Zm-.17-10.55c-.56-1.03-1.45-2.07-2.68-3.14-1.23-1.07-2.67-2.04-4.32-2.92-.48,.74-1.26,.92-2.34,.52-1.23-.45-1.87-1.22-1.92-2.29-1.01-.31-1.75-.41-2.21-.31-.46,.1-.81,.45-1.03,1.05-.37,.99,0,2.22,1.1,3.68,1.1,1.46,2.55,2.85,4.35,4.16,1.8,1.31,3.47,2.25,5,2.82,1.44,.53,2.47,.72,3.09,.58,.62-.15,1.09-.66,1.41-1.53,.27-.72,.12-1.59-.44-2.62Z"/><path class="b" d="M47.51,145.03c-1.31,.3-2.79-.06-4.42-1.07-.68-.42-1.5-1.08-2.45-1.97l-11.39-10.87,3.63-5.88,12.07,11.52c.28,.28,.59,.54,.95,.75,1.2,.74,2.05,.7,2.55-.12,.47-.76,.55-1.61,.25-2.55-.3-.94-.91-1.92-1.83-2.93l-11.39-10.87,3.63-5.88,12.07,11.52c.6,.56,1.04,.93,1.34,1.11,.9,.55,1.63,.37,2.21-.56,.77-1.25,.7-2.9-.21-4.96-.91-2.05-2.26-4.08-4.03-6.07-1.77-2-3.45-3.48-5.03-4.46,.1,.14,.1,.38-.02,.72-.12,.34-.24,.62-.38,.84-.29,.46-.73,.69-1.32,.68-.6,0-1.15-.17-1.67-.49-.65-.4-1.05-.94-1.2-1.62-.15-.67,.04-1.43,.56-2.28,.55-.9,1.29-1.35,2.21-1.34,.92,0,1.9,.32,2.93,.96,2.45,1.51,4.81,3.55,7.08,6.12,2.27,2.57,3.85,5.33,4.73,8.28s.53,5.72-1.07,8.31c-.82,1.33-1.78,2.25-2.88,2.74-1.09,.49-2.29,.51-3.58,.04,1.35,2.94,1.3,5.58-.15,7.92-.81,1.31-1.87,2.11-3.18,2.41Z"/><path class="b" d="M77.87,102.78c-1.35,.01-2.71-.64-4.09-1.98-.58-.55-1.24-1.37-1.98-2.44l-7.72-11.43-1.1,1.14-1.12-1.61,1.1-1.14-3.77-5.63,4.23-5.78,4.33,6.43,2-2.08,1.12,1.61-2,2.08,8.25,12.2c.26,.42,.58,.83,.97,1.2,.46,.44,.9,.65,1.3,.62,.41-.03,.85-.3,1.34-.81,.64-.67,.96-1.56,.95-2.68-.01-1.12-.34-2.24-1-3.36l1.4-1.45c1.67,3.25,2.3,5.97,1.91,8.16-.4,2.19-1.23,3.94-2.5,5.26-1.06,1.11-2.27,1.67-3.62,1.68Z"/><path class="b" d="M90.35,89.34c-1.84-.02-3.61-1.02-5.33-3-1.45-1.67-2.71-3.78-3.79-6.34-1.08-2.56-1.51-5.21-1.31-7.95,.21-2.74,1.46-5.11,3.75-7.1,2.85-2.47,5.8-2.17,8.85,.9,.43-.58,.64-1.29,.64-2.12,0-.83-.08-1.7-.24-2.62l1.16-1.01c.48,1.87,.79,3.4,.92,4.57,.13,1.18-.01,2.35-.44,3.52,1.83,2.4,3.09,4.8,3.79,7.19,.7,2.4,.83,4.61,.38,6.63-.45,2.02-1.44,3.69-2.96,5.01-1.79,1.55-3.6,2.32-5.44,2.3Zm4.67-11.17c-.48-2.12-1.5-4.37-3.06-6.75-.77,.29-1.53,0-2.29-.88-.82-.94-1.02-1.86-.62-2.77-.72-.73-1.31-1.16-1.78-1.28-.47-.12-.93,.01-1.39,.41-.8,.69-1.06,1.93-.79,3.7,.27,1.78,.89,3.68,1.86,5.7,.97,2.02,1.99,3.65,3.06,4.88,1.01,1.16,1.82,1.83,2.43,1.99,.61,.17,1.27-.05,1.97-.66,.89-.78,1.1-2.22,.61-4.35Z"/><path class="b" d="M137.43,55.52c-1.08,.06-1.97-.46-2.68-1.56-.45-.7-.77-1.6-.97-2.68,.83,.23,1.52,.32,2.08,.27,.56-.05,1.08-.23,1.56-.54,1.35-.86,1.87-2.26,1.57-4.19-.3-1.93-1.04-3.82-2.21-5.65-2.19-3.43-4.56-4.32-7.12-2.69-.73,.46-1.32,.9-1.78,1.31l6.57,17.62-5.83,3.72-10.92-29.25,5.47-4.63,3.83,10.2,.24-.16c1.02-.65,1.77-1.59,2.24-2.82,.47-1.23,.65-2.52,.54-3.88-.11-1.36-.49-2.55-1.14-3.57-.79-1.24-1.89-2-3.3-2.28-1.41-.28-3.02,.16-4.83,1.32-1.65,1.05-3.01,2.45-4.1,4.18-1.09,1.74-1.66,3.67-1.69,5.78-.04,2.11,.61,4.22,1.96,6.32,.64,1,1.17,1.63,1.61,1.9,.44,.27,.67,.43,.71,.49-1.43,.91-2.69,1.31-3.79,1.2-1.1-.12-2.07-.83-2.91-2.16-1.17-1.83-1.59-4.01-1.27-6.54,.33-2.52,1.3-5.01,2.92-7.47,1.62-2.46,3.69-4.49,6.19-6.09,1.89-1.21,3.67-1.92,5.34-2.16,1.67-.23,3.14-.07,4.39,.5,1.25,.57,2.25,1.43,2.99,2.59,.79,1.24,1.21,2.67,1.25,4.27,.04,1.61-.36,3.19-1.19,4.74,1.81-.74,3.49-.75,5.03-.05,1.55,.7,2.85,1.88,3.9,3.52,.98,1.54,1.76,3.4,2.33,5.57,.57,2.18,.61,4.35,.11,6.51s-1.79,3.9-3.87,5.23c-1.08,.69-2.16,1.06-3.24,1.13Z"/><path class="b" d="M155.38,43.21c-1.28-.4-2.38-1.45-3.28-3.15-.38-.71-.75-1.68-1.13-2.93l-4.36-15.13,6.1-3.25,4.62,16.03c.14,.47,.31,.89,.5,1.25,.62,1.16,1.35,1.51,2.2,1.06,.79-.42,1.29-1.11,1.5-2.08,.21-.96,.18-2.12-.1-3.45l-4.36-15.13,6.1-3.25,4.62,16.03c.11,.48,.3,.97,.55,1.45,.3,.57,.65,.9,1.05,.99,.4,.1,.9-.02,1.53-.35,.79-.42,1.29-1.12,1.51-2.11,.22-.99,.2-2.13-.07-3.45l1.78-.95c.58,3.61,.39,6.36-.57,8.27s-2.22,3.27-3.77,4.1c-1.21,.65-2.36,.82-3.44,.53-1.08-.29-2.05-1.07-2.89-2.32-.13,2.07-.58,3.66-1.34,4.79-.76,1.13-1.69,1.99-2.79,2.57-1.36,.72-2.68,.88-3.96,.48Z"/><path class="b" d="M188.75,39.13c-1.44-.41-2.47-1.3-3.1-2.67-.59-1.28-.75-2.47-.48-3.58,.27-1.11,.8-2.13,1.61-3.06,.8-.93,1.94-2.05,3.42-3.37l-.44-2.12c-.71,2.37-2.1,4.03-4.16,4.97-1.4,.64-2.72,.72-3.98,.24-1.26-.48-2.29-1.59-3.09-3.33-.33-.73-.65-1.73-.95-3l-3.46-15.36,6.28-2.88,3.67,16.27c.07,.39,.2,.77,.37,1.15,.59,1.28,1.32,1.72,2.19,1.32,.81-.37,1.35-1.04,1.62-1.99,.27-.95,.3-2.1,.1-3.45l-3.46-15.36,6.33-2.9,6.3,27.74c.7,3.06,.56,5.46-.41,7.21-.97,1.75-2.35,3.03-4.12,3.85-1.37,.63-2.77,.74-4.21,.32Zm2.54-5.23c.22-.75,.18-1.78-.1-3.1l-.66-2.81c-1.3,1.23-2.21,2.39-2.74,3.47-.52,1.08-.53,2.18-.02,3.29,.16,.35,.48,.6,.97,.74,.49,.14,.97,.11,1.43-.1,.52-.24,.89-.74,1.11-1.49Z"/></svg>