<?xml version="1.0" encoding="UTF-8"?><svg id="a" xmlns="http://www.w3.org/2000/svg" viewBox="0 0 1260 830"><defs><style>.b{fill:#fff;}.c{fill:#d8d8d8;}.d{opacity:.36;}</style></defs><g class="d"><g><rect class="c" x=".5" y=".5" width="1259" height="829"/><path class="b" d="M1259,1V829H1V1H1259m1-1H0V830H1260V0h0Z"/></g><g><path class="c" d="M21.5,800.45V83.49c0-31.27,25.44-56.71,56.71-56.71H1181.79c31.27,0,56.71,25.44,56.71,56.71V800.45H21.5Z"/><path class="b" d="M1181.79,27.28c30.99,0,56.21,25.21,56.21,56.21V799.95H22V83.49c0-30.99,25.21-56.21,56.21-56.21H1181.79m0-1H78.21c-31.6,0-57.21,25.61-57.21,57.21V800.95H1239V83.49c0-31.6-25.61-57.21-57.21-57.21h0Z"/></g></g></svg>