<?xml version="1.0" encoding="UTF-8"?><svg id="a" xmlns="http://www.w3.org/2000/svg" viewBox="0 0 65 65"><defs><style>.b{fill:#daae89;}.c{fill:none;stroke:#daae89;stroke-miterlimit:10;}.d{fill:#5f3217;}</style></defs><circle class="d" cx="32.5" cy="32.5" r="32.5"/><g><path class="b" d="M32.63,25.48c-3.96,0-7.18,3.21-7.18,7.18s3.21,7.18,7.18,7.18,7.18-3.21,7.18-7.18-3.21-7.18-7.18-7.18Zm0,11.51c-2.39,0-4.34-1.94-4.34-4.34s1.94-4.34,4.34-4.34,4.34,1.94,4.34,4.34-1.94,4.34-4.34,4.34Z"/><path class="b" d="M41.55,18.51H23.7c-2.88,0-5.22,2.34-5.22,5.22v17.85c0,2.88,2.34,5.22,5.22,5.22h17.85c2.88,0,5.22-2.34,5.22-5.22V23.73c0-2.88-2.34-5.22-5.22-5.22Zm2.37,22.9c0,1.4-1.14,2.54-2.54,2.54H23.87c-1.4,0-2.54-1.14-2.54-2.54V23.9c0-1.4,1.14-2.54,2.54-2.54h17.51c1.4,0,2.54,1.14,2.54,2.54v17.51Z"/><path class="b" d="M41.67,24.91c0,.59-.48,1.07-1.07,1.07s-1.07-.48-1.07-1.07,.48-1.07,1.07-1.07,1.07,.48,1.07,1.07Z"/></g><circle class="c" cx="32.35" cy="32.03" r="27.57"/></svg>