<?xml version="1.0" encoding="UTF-8"?><svg xmlns="http://www.w3.org/2000/svg" viewBox="0 0 446.3 450"><defs><style>.cls-1{fill:#4c3b23;}.cls-2{fill:#c2986b;}.cls-3{fill:#040404;}.cls-4{fill:#ed3e36;}.cls-5{fill:#bf976b;}.cls-6{fill:#030303;}.cls-7{fill:#efefef;}.cls-8{fill:#020101;}.cls-9{fill:#070707;}.cls-10{fill:#fcfcfc;}</style></defs><g id="COOKIE"><g><path class="cls-4" d="M328.77,197.26c-1.05-3.1-1.79-6.4-4.57-8.61-.31-.25-.53-.71-.63-1.12-.47-1.92-1.4-3.63-2.31-5.35-.86-1.64-.59-3.38,.67-4.77,3.33-3.67,3.47-8.48,.15-11.69-4.69-4.54-8.71-9.64-12.68-14.79-4.82-6.27-9.42-12.79-15.69-17.73-8.23-6.48-17.4-11.56-26.57-16.56-6.63-3.62-13.83-4.89-21.37-3.6-.48,.08-1.28-.08-1.2,.72,.23,2.22,.13,4.48,2.23,6.18,3,2.42,6.17,4.59,9.14,7.04,.46,.38,1.15,.64,1.17,1.44-.68,.18-1.17-.24-1.69-.45-5.75-2.37-11.38-5.01-17.57-6.19-2.85-.54-5.54-1.87-8.38-2.53-4.84-1.13-9.75-2-14.62-3-.85-.18-1.78-.21-2.64-.99,1.14-.43,2.14-.52,3.15-.45,6.31,.46,12.63,.76,18.84,2.11,1.7,.37,2.42-.24,2.57-1.96,.12-1.48-.45-2.36-1.89-2.78-1.19-.35-2.35-.81-3.53-1.22-5.46-1.91-11.09-2.97-16.86-3.06-9.82-.15-19.05,2.42-27.96,6.35-9.18,4.05-17.75,9.3-26.78,13.64-2.49,1.2-5.01,2.34-7.05,4.28-3.22,3.05-4.93,6.65-4.21,11.18,.48,2.99,.86,5.99,.63,9.04-.43,5.64-3.73,8.78-9.36,8.9-4.06,.08-7.96-.66-11.77-2.01-1.92-.68-2.89-.25-3.56,1.61-1.25,3.47-2.89,6.77-4.41,10.12-1.24,2.72-2.28,5.5-2.92,8.42-.1,.45-.45,1.05-.05,1.38,.47,.39,1.03-.07,1.47-.31,1.05-.56,2.08-1.17,3.07-1.82,1.65-1.08,3.4-1.34,5.28-.83,.25,.07,.61,.14,.7,.32,.17,.37-.2,.58-.47,.73-3.99,2.18-6.37,6.15-9.91,8.85-1.82,1.39-3.02,3.38-3.98,5.48-1.7,3.72-2.13,7.7-2.48,11.7-3.19,7.87-4.85,16.13-4.97,24.74-.14,10.36,1.95,20.33,5.49,30.01,1.13,3.08,1.95,6.35,4.78,8.5,.32,.24,.55,.7,.65,1.1,.51,1.91,1.49,3.59,2.44,5.29,.9,1.62,.67,3.37-.55,4.78-3.24,3.75-3.26,8.56,.14,11.69,4.8,4.43,8.95,9.42,13.04,14.48,4.97,6.15,9.74,12.56,16.12,17.33,8.39,6.28,17.68,11.12,26.97,15.9,6.72,3.46,13.95,4.55,21.46,3.08,.48-.09,1.28,.05,1.18-.75-.28-2.22-.24-4.48-2.38-6.12-3.05-2.34-6.28-4.44-9.31-6.81-.47-.37-1.16-.61-1.21-1.41,.67-.2,1.17,.21,1.7,.41,5.8,2.23,11.5,4.73,17.72,5.75,2.86,.47,5.59,1.74,8.44,2.33,4.87,1.01,9.79,1.76,14.69,2.64,.86,.15,1.79,.16,2.67,.92-1.13,.45-2.13,.58-3.14,.53-6.32-.3-12.65-.45-18.88-1.65-1.71-.33-2.42,.3-2.52,2.02-.09,1.48,.51,2.35,1.95,2.73,1.2,.32,2.37,.75,3.56,1.13,5.5,1.78,11.16,2.7,16.93,2.64,9.82-.1,18.98-2.89,27.79-7.03,9.08-4.27,17.51-9.73,26.43-14.3,2.46-1.26,4.95-2.46,6.95-4.45,3.14-3.12,4.77-6.77,3.93-11.28-.55-2.98-1.01-5.96-.85-9.02,.29-5.65,3.52-8.87,9.14-9.13,4.06-.18,7.97,.46,11.82,1.72,1.94,.63,2.9,.18,3.52-1.7,1.17-3.5,2.72-6.84,4.16-10.23,1.17-2.75,2.15-5.56,2.71-8.49,.09-.45,.42-1.06,.01-1.38-.48-.38-1.03,.09-1.46,.34-1.03,.59-2.05,1.22-3.03,1.9-.11,.07-.21,.14-.32,.21,.68-.96,1.37-1.92,2.05-2.88,1.41-1.99,2.44-4.06,2.97-6.42,.05-.22,.1-.44,.14-.66,1.41-1.37,2.39-3.14,3.18-4.98,1.16-2.71,1.65-5.54,1.93-8.4,2.85-7.18,4.44-14.73,4.74-22.6,.4-10.35-1.45-20.37-4.75-30.14Zm-191.93-5.3l.02,.03h-.02v-.03Zm-12.27-1.43c.26-.23,.53-.45,.81-.66v.6l-.81,.07Zm41.92,130.75c-.05-.04-.1-.08-.15-.11h.15v.11Z"/><g><path class="cls-8" d="M141.04,205.51c-.23,2.44-.28,4.55-1.12,6.54-.93,2.21-2.41,3.38-4.77,3.16-4.09-.39-8.18-.98-11.93-2.81-3.16-1.54-4.57-4.35-4.22-7.88,.32-3.19,.82-6.33,2.16-9.28,2.04-4.49,5.56-7.04,10.36-7.97,1.48-.29,2.37,.46,3.17,1.48,2.93,3.74,4.66,8.03,5.7,12.61,.33,1.47,.47,2.98,.65,4.15Z"/><path class="cls-8" d="M145.92,254c-.1-2.62,.23-5.18,1.26-7.61,1.19-2.81,4.37-4.93,7.24-4.91,.96,0,1.88,.2,2.6,.77,3.29,2.65,6.52,5.36,8.17,9.45,2.01,4.99,.17,11.53-4.18,14.73-1.86,1.37-3.88,1.52-6.01,.84-2.02-.64-3.87-1.67-5.71-2.69-1.09-.6-1.65-1.68-2.1-2.81-.99-2.5-1.38-5.1-1.27-7.78Z"/><path class="cls-8" d="M197.16,137.37c-.05,.72-.11,1.21-.11,1.69,.03,3.18-.98,5.6-4.49,6.23-.36,.06-.71,.28-1.02,.49-4.22,2.83-8.32,1.97-12.36-.42-1.33-.79-1.93-1.97-1.47-3.44,.97-3.09,1.91-6.22,3.41-9.08,1.63-3.1,4.46-4.13,7.83-3.18,1.2,.34,2.39,.7,3.56,1.14,3.38,1.28,4.69,3.23,4.65,6.57Z"/><path class="cls-8" d="M275.98,205.68c-6.59-.07-9.39-2.87-9.38-9.39,0-4.29,4.17-7.84,9.08-7.75,4.58,.08,8.07,3.45,7.8,7.95-.35,5.58-2.51,9.56-7.49,9.19Z"/><path class="cls-8" d="M324.69,221.1c.08,1.62-.16,3.06-.43,4.49-.48,2.52-1.67,4.47-4.31,5.13-2.8,.7-5.19-.22-7.01-2.32-2.14-2.47-3.73-5.3-4.56-8.5-.62-2.38-.04-3.82,2.08-5.05,2.87-1.68,5.98-2.17,9.23-1.61,3.46,.59,4.71,2.18,5.01,6.24,.04,.59,0,1.19,0,1.63Z"/><path class="cls-6" d="M301.65,261.7c.04,3.23-.59,5.85-1.49,8.41-.2,.56-.42,1.04,.15,1.59,.38,.36,.38,.99,.22,1.55-.55,1.98-1.54,3.7-3.12,5.02-.48,.4-1.08,.92-1.74,.44-.57-.41-.38-1.09-.18-1.65,1.62-4.44,.65-9.02,.52-13.51-.11-3.91-2.56-7.05-4.94-10.04-.57-.72-1.19-1.41-1.74-2.15-.4-.54-1.27-1.05-.85-1.75,.37-.63,1.3-.31,1.97-.27,6.78,.37,11.2,5.46,11.19,12.35Z"/><path class="cls-3" d="M256.37,138.67c-3.31-.14-5.94,1.44-8.81,2.03-6.1,1.26-12.29,1.68-18.51,1.16-2.32-.2-4.63-.45-6.94-.67-.32-.03-.74,.02-.87-.3-.18-.44,.25-.66,.55-.87,2.49-1.78,5.38-2.47,8.33-2.94,4.19-.67,8.29-.12,12.34,1.03,.55,.16,1.07,.49,1.64-.07,2.7-2.7,5.89-2.23,9.1-1.28,1.09,.32,2.21,.7,3.18,1.92Z"/><path class="cls-3" d="M279.17,161.53c-2.6-.47-5.27-.92-7.91-1.46-1.09-.23-1.85-1.1-2.65-1.81-2.84-2.53-5.43-5.23-7.29-8.63-.87-1.59-2.26-2.89-3.37-4.35-.44-.58-1.39-1.31-.91-1.89,.58-.7,1.5,.09,2.18,.45,2.8,1.43,5.15,3.38,6.68,6.19,.27,.5,.62,.86,1.11,1.13,4.5,2.57,8.61,5.83,13.58,7.57,.69,.24,1.63,.66,1.36,1.56-.38,1.27-1.63,1.2-2.78,1.25Z"/><path class="cls-9" d="M264.57,127.21c3.6,1.14,6.85,2.75,9.19,5.79,1.08,1.41,2.67,2.18,3.99,3.28,2.36,1.96,5.19,3.39,6.85,6.12,.2,.32,.43,.62,.64,.94,.24,.38,.44,.81,.06,1.18-.33,.32-.72,.07-1.05-.11-.33-.18-.67-.36-.97-.59-5.67-4.52-11.26-9.14-16.72-13.91-.84-.73-1.59-1.58-2-2.7Z"/><path class="cls-9" d="M120.45,248.72c.14-.87-.27-1.97,.49-2.22,.87-.28,1.23,.83,1.68,1.45,.77,1.05,1.5,2.19,1.76,3.45,.62,2.94,2.32,5.32,3.77,7.84,.73,1.27,1.44,2.54,1.92,3.92,.2,.56,.48,1.21-.1,1.64-.55,.4-1.16,.05-1.66-.26-.89-.55-1.55-1.34-2.15-2.18-.85-1.19-1.66-2.43-2.16-3.8-.96-2.63-2.69-4.94-3.25-7.73-.15-.74-.22-1.49-.3-2.1Z"/></g><g><path class="cls-8" d="M250.8,245.59c.16,2.62-.1,5.18-1.07,7.64-1.12,2.84-4.25,5.03-7.12,5.08-.96,.02-1.88-.15-2.61-.71-3.35-2.57-6.65-5.2-8.4-9.25-2.13-4.94-.45-11.52,3.81-14.82,1.83-1.42,3.84-1.61,5.98-.99,2.04,.59,3.91,1.58,5.78,2.55,1.1,.57,1.69,1.64,2.17,2.75,1.05,2.47,1.5,5.07,1.46,7.75Z"/><path class="cls-8" d="M184.9,217.19c.03-.72,.08-1.21,.06-1.69-.11-3.18,.84-5.62,4.34-6.34,.36-.07,.7-.3,1.01-.52,4.15-2.93,8.27-2.18,12.37,.12,1.35,.75,1.98,1.92,1.55,3.4-.89,3.11-1.76,6.26-3.19,9.17-1.55,3.14-4.35,4.24-7.75,3.37-1.21-.31-2.41-.64-3.58-1.05-3.41-1.2-4.77-3.12-4.81-6.45Z"/><path class="cls-8" d="M225.41,171.74c6.59-.09,9.46,2.64,9.61,9.16,.1,4.28-3.97,7.94-8.88,7.98-4.58,.03-8.16-3.25-7.99-7.76,.21-5.59,2.28-9.62,7.26-9.38Z"/><path class="cls-8" d="M226.62,300.07c-.12-1.62,.09-3.06,.32-4.5,.41-2.53,1.56-4.51,4.18-5.23,2.78-.77,5.2,.1,7.07,2.15,2.2,2.42,3.86,5.21,4.77,8.39,.68,2.37,.13,3.81-1.95,5.1-2.83,1.75-5.92,2.31-9.19,1.84-3.47-.5-4.76-2.07-5.16-6.12-.06-.59-.04-1.19-.05-1.63Z"/><path class="cls-6" d="M156.59,301.04c-2.34-2.22-3.78-4.5-5-6.93-.26-.53-.45-1.03-1.25-1-.52,.02-.97-.42-1.26-.92-1.03-1.77-1.58-3.68-1.43-5.74,.05-.62,.09-1.42,.9-1.56,.7-.12,1.05,.49,1.31,1.02,2.06,4.26,6.02,6.76,9.33,9.79,2.88,2.64,6.84,3.07,10.64,3.45,.92,.09,1.84,.13,2.75,.25,.66,.09,1.64-.18,1.85,.61,.19,.71-.68,1.14-1.18,1.6-4.99,4.6-11.71,4.23-16.66-.58Z"/></g><path class="cls-8" d="M344.53,232.7c-.05-6.6-1.58-12.95-3.73-19.14-3.18-9.19-5.62-18.49-4.95-28.34-.18-.21-.16-.43-.03-.65-.24-1.75-.41-3.52-.74-5.26-1.66-8.61-5.27-16.44-9.74-23.91-3.83-6.4-8.25-12.4-12.37-18.61-2.56-3.84-5.45-7.36-8.96-10.35-6.09-5.19-12.97-9.11-20.21-12.44-6.15-2.83-12.3-5.68-18.74-7.79-7.42-2.43-15.1-3.47-22.84-4.29-8.48-.9-16.95-1.98-25.48-2.23-12.34-.36-24.37,1.3-35.94,5.89-6.81,2.7-12.98,6.41-18.66,10.96-7.11,5.69-14.52,10.9-22.84,14.71-4.22,1.94-8.34,3.99-11.65,7.37-3.85,3.93-6.07,8.89-8.66,13.61-1.51,2.76-2.96,5.56-4.27,8.44-1.5,3.29-2.93,6.59-3.78,10.09-1.15,4.72-2.75,9.28-4.94,13.59-1.44,2.83-2.65,5.76-3.52,8.76-.79,2.75-1.44,5.54-1.93,8.37-.04,.07-.08,.15-.12,.22-3.97,7.12-6.05,14.75-5.79,22.92,.21,6.59,1.9,12.91,4.2,19.04,3.41,9.11,6.07,18.34,5.64,28.21,.19,.21,.17,.42,.05,.65,.29,1.75,.5,3.51,.87,5.24,1.87,8.57,5.67,16.31,10.33,23.67,3.98,6.3,8.55,12.2,12.83,18.3,2.65,3.78,5.63,7.22,9.22,10.12,6.22,5.03,13.19,8.78,20.51,11.93,6.22,2.68,12.43,5.38,18.92,7.33,7.47,2.25,15.18,3.1,22.94,3.73,8.5,.69,17,1.56,25.53,1.6,12.35,.05,24.33-1.9,35.79-6.77,6.74-2.87,12.82-6.73,18.39-11.42,6.97-5.86,14.25-11.25,22.47-15.27,4.17-2.04,8.24-4.19,11.46-7.65,3.75-4.02,5.85-9.04,8.32-13.82,1.44-2.79,2.82-5.63,4.06-8.54,.54-1.27,1.07-2.54,1.56-3.82h0c.8-2.08,1.49-4.19,1.97-6.37,.2-.93,.43-1.86,.67-2.78l.99-3.42c.82-2.56,1.78-5.07,2.95-7.5,1.37-2.86,2.51-5.82,3.3-8.85,.26-1,.51-2.01,.73-3.02,4.05-6.94,6.27-14.44,6.2-22.52Zm-31.61,60c-3.85-1.25-7.76-1.9-11.82-1.72-5.62,.26-8.85,3.48-9.14,9.13-.16,3.06,.3,6.04,.85,9.02,.84,4.51-.79,8.16-3.93,11.28-2,1.99-4.48,3.19-6.95,4.45-8.92,4.56-17.35,10.03-26.43,14.3-8.81,4.15-17.97,6.94-27.79,7.03-5.77,.06-11.43-.86-16.93-2.64-1.18-.38-2.36-.81-3.56-1.13-1.44-.38-2.04-1.25-1.95-2.73,.1-1.72,.81-2.35,2.52-2.02,6.24,1.2,12.57,1.35,18.88,1.65,1.01,.05,2.01-.07,3.14-.53-.88-.76-1.81-.77-2.67-.92-4.9-.88-9.82-1.63-14.69-2.64-2.85-.59-5.58-1.85-8.44-2.33-6.22-1.02-11.91-3.53-17.72-5.75-.53-.2-1.03-.61-1.7-.41,.05,.8,.73,1.04,1.21,1.41,3.03,2.37,6.25,4.47,9.31,6.81,2.14,1.64,2.09,3.9,2.38,6.12,.1,.8-.7,.66-1.18,.75-7.51,1.47-14.74,.38-21.46-3.08-9.29-4.78-18.58-9.63-26.97-15.9-6.38-4.78-11.15-11.18-16.12-17.33-4.09-5.06-8.24-10.05-13.04-14.48-3.4-3.13-3.37-7.95-.14-11.69,.59-.69,.95-1.45,1.06-2.24l.03,.02c.84-3.24,1.29-8.01,.04-13.08-.26-.59-.52-1.19-.76-1.79-.55-1.36-1.05-2.75-1.51-4.15-.03-.06-.07-.13-.1-.19,0,0-.12-.41-.44-1.52-.07-.24-.15-.48-.22-.72-.83-2.8-1.61-5.61-2.39-8.42h0c-1.72-6.15-3.48-12.29-5.86-18.23-.94-2.35-1.27-4.82-.96-7.34,.1-.86,.17-1.78,.55-2.53,2.17-4.35,2.29-9.07,2.69-13.75,.01-.16,.03-.31,.04-.47,.66-1.63,1.38-3.24,2.17-4.83,1.18-2.37,1.45-4.83,1.95-7.3,.31-1.55,.84-2.98,1.54-4.35,.25-.24,.52-.48,.8-.69,3.54-2.7,5.92-6.67,9.91-8.85,.27-.15,.64-.36,.47-.73-.08-.18-.45-.25-.7-.32-1.88-.5-3.64-.25-5.28,.83-.99,.65-2.02,1.26-3.07,1.82-.45,.24-1,.7-1.47,.31-.4-.33-.05-.93,.05-1.38,.64-2.92,1.69-5.71,2.92-8.42,1.52-3.35,3.16-6.65,4.41-10.12,.67-1.86,1.64-2.29,3.56-1.61,3.82,1.35,7.71,2.09,11.77,2.01,5.63-.12,8.93-3.26,9.36-8.9,.23-3.05-.15-6.05-.63-9.04-.72-4.53,.99-8.14,4.21-11.18,2.04-1.94,4.56-3.08,7.05-4.28,9.03-4.34,17.6-9.6,26.78-13.64,8.91-3.93,18.14-6.49,27.96-6.35,5.77,.09,11.4,1.15,16.86,3.06,1.17,.41,2.34,.87,3.53,1.22,1.43,.42,2.01,1.3,1.89,2.78-.14,1.72-.86,2.33-2.57,1.96-6.21-1.35-12.53-1.66-18.84-2.11-1-.07-2.01,.02-3.15,.45,.86,.78,1.79,.81,2.64,.99,4.87,1,9.77,1.88,14.62,3,2.84,.66,5.53,1.99,8.38,2.53,6.19,1.18,11.82,3.82,17.57,6.19,.52,.21,1.01,.64,1.69,.45-.03-.8-.71-1.06-1.17-1.44-2.97-2.45-6.14-4.62-9.14-7.04-2.1-1.69-2-3.95-2.23-6.18-.08-.8,.71-.64,1.2-.72,7.54-1.28,14.74-.02,21.37,3.6,9.17,5.01,18.34,10.08,26.57,16.56,6.26,4.93,10.87,11.46,15.69,17.73,.34,.44,.68,.88,1.01,1.31,.02,.03,.04,.06,.07,.09,4.91,6.35,6.27,9.55,5.93,11.57-.34,2.02-1.68,.77-3.28,2.51s-2.4,7.49,.24,12.93c.23,.48,.55,.87,.93,1.2,3.44,4.63,5.74,9.94,7.55,15.52,2.86,8.85,5.22,17.87,8.91,26.45,1,2.32,1.38,4.78,1.15,7.31-.08,.86-.13,1.78-.48,2.54-2.06,4.4-2.06,9.13-2.35,13.82-.08,1.28-.16,2.56-.28,3.83-.91,2.3-1.95,4.57-3.13,6.79-1.12,2.13-1.5,4.36-1.98,6.59-.21,.21-.43,.4-.67,.59-3.47,2.79-5.76,6.81-9.69,9.09-.26,.15-.63,.38-.45,.74,.09,.17,.45,.24,.7,.3,1.89,.46,3.64,.16,5.26-.96,.98-.68,1.99-1.31,3.03-1.9,.44-.25,.98-.72,1.46-.34,.41,.32,.08,.93-.01,1.38-.57,2.94-1.55,5.75-2.71,8.49-1.44,3.39-2.99,6.73-4.16,10.23-.62,1.87-1.58,2.33-3.52,1.7Z"/></g></g><g id="WOMAN"><g><path class="cls-2" d="M203.8,266.53c-4.19-6.15-6.29-13.16-8.08-20.25-2.48-9.8-4.03-19.72-3.49-29.88,.07-1.23,.13-2.23,1.56-2.63,.58-.16,.94-.71,.89-1.41-.02-.32-.03-.65,0-.97,.33-2.98,.75-3.34,3.71-3.08,1.88,.16,3.7,.12,5.25-1.13,.6-.48,1.2-.45,1.81-.1,4.79,2.78,9.66,2.24,14.55,.37,1.72-.66,3.45-1.29,5.13-2.05,2.42-1.09,4.92-1.57,7.56-1.53,2.22,.04,3.15-1.07,2.95-3.27-.04-.45-.44-.99,.13-1.31,.48-.27,.95,.1,1.35,.34,.74,.45,1.42,.99,2.14,1.47,.59,.39,1.17,1,1.8,1.05,2.24,.19,3.35,1.8,4.55,3.33,1.65,2.11,3.44,4.06,5.92,5.21,1.01,.47,1.1,1.44,1.22,2.33,.58,4.07,1.23,8.13,1.62,12.22,1.16,11.96-1.05,23.49-4.89,34.75-.79,2.32-2.08,4.4-3.86,6.14-.7,.68-1.41,1.32-2.3,1.74-1.56,.46-3.09,1-4.67,1.35-7.91,1.75-15.93,1.6-23.94,1.2-3.93-.2-7.89-.88-10.93-3.87Zm20.93-7.16c3.64-.12,7.4-.89,10.62-3.19,4.15-2.98,4.92-3.71-.26-6.69-5.19-2.98-10.96-2.95-16.72-1.83-2.27,.44-4.32,1.36-5.94,3.1-.71,.76-.75,1.4-.06,2.24,3.15,3.82,7.05,6.15,12.36,6.37Zm-16.91-46.34c-4.82-.02-11.16,4.04-12.89,7.96-.12,.28-.39,.6-.06,.88,.43,.37,.85,.06,1.18-.17,1.93-1.31,3.94-2.5,6.13-3.3,3.88-1.41,7.78-2.87,11.9-.71,.27,.14,.63,.2,.94,.2,.72-.01,1.53-.1,1.79-.85,.22-.66-.52-.98-.94-1.37-2.4-2.26-5.53-2.19-8.05-2.64Zm44.98,8.32c-.08-.15-.17-.34-.27-.53-3.53-6.58-11.7-9.51-18.55-6.65-1.01,.42-1.88,1.09-2.68,1.81-.9,.81-.69,1.47,.5,1.83,.91,.28,1.71-.08,2.5-.42,2.4-1.04,4.78-.94,7.27-.23,3.47,.99,6.73,2.34,9.69,4.39,.26,.18,.56,.35,.86,.43,.43,.11,.75-.03,.67-.63Zm-9.15,11.13c1.6,.02,4.2-.64,5.11-1.17,1.27-.73,1.28-2.62,.05-3.42-1.26-.82-2.58-.8-3.88-.27-2.16,.87-4.22,.65-6.29-.25-1.14-.5-2.3-.95-3.45-1.42-.72-.3-1.46-.42-2.21-.12-.45,.18-.99,.3-1.04,.89-.04,.5,.37,.77,.73,1,1.08,.72,2.19,1.39,3.26,2.12,2.48,1.7,5.23,2.56,7.71,2.65Zm-41.01,.01c4.35-.03,9.78-2.3,12.58-5.03,.66-.64,.53-1.11-.24-1.49-1-.5-1.98-.35-2.96,.1-3.37,1.55-6.71,3-10.53,1.27-1.09-.49-2.32,.13-3.29,.94-.5,.42-.69,.81-.36,1.51,1.1,2.31,3.31,2.3,4.8,2.69Zm16.4,29.84c2.72,.9,9.28,.56,11.86-.63-2.83-2.97-9.26-2.63-11.86,.63Zm3.03-24.28c-1.23,.25-2.43,.61-3.14,1.74-.43,.69-.5,1.46,.19,2.05,.72,.61,1.42,.36,1.98-.28,.6-.68,1.19-1.39,1.72-2.13,.66-.92,.05-1.22-.75-1.39Zm6.17-.02c-.8,.14-1.3,.54-.73,1.4,.5,.75,1.14,1.42,1.72,2.12,.56,.67,1.26,.88,1.97,.31,.69-.56,.64-1.32,.22-2.03-.7-1.16-1.91-1.48-3.17-1.79Z"/><path class="cls-2" d="M242.68,272.19c-.8,16.59-5.37,31.83-16.16,44.82-.42,.5-.72,1.14-1.49,.36-5.72-5.77-11.61-11.37-16.04-18.28-5.14-8-6.6-16.81-5.86-26.12,.07-.92,.19-1.83,.28-2.74,1.64,2.07,3.2,4.2,4.93,6.2,2.25,2.6,4.17,5.6,7.64,6.83,2.7,.96,5.45,1.82,8.31,2.1,3.06,.31,6.12,.27,8.58-1.98,1.35-1.24,2.61-2.59,3.81-3.99,2.04-2.37,4-4.81,5.99-7.21Z"/><path class="cls-10" d="M255.31,338.4c-2.99-2.56-5.7-5.42-8.41-8.28-3.36-3.54-6.91-6.87-10.75-9.89-.73-.57-1.49-1.05-2.38-1.36-2.92-1.03-3.27-2.04-1.54-4.68,3.24-4.94,6.16-10.05,8.48-15.5,1.89-4.45,3.37-9.02,4.23-13.78,.12-.65,.03-1.39,1.1-.72,4.44,2.81,8.8,5.71,12.65,9.33,1.29,1.22,1.69,2.53,1.47,4.35-1.55,13.06-2.97,26.14-4.44,39.21-.05,.42,.03,.88-.42,1.32Z"/><path class="cls-10" d="M190.07,335.71c-.76-3.13-1.39-6.25-1.74-9.4-1.01-9.1-1.66-18.22-1.62-27.39,.01-3.73,1.14-6.81,4.17-9.24,3.03-2.44,5.84-5.15,8.87-7.85,.84,1.63,1.24,3.26,1.5,4.89,1.15,7.27,4.8,13.4,8.78,19.37,1.35,2.02,2.88,3.93,4.44,5.8,.78,.94,.83,1.7,.04,2.56-.29,.32-.56,.67-.91,.92-7.88,5.62-14.66,12.51-21.8,18.99-.51,.46-.9,1.08-1.73,1.34Z"/><path class="cls-5" d="M411.92,165.86c2.94-2.29,6.44-3.9,8.93-6.71,3.15-3.56,6.41-7.06,8.3-11.55,1.28-3.05,1.69-6.1,.89-9.35-.49-1.99-.75-4.04-1.1-6.06-.03-.16-.06-.33-.03-.48,.19-.83,.18-2.14,.98-2.22,.79-.07,.72,1.21,.86,1.95,.74,3.87,2.09,7.6,2.39,11.59,.23,3.13-.72,5.97-1.36,8.91-.2,.9-.52,1.77-.75,2.66-.11,.41-.19,.9,.29,1.16,.5,.27,.81-.14,1.08-.46,.21-.24,.4-.52,.52-.82,1.9-4.89,3.23-9.79,2-15.16-.96-4.21-1.92-8.45-2.09-12.79-.06-1.51-.12-3.04,.35-4.51,.17-.52,.44-1.05,1.13-.94,.6,.1,.92,.48,.94,1.13,.21,6.02,1.96,11.84,2.22,17.85,.07,1.57,.08,3.14,.11,4.71,.02,1.18,0,1.18,1.22,.91-.12,.81-.74,1.3-1.15,1.9-1.62,2.39-3,4.85-3.57,7.76-.43,2.2-1.57,4.1-3.1,5.8-2.47,2.73-4.82,5.57-7.16,8.41-2.25,2.72-3.93,5.78-5.65,8.88-3.41,6.14-5.5,12.66-7,19.45-.31,1.41-.53,3.33-1.49,4-1.16,.81-2.51-.9-3.8-1.44-2.24-.95-4.42-2.07-6.77-2.74-1-.28-1.12-.59-.73-1.54,2.18-5.31,4.33-10.63,5.96-16.14,.51-1.72,.85-3.46,.82-5.27-.07-4.74,1.61-8.77,4.92-12.15,1.14-1.16,2.17-2.42,3.3-3.59,2.7-2.8,4.42-6.12,5.33-9.89,.24-.99,.6-1.97,1.05-2.89,.4-.81,1.11-1.4,2.1-1.19,.92,.2,.95,1.02,1.08,1.79,.24,1.47,.07,2.93-.16,4.36-.25,1.55-.94,2.73-2.59,3.42-2.02,.84-3.92,2.02-5.6,3.77,1.52,.59,2.73-.37,4.33-.39-2.5,2.7-5.56,4.55-7.19,7.69-.03,.13-.13,.34-.09,.37,.17,.13,.23-.05,.3-.17Z"/><path class="cls-1" d="M242.68,272.19c-1.99,2.41-3.95,4.85-5.99,7.21-1.2,1.39-2.45,2.75-3.81,3.99-2.46,2.25-5.52,2.28-8.58,1.98-2.86-.29-5.61-1.15-8.31-2.1-3.47-1.23-5.4-4.23-7.64-6.83-1.72-2-3.29-4.13-4.93-6.2,.13-1.23,.25-2.47,.38-3.7,3.04,3,6.99,3.68,10.93,3.87,8,.4,16.03,.55,23.94-1.2,1.58-.35,3.11-.9,4.67-1.35,0,1.48-.16,2.93-.65,4.34Z"/><path class="cls-5" d="M439.06,145.25c1.04-3.44,.55-6.83,.09-10.21-.48-3.53-1.17-7.04-.93-10.63,.11-1.58,.32-3.12,1.27-4.45,.42-.59,.9-1.09,1.65-1.21,.77-.12,1.18,.14,.88,.99-1.92,5.4-1.38,10.95-.99,16.49,.13,1.83,.11,3.68,.06,5.52-.04,1.51-1.14,2.47-2.03,3.51Z"/><path class="cls-5" d="M47.24,193.77c-.73-1.69-1.4-3.4-2.03-5.13-1.82-5.02-3.93-9.95-3.93-15.46,0-3.54-1.37-6.66-3.69-9.32-1.78-2.04-3.65-3.99-5.48-5.98-.06,.04-.11,.09-.16,.14-.22,1.06-1.04,.55-1.55,.49-.86-.1-1.69-.43-2.54-.66,.7,1.04,1.55,1.82,2.42,2.6,1.72,1.54,3.45,3.06,4.52,5.17,.12,.14,.25,.29,.12,.48-.2,.02-.3-.1-.36-.27-1.54-1.1-3.07-2.2-4.62-3.29-5.63-3.94-9.75-9.14-12.65-15.32-1.27-2.71-1.6-5.58-.87-8.56,.45-1.83,.75-3.7,1.11-5.56,.2-1.03,.18-2.05-.29-3.01-.14-.28-.2-.7-.58-.71-.51-.01-.5,.48-.58,.82-.56,2.31-1.07,4.63-1.67,6.93-1.11,4.26-1.45,8.52-.15,12.81,.47,1.55,.86,3.13,1.28,4.69,.12,.45,.12,.91-.34,1.14-.51,.26-.78-.22-1.07-.51-.18-.19-.33-.44-.43-.68-1.24-3.12-2.36-6.29-2.53-9.68-.21-4.16,1.14-8.11,1.77-12.16,.53-3.37,1.28-6.71,.57-10.14-.15-.71-.23-1.66-1.3-1.51-.98,.14-.98,1-.99,1.78-.01,.92,.06,1.86-.09,2.75-1.11,6.44-2.38,12.87-2.13,19.46,.04,1.09-.48,.82-1.07,.52-.35-.79-.66-1.58-.82-2.44-.57-2.94-.02-5.83,.38-8.71,.52-3.8,1.35-7.56,.73-11.43-.25-1.59-.72-3.08-2.12-4.03-.41-.28-1-.55-1.51-.1-.43,.39-.09,.83,.09,1.18,.73,1.38,.85,2.86,.96,4.39,.38,4.93,.16,9.83-.29,14.74-.24,2.6,.59,4.77,2.44,6.59,.24,.41,.46,.85,.74,1.24,1.78,2.54,3.32,5.16,3.95,8.28,.45,2.26,1.57,4.24,3.2,5.92,1.09,1.13,2.06,2.37,3.14,3.51,6.36,6.71,10.65,14.69,13.93,23.22,1.27,3.31,1.86,6.88,2.75,10.33,.18,.69,.3,1.22,1.27,.84,3.23-1.24,6.48-2.44,9.75-3.57,1.08-.37,1.12-.87,.73-1.79Z"/><path class="cls-5" d="M27.6,148.31c-.21-.78-.52-1.54-.89-2.25-.4-.78-1.13-1.24-2.01-1.06-.9,.18-1.08,1-1.11,1.77-.07,1.51-.15,3.02,.25,4.51,.26,.99,.34,2.16,1.36,2.64,2.41,1.12,4.58,2.61,6.75,4.1,.05-.05,.1-.09,.16-.14-2.32-2.8-3.58-6.1-4.5-9.57Z"/><path class="cls-7" d="M223.08,322.86c.09-.69-.16-1.61,1.01-1.65,.98-.04,2.42,1.26,2.25,2.15-.14,.74-.49,1.48-1.47,1.43-1.21-.06-1.95-.57-1.79-1.93Z"/><path class="cls-6" d="M224.73,259.37c-5.31-.22-9.21-2.55-12.36-6.37-.69-.84-.65-1.48,.06-2.24,1.62-1.74,3.67-2.66,5.94-3.1,5.76-1.12,11.53-1.15,16.72,1.83,5.19,2.98,4.42,3.71,.26,6.69-3.22,2.3-6.98,3.07-10.62,3.19Zm-2.48-3.87c1.52,.21,2.75,1.03,3.93-.45-1.37-.42-2.52-.44-3.93,.45Z"/><path class="cls-3" d="M207.83,213.03c2.52,.45,5.64,.38,8.05,2.64,.42,.39,1.16,.71,.94,1.37-.25,.75-1.07,.84-1.79,.85-.31,0-.67-.06-.94-.2-4.11-2.17-8.01-.7-11.9,.71-2.2,.8-4.2,1.99-6.13,3.3-.34,.23-.76,.54-1.18,.17-.33-.28-.06-.61,.06-.88,1.73-3.92,8.07-7.98,12.89-7.96Z"/><path class="cls-3" d="M252.81,221.35c.08,.6-.24,.74-.67,.63-.31-.08-.6-.25-.86-.43-2.96-2.06-6.23-3.41-9.69-4.39-2.5-.71-4.87-.81-7.27,.23-.79,.34-1.59,.7-2.5,.42-1.18-.36-1.4-1.02-.5-1.83,.8-.72,1.66-1.38,2.68-1.81,6.85-2.86,15.02,.07,18.55,6.65,.1,.19,.2,.38,.27,.53Z"/><path class="cls-3" d="M243.66,232.48c-2.49-.09-5.23-.94-7.71-2.65-1.07-.73-2.18-1.4-3.26-2.12-.36-.24-.76-.51-.73-1,.05-.6,.59-.72,1.04-.89,.75-.3,1.48-.17,2.21,.12,1.15,.48,2.31,.92,3.45,1.42,2.07,.9,4.14,1.13,6.29,.25,1.3-.53,2.62-.55,3.88,.27,1.23,.81,1.22,2.69-.05,3.42-.92,.53-3.52,1.19-5.11,1.17Z"/><path class="cls-3" d="M202.65,232.49c-1.48-.39-3.69-.39-4.8-2.69-.34-.7-.14-1.09,.36-1.51,.96-.81,2.19-1.44,3.29-.94,3.83,1.72,7.16,.28,10.53-1.27,.98-.45,1.96-.59,2.96-.1,.77,.38,.9,.86,.24,1.49-2.81,2.73-8.23,5-12.58,5.03Z"/><path class="cls-9" d="M219.05,262.33c2.6-3.25,9.03-3.59,11.86-.63-2.58,1.18-9.14,1.53-11.86,.63Z"/><path class="cls-9" d="M222.08,238.06c.8,.17,1.41,.47,.75,1.39-.53,.74-1.12,1.45-1.72,2.13-.56,.64-1.26,.89-1.98,.28-.69-.59-.62-1.36-.19-2.05,.72-1.14,1.91-1.49,3.14-1.74Z"/><path class="cls-9" d="M228.25,238.04c1.26,.31,2.47,.63,3.17,1.79,.43,.71,.48,1.47-.22,2.03-.71,.58-1.4,.37-1.97-.31-.58-.7-1.22-1.36-1.72-2.12-.57-.86-.07-1.26,.73-1.4Z"/><path class="cls-8" d="M411.92,165.86c-.07,.12-.13,.3-.3,.17-.04-.03,.06-.24,.09-.37,.07,.07,.14,.13,.2,.2Z"/><path class="cls-8" d="M34.89,166.13h.15l-.12-.02-.03,.02Z"/><path class="cls-8" d="M34.92,166.1c-.21,.03-.31-.09-.37-.28,.07-.08,.15-.15,.24-.21,.13,.15,.27,.3,.1,.51l.03-.02Z"/><path class="cls-7" d="M222.25,255.5c1.42-.9,2.56-.88,3.93-.45-1.18,1.49-2.41,.66-3.93,.45Z"/><path class="cls-8" d="M446.15,119.42c.24-.49,.14-1.04,.04-1.59-.73-3.91-6.54-3.94-8.49-1.84-.93,1-1.81,1.07-2.95,1.02-2.6-.11-4.09,.75-4.86,2.99-.43,1.26-.62,2.62-.76,3.95-.11,1.05,.03,2.03-1.24,2.6-.88,.39-1.24,1.42-1.58,2.31-.93,2.43-.6,4.97,0,7.33,.62,2.47,1.05,4.94,.82,7.42-.13,1.45-.49,3.05-1.44,4.4-.76-.82-.48-1.83-.81-2.68-.57-1.46-1.17-2.81-2.95-2.96-2.59-.23-4.08,.56-4.94,2.54-.31,.71-.51,1.46-.81,2.17-.88,2.07-.95,4.46-2.7,6.19-2.22,2.2-4.38,4.48-6.47,6.8-2.01,2.23-3.55,4.71-4.29,7.72-.82,3.35-.77,6.84-1.61,10.14-1.47,5.77-3.52,11.36-6.6,16.51-.83,1.38-1.71,2.6-3.5,2.94-1,.19-1.5,1.04-1.11,2.19,.27,.79,.33,1.58-.02,2.45-.57,1.42-.75,3-1.41,4.37-1.62,3.37-2.32,7.21-4.93,10.08-1.89,2.07-3.67,3.89-4.5,6.96-1.48,5.48-4.67,10.37-7.36,15.39-3.25,6.05-6.55,12.08-9.79,18.14-.74,1.38-1.68,2.47-3.11,3.17-1.23,.6-2.41,1.28-3.62,1.92-5.34,2.85-10.73,5.63-15.88,8.82-2.55,1.58-5.13,3.1-7.86,4.68h0c-4.68,2.75-13.56,8.33-20.16,10.81-.28,.13-.58,.24-.92,.33-5.48,1.49-11,2.82-16.58,3.92-.32,.06-.69,.04-.94,.2-3.13,2.07-6.6,1.7-10.06,1.45-1.74-.13-3.51-.12-5.07,.77-.97,.55-1.88,.77-2.77,.75h-.02c-6.48,.26-13.25-1.56-15.74-3.18-.54-.34-1.04-.75-1.55-1.14-3.54-2.68-7.08-5.37-10.96-7.56-1.91-1.08-2.49-2.66-1.93-4.68,.72-2.6,1.8-3.7,4.03-3.72,6.38-.09,11.57-2.87,16.19-6.97,1.9-1.69,3.74-3.45,5.29-5.49,.77-1.02,1.42-2.15,1.43-3.4,.04-4.56,1.68-8.68,3.39-12.78,2.04-4.9,2.98-9.83,.86-14.96-.65-1.56-1.41-3.06-2.45-4.38-2.71-3.44-5.21-7.08-8.63-9.9-1.67-1.38-2.15-3.28-1.55-5.15,1.74-5.36-.28-9.73-3.15-14-4.62-6.88-10.57-12.13-18.36-15.18-2.11-.82-4.15-1.28-6.47-.68-2.48,.65-4.93,.06-7.24-1.1-2.47-1.23-4.69-2.91-7.3-3.91-4.27-1.64-8.56-1.77-12.86-.28-4.31,1.49-8.63,2.79-13.22,3.16-2.3,.19-4.21,1.39-5.57,3.3-2.9,4.06-4.74,8.62-6.01,13.41-.4,1.5-.06,2.79,1.13,3.98,1.94,1.95,2.81,4.51,1.59,7.01-1.76,3.61-2.26,7.65-4.23,11.18-.9,1.62-1.93,2.52-3.84,2.74-7.4,.85-11.78,6.98-10.28,14.24,1.76,8.52,4.58,16.72,8.25,24.57,3.4,7.29,9.25,11.72,17.28,13.08,1.74,.29,3.46,.21,5.17-.18,1.26-.29,1.75,.23,1.68,1.41-.09,1.57-.22,3.13-.35,4.7-.08,.98-.57,1.8-1.33,2.33-4.49,3.12-8.12,7.3-12.78,10.25-3.64,2.31-7.37,3.37-11.56,2.32-4.56-1.15-9.06-1.26-13.59,.18-2.18,.69-4.4,.55-6.43-.67-4.77-2.84-10.24-3.72-15.42-5.39-.36-.12-.7-.23-1.04-.36-7.88-2.34-13.08-4.47-17.98-6.99-3.31-1.78-9.26-5.49-11.28-6.79h0c-.91-.59-1.89-1.22-2.91-1.89-5.32-3.43-11.79-7.57-15.98-10.06-1.18-.7-2.49-1.26-3.2-2.59-2.11-3.97-4.27-7.91-6.39-11.87-2.43-4.52-4.96-9-7.23-13.6-2.59-5.26-5.86-10.23-7-16.13-.09-.46-.34-.91-.75-1.21-3.8-2.77-5.48-6.93-7.11-11.08-1.01-2.56-2.35-5.06-2.44-7.91-.06-2.09-.27-2.49-2.3-2.57-.98-.04-1.44-.43-1.86-1.22-3.56-6.81-5.92-13.96-6.6-21.65-.27-3.06-1.2-5.93-3-8.52-1.84-2.65-4.21-4.78-6.45-7.04-2.23-2.26-3.88-4.8-4.51-7.96-.23-1.16-.7-2.26-1.33-3.26-1.68-2.69-5.65-2.72-7.11,.02-.57,1.08-.73,2.37-1.14,3.79-1.35-2.17-1.8-4.42-1.64-6.61,.22-2.98,1.11-5.9,1.35-8.88,.18-2.24-.17-4.57-2.19-6.08-.65-.48-1.17-.81-1.07-1.72,.06-.52-.12-1.06-.16-1.59-.29-4.45-2.19-7.04-6.62-5.99-.5,.12-.7-.05-.93-.35-1.47-1.95-3.5-2.25-5.78-2.14-2.81,.14-4.34,2.87-3.45,4.96,1.5,3.55,1.34,7.22,1.51,10.87,.12,2.66-.22,5.35-.41,8.01-.23,3.24,.42,6.09,2.52,8.76,2.04,2.59,3.89,5.36,4.54,8.81,.4,2.1,1.36,4.21,2.8,5.88,3.14,3.62,6.21,7.3,9.12,11.11,2.87,3.75,5.43,7.69,6.98,12.15,1.62,4.66,2.35,9.6,4.13,14.23,.51,1.33,.33,2.66-1.09,3.57-.57,.37-.87,1.07-1.28,1.63-.55,.75-.35,1.25,.21,1.63,2.05,1.39,2.85,3.67,3.9,5.68,1.81,3.46,3.24,7.12,4.87,10.68,.89,1.94,1.61,3.99,1.73,6.05,.09,1.49,.19,2.98,1.07,4,1.71,1.98,2.35,4.36,3.16,6.7,1.14,3.3,2.17,6.63,3.37,9.9,1.81,4.93,3.59,9.86,5.63,14.7,1.67,3.96,3.66,7.75,5.61,11.57,2.12,4.16,3.37,8.72,5.62,12.82,1.31,2.38,2.7,4.76,4.83,6.53,1.82,1.52,3.76,2.9,5.58,4.41,5.38,4.49,10.86,8.86,16.87,12.47,5.56,3.35,11.06,6.79,16.51,10.31,3.59,2.32,7.05,4.88,10.79,6.91,6.09,3.3,12.23,6.49,17.98,10.37,4.3,2.9,8.03,6.36,10.19,11.13,1.7,3.76,3.39,7.52,5.36,11.13,2.6,4.75,4.67,9.75,7.21,14.52,1.11,2.08,2.03,4.61,4.63,5.39,3.69,1.11,7.05,3.01,10.69,4.27,4.38,1.52,8.55,3.67,12.93,5.22,5.26,1.86,10.42,4.02,15.79,5.57,1.23,.35,2.38,1.06,3.62,1.25,2.4,.35,4.58,1.43,6.96,1.85,2.16,.38,4.28,.96,6.42,1.46,.23-.13,.45-.08,.64,.08,.87,.08,1.74,.16,2.61,.24h.99c1.28-.22,2.52-.57,3.72-1.11,7.08-3.2,14.14-6.46,21.27-9.56,6.58-2.87,12.83-6.57,19.94-8.14,2.17-.48,4.33-1.11,6.53-1.31,3.52-.32,5.99-1.57,7.4-5.13,2.41-6.11,4.71-12.26,6.79-18.49,2.01-6.02,5.09-10.97,10.73-14.46,6.34-3.91,12.85-7.46,19.38-11.02,6.98-3.81,13.99-7.54,20.98-11.34,4.22-2.29,8.41-4.65,12.33-7.41,6.19-4.36,12-9.23,18.32-13.41,2.61-1.72,5.1-3.52,6.75-6.31,4.03-6.83,7.31-14.03,10.66-21.19,2.05-4.39,3.38-9.07,5.02-13.62,2.18-6.06,4.64-12.02,7.13-17.96,1.51-3.61,3.36-6.99,4.17-10.97,1-4.96,3.74-9.4,5.91-13.98,.93-1.97,1.86-4.04,3.52-5.55,.94-.86,.82-1.66,.35-2.55-.32-.61-.82-1.12-1.23-1.68-.55-.75-.77-1.43-.57-2.49,.73-3.89,2.21-7.57,3.07-11.42,1.18-5.3,2.91-10.37,5.86-14.95,2.68-4.16,5.75-8.04,9.01-11.74,2.91-3.3,5.68-6.61,6.43-11.12,.31-1.86,1.43-3.32,2.38-4.86,.94-1.5,1.98-2.94,3.02-4.37,1.42-1.95,1.58-4.23,1.47-6.47-.16-3.18-.54-6.36-.44-9.55,.11-3.36-.14-6.8,1.4-9.98ZM46.52,195.56c-3.27,1.13-6.52,2.33-9.75,3.57-.98,.38-1.1-.15-1.27-.84-.89-3.45-1.48-7.02-2.75-10.33-3.28-8.53-7.57-16.51-13.93-23.22-1.08-1.14-2.05-2.38-3.14-3.51-1.63-1.68-2.75-3.67-3.2-5.92-.62-3.12-2.17-5.74-3.95-8.28-.27-.39-.49-.83-.74-1.24-1.84-1.81-2.68-3.99-2.44-6.59,.45-4.9,.67-9.81,.29-14.74-.12-1.52-.24-3.01-.96-4.39-.18-.35-.52-.79-.09-1.18,.5-.46,1.09-.19,1.51,.1,1.4,.96,1.86,2.44,2.12,4.03,.62,3.87-.21,7.64-.73,11.43-.39,2.89-.95,5.77-.38,8.71,.17,.86,.47,1.66,.82,2.44,.59,.3,1.11,.57,1.07-.52-.25-6.59,1.01-13.01,2.13-19.46,.15-.9,.08-1.84,.09-2.75,.01-.78,0-1.64,.99-1.78,1.07-.15,1.15,.8,1.3,1.51,.71,3.43-.05,6.77-.57,10.14-.63,4.05-1.98,8-1.77,12.16,.17,3.39,1.29,6.56,2.53,9.68,.1,.25,.24,.49,.43,.68,.29,.29,.56,.77,1.07,.51,.46-.23,.46-.7,.34-1.14-.42-1.57-.81-3.14-1.28-4.69-1.29-4.29-.96-8.55,.15-12.81,.6-2.3,1.11-4.62,1.67-6.93,.08-.34,.07-.83,.58-.82,.38,0,.44,.43,.58,.71,.47,.96,.49,1.98,.29,3.01-.36,1.86-.66,3.73-1.11,5.56-.74,2.97-.4,5.84,.87,8.56,2.9,6.18,7.02,11.38,12.65,15.32,1.55,1.08,3.08,2.19,4.62,3.29,.07-.08,.15-.15,.24-.21-1.07-2.1-2.8-3.63-4.51-5.17-.86-.77-1.71-1.56-2.42-2.6,.84,.23,1.68,.55,2.54,.66,.51,.06,1.33,.57,1.55-.49-2.17-1.49-4.34-2.98-6.75-4.1-1.02-.48-1.09-1.65-1.36-2.64-.4-1.49-.32-3-.25-4.51,.04-.77,.22-1.59,1.11-1.77,.88-.18,1.6,.28,2.01,1.06,.37,.71,.68,1.47,.89,2.25,.92,3.47,2.18,6.77,4.5,9.57,1.83,1.99,3.71,3.94,5.48,5.98,2.32,2.66,3.69,5.77,3.69,9.32,0,5.51,2.11,10.44,3.93,15.46,.63,1.73,1.3,3.44,2.03,5.13,.4,.92,.35,1.42-.73,1.79Zm167.99,118.9c-.29,.32-.56,.67-.91,.92-7.88,5.62-14.66,12.51-21.8,18.99-.51,.46-.9,1.08-1.73,1.34-.76-3.13-1.39-6.25-1.74-9.4-1.01-9.1-1.66-18.22-1.62-27.39,.01-3.73,1.14-6.81,4.17-9.24,3.03-2.44,5.84-5.15,8.87-7.85,.84,1.63,1.24,3.26,1.5,4.89,1.15,7.27,4.8,13.4,8.78,19.37,1.35,2.02,2.88,3.93,4.44,5.8,.78,.94,.83,1.7,.04,2.56Zm11.83,8.89c-.14,.74-.49,1.48-1.47,1.43-1.21-.06-1.95-.57-1.79-1.93,.09-.69-.16-1.61,1.01-1.65,.98-.04,2.42,1.26,2.25,2.15Zm.19-6.34c-.42,.5-.72,1.14-1.49,.36-5.72-5.77-11.61-11.37-16.04-18.28-5.14-8-6.6-16.81-5.86-26.12,.07-.92,.19-1.83,.28-2.74,.13-1.23,.25-2.47,.38-3.7-4.19-6.15-6.29-13.16-8.08-20.25-2.48-9.8-4.03-19.71-3.49-29.88,.07-1.23,.13-2.23,1.56-2.63,.58-.16,.94-.71,.89-1.41-.02-.32-.03-.65,0-.97,.33-2.98,.75-3.34,3.71-3.08,1.88,.16,3.7,.12,5.25-1.13,.6-.48,1.2-.45,1.81-.1,4.79,2.78,9.66,2.24,14.55,.37,1.72-.66,3.45-1.29,5.13-2.05,2.42-1.09,4.92-1.57,7.56-1.53,2.22,.04,3.15-1.07,2.95-3.27-.04-.45-.44-.99,.13-1.31,.48-.27,.95,.1,1.35,.34,.74,.45,1.42,.99,2.14,1.47,.59,.39,1.17,1,1.8,1.05,2.24,.19,3.35,1.8,4.55,3.33,1.65,2.11,3.44,4.06,5.92,5.21,1.01,.47,1.1,1.44,1.22,2.33,.58,4.07,1.23,8.13,1.62,12.22,1.16,11.96-1.05,23.49-4.89,34.75-.79,2.32-2.08,4.4-3.86,6.14-.7,.68-1.41,1.32-2.3,1.74,0,1.48-.16,2.93-.65,4.34-.8,16.59-5.37,31.83-16.16,44.82Zm33.64-19.13c-1.55,13.06-2.97,26.14-4.44,39.21-.05,.42,.03,.88-.42,1.32-2.99-2.56-5.7-5.42-8.41-8.28-3.36-3.54-6.91-6.87-10.75-9.89-.73-.57-1.49-1.05-2.38-1.36-2.92-1.03-3.27-2.04-1.54-4.68,3.24-4.94,6.16-10.05,8.48-15.5,1.89-4.45,3.37-9.02,4.23-13.78,.12-.65,.03-1.39,1.1-.72,4.44,2.81,8.8,5.71,12.65,9.33,1.29,1.22,1.69,2.53,1.47,4.35Zm177.49-150.3c-1.62,2.39-3,4.85-3.57,7.76-.43,2.2-1.57,4.1-3.1,5.8-2.47,2.73-4.82,5.57-7.16,8.41-2.25,2.72-3.93,5.78-5.65,8.88-3.41,6.14-5.5,12.66-7,19.45-.31,1.41-.53,3.33-1.49,4-1.16,.81-2.51-.9-3.8-1.44-2.24-.95-4.42-2.07-6.77-2.74-1-.28-1.12-.59-.73-1.54,2.18-5.31,4.33-10.63,5.96-16.14,.51-1.72,.85-3.46,.82-5.27-.07-4.74,1.61-8.77,4.92-12.15,1.14-1.16,2.17-2.42,3.3-3.59,2.7-2.8,4.42-6.12,5.33-9.89,.24-.99,.6-1.97,1.05-2.89,.4-.81,1.11-1.4,2.1-1.19,.92,.2,.95,1.02,1.08,1.79,.24,1.47,.07,2.93-.16,4.36-.25,1.55-.94,2.73-2.59,3.42-2.02,.84-3.92,2.02-5.6,3.77,1.52,.59,2.73-.37,4.33-.39-2.5,2.7-5.56,4.55-7.19,7.69,.07,.07,.14,.13,.2,.2,2.94-2.29,6.44-3.9,8.93-6.71,3.15-3.56,6.41-7.06,8.3-11.55,1.28-3.05,1.69-6.1,.89-9.35-.49-1.99-.75-4.04-1.1-6.06-.03-.16-.06-.33-.03-.48,.19-.83,.18-2.14,.98-2.22,.79-.07,.72,1.21,.86,1.95,.74,3.87,2.09,7.6,2.39,11.59,.23,3.13-.72,5.97-1.36,8.91-.2,.9-.52,1.77-.75,2.66-.11,.41-.19,.9,.29,1.16,.5,.27,.81-.14,1.08-.46,.21-.24,.4-.52,.52-.82,1.9-4.89,3.23-9.79,2-15.16-.96-4.21-1.92-8.45-2.09-12.79-.06-1.51-.12-3.04,.35-4.51,.17-.52,.44-1.05,1.13-.94,.6,.1,.92,.48,.94,1.13,.21,6.02,1.96,11.84,2.22,17.85,.07,1.57,.08,3.14,.11,4.71,.02,1.18,0,1.18,1.22,.91-.12,.81-.74,1.3-1.15,1.9Zm4.36-27.84c-1.92,5.4-1.38,10.95-.99,16.49,.13,1.83,.11,3.68,.06,5.52-.04,1.51-1.14,2.47-2.03,3.51,1.04-3.44,.55-6.83,.09-10.21-.48-3.53-1.17-7.04-.93-10.63,.11-1.58,.32-3.12,1.27-4.45,.42-.59,.9-1.09,1.65-1.21,.77-.12,1.18,.14,.88,.99Z"/></g></g><g id="AMERICAN"><g id="AMERICAN-2"><path class="cls-9" d="M284.21,440.8c-2.47,1.15-4.42,.84-6.35-1-.39-.38-.71-.28-1.12,.02-.6,.44-1.19,.86-1.92,1.15-3.74,1.45-6.74,.04-7.3-4.41-.03-.21,0-.45-.28-.49-.52-.07-.38,.38-.5,.64-1.54,3.53-4.13,5.33-8.09,5.12-1.03-.05-1.64-.57-2.32-1.13-.24-.2-.62-.68-.76-.4-1.01,2.02-2.76,.76-4.11,.89-2.45,.23-2.4,.08-1.92-2.35,1.11-5.64,2.21-11.28,3.66-16.85,.12-.46-.22-.94,.09-1.42,.29-.46,.45-1.13-.06-1.4-.51-.27-.83,.41-1.08,.77-1.33,1.92-2.07,3.99-1.34,6.36,.23,.74,.47,1.23-.83,1.34-3.56,.31-4.84-3.16-3.4-6.26,2.28-4.9,6.54-6.56,11.47-7.09,1.76-.19,3.5-.01,5.24,.6,4.15,1.46,4.75,5.85,2.91,8.82-.39,.64-.92,1.19-1.44,1.84,1.3,.67,2.14,1.74,2.68,3.07,.44,1.08,.93,.84,1.36-.04,.78-1.59,1.73-3.09,3.09-4.24,1.48-1.24,3.27-1.78,5.2-1.61,2.45,.22,4.89,.01,7.34,.07,1.23,.03,1.48,.23,1.04,1.62-.83,2.64-1.2,5.43-1.77,8.16-.21,.99-.45,1.98-.62,2.98-.09,.51-.23,1.12,.39,1.44,.56,.29,.88-.19,1.25-.48,1.32-1,1.3-2.6,1.62-3.97,1.2-5.03,2.27-10.1,3.26-15.18,.14-.7,.36-.75,.84-.81,1.44-.2,2.89-.34,4.31-.62,1.32-.26,1.43,.24,1.16,1.36-.65,2.65-1.21,5.32-1.79,7.98-.07,.31,0,.64,0,1.47,3.08-2.83,6.13-5.14,10.36-3.67-2.04,1.4-4.09,2.81-6.28,4.31,1.5,.72,2.73,1.47,3.18,3.07,.43,1.53,.11,2.98-.22,4.44-.14,.63-.66,1.47,.2,1.74,.96,.3,1.73-.27,1.91-1.35,.43-2.59,.83-5.15,2.06-7.55,2.2-4.32,6.3-6.22,10.87-4.66,1.23,.42,1.56,1.77,1.65,2.99,.22,2.98-2.23,6.4-5.18,7.36-.61,.2-1.2,.49-1.82,.61-1.23,.25-1.34,1.07-.99,1.99,.33,.85,.73,1.56,2.03,1.14,1.11-.36,2.27-.34,3.32-1.13,1.76-1.32,2.38-3.09,2.7-5.11,.37-2.38,.92-4.73,1.52-7.07,.2-.81,.45-1.2,1.34-1.07,1.81,.28,3.75-.56,5.48,.59,.09,.06,.3-.04,.44-.1,2.23-.93,4.09-.65,5.38,1.82-.11-2,.86-2.57,2.53-2.32,.37,.06,.76,0,1.14,0,3.29,0,3.26,0,2.51,3.26-.72,3.12-1.38,6.25-2.09,9.37-.14,.59-.06,1.22,.38,1.45,.35,.18,.82-.29,1.16-.65,1.01-1.06,1.02-2.48,1.34-3.76,.73-2.92,1.17-5.91,1.99-8.82,.18-.64,.33-.88,1-.86,1.52,.05,3.03,.03,4.55,.01,.68,0,.87,.06,.69,.91-1.51,6.82-2.85,13.67-4.37,20.48-.91,4.08-3.47,5.68-7.36,5.8-2.78,.08-4.99-3.79-3.66-6.28,.37-.69,.5-1.55,1.38-1.95-3.02-1.67-3.95-3.94-3.14-7.11,.45-1.79,.56-3.66,1.17-5.42,.11-.32,.05-.92-.7-.58-.47,.21-1.02,.23-1.52,.39-1.01,.32-1.51-.14-2.1-.94-.29-.38,.16-1.48-.85-1.17-.78,.24-1.3,.78-1.47,1.71-.46,2.41-1.04,4.79-1.57,7.18-.09,.42-.15,.84-.25,1.25-.31,1.34-.23,3.08-1.06,3.92-.82,.82-2.58,.14-3.92,.26-1.24,.11-2.27,.02-1.93-1.87-2.29,1.37-4.55,2.01-7,2.11-1.53,.06-2.91-.36-3.78-1.44-.8-1-1.18-.62-1.8-.04-1.96,1.82-6.69,2.27-8.13-.6-.87-1.73-.65-3.42-.27-5.12,.1-.46,.24-.92,.16-1.36-.1-.53,.66-1.68-.71-1.42-.81,.16-1.87,.35-1.67,1.77,.18,1.34-1.04,2.41-.99,3.8,.02,.55-.32,1.11-.46,1.68-.6,2.47-.59,2.53-3.08,2.45-1.15-.04-2.36,.42-3.45-.31-.06-.55-.28-.35-.51-.11Zm-23.92-23.54c-1.94-.93-3.66-.19-5.35,.79,1.79-.18,3.57-.36,5.36-.54-.49,2.46-.98,4.92-1.48,7.44,2.39-.72,3.96-2.85,3.79-5.08-.11-1.42-.77-2.43-2.32-2.6Zm1.66,14.73c.03-.93-.03-1.85-.43-2.7-.52-1.12-1.48-1.47-2.67-1.41-1.2,.06-.87,1.1-1.04,1.71-.44,1.61-.66,3.28-1.08,4.9-.41,1.58,.71,2.15,1.73,2.68,1.07,.56,1.86-.13,2.43-1,.83-1.27,.97-2.73,1.05-4.19Zm11.83,2.88c.2,.57-.22,1.73,.89,1.98,1.11,.25,1.72-.65,2.22-1.52,.11-.19,.2-.39,.25-.6,.55-2.53,1.09-5.05,1.64-7.58,.08-.38,.14-.76-.23-1.03-.4-.3-.83-.22-1.22,0-.77,.44-1.31,1.11-1.73,1.88-1.13,2.07-1.69,4.3-1.82,6.87Zm36.63-3.55c2.26-1,3.38-2.5,3.63-4.64,.04-.35,.15-.82-.23-1.03-.5-.27-.8,.18-1.07,.48-1.21,1.41-1.84,3.09-2.33,5.18Zm26.54,11.27c-.95,.2-1.59,.76-2.04,1.52-.28,.47-.47,1.04,.17,1.41,.56,.32,.95-.06,1.21-.48,.45-.73,.83-1.51,.67-2.45Z"/><path class="cls-9" d="M220.55,440.88c-2.24,.46-4.56,1.57-6.32-1.06-.51-.77-.99-.02-1.46,.3-1.95,1.31-4,1.81-6.29,.85-1.05-.44-1.47-1.41-1.97-2.24-.37-.61-.54-.52-.9-.16-2.02,2.02-4.52,2.74-7.31,2.9-1.65,.09-3.05-.27-4.1-1.52-.65-.77-1.07-.8-1.78-.1-1.53,1.5-3.59,1.55-5.54,1.67-1.52,.1-3.2-2.25-3.26-3.97-.1-2.75,.72-5.34,1.22-7.99,.15-.81,.13-1.25-.93-.91-2.23,.71-2.27,.69-3.54-1.47-.32-.55-.7-.3-.91-.15-.54,.41-.98,.84-1.14,1.65-.76,3.83-1.73,7.62-2.46,11.45-.2,1.06-.64,1.16-1.48,1.12-1.08-.05-2.17-.02-3.25,0-.79,0-1.58,.23-1.51-1.14,.05-.89-.67-.56-1.14-.23-1.7,1.2-3.67,1.35-5.66,1.59-1.69,.2-3.04-.3-4.08-1.53-.73-.87-1.12-.57-1.76,.07-1.43,1.43-4.18,1.73-6.02,1.11-2.04-.69-2.86-3.59-2.45-5.5,.49-2.25,1.1-4.47,1.62-6.72,.15-.64,.24-1.48-.52-1.68-.94-.25-1.55,.56-1.78,1.32-.54,1.73-.94,3.51-1.33,5.28-.48,2.19-.93,4.39-1.34,6.6-.13,.69-.47,.86-1.11,.85-1.41-.04-2.82-.03-4.23,0-.69,.02-.94-.16-.84-.93,.37-2.67,.9-5.3,1.57-7.91,.32-1.24,.64-2.5,.75-3.77,.03-.36,.56-1.25-.49-1.41-.77-.12-1,.4-1.32,.92-.75,1.23-.86,2.63-1.14,3.99-.57,2.67-1.09,5.35-1.67,8.02-.13,.62-.36,1.17-1.26,1.1-1.35-.1-2.71-.1-4.06,0-1.1,.08-1.25-.67-1.07-1.31,1.33-4.73,1.87-9.64,3.22-14.37,.24-.85-.02-2.05,.68-2.59,.74-.57,1.89-.14,2.85-.19,1.97-.1,3.93,.31,5.92-.06,1.82-.34,3.28,.39,4.28,2.05,1.22-1.68,2.85-2.12,4.71-2.07,2.59,.07,4.24,1.63,4.25,4.25,0,2.6-.93,5.05-1.41,7.57-.03,.16-.18,.32-.15,.45,.14,.57-.6,1.53,.49,1.66,.92,.12,1.72-.18,1.84-1.43,.18-1.79,.43-3.59,1.05-5.29,1.48-4.09,3.96-7.06,8.62-7.51,.33,0,.67,0,1,0,3.81,.86,5.05,3.64,3.14,7.16-1.32,2.44-3.47,3.83-6.12,4.42-.85,.19-1.22,.45-1.14,1.34,.09,.91,.21,1.72,1.28,1.99,2.19,.54,5.9-1.75,6.37-3.98,.69-3.23,1.39-6.45,2-9.69,.13-.69,.33-.96,.99-.85,1.87,.28,3.86-.63,5.64,.57,.2,.14,.36-.09,.54-.14,2.96-.83,3.54-.64,5.29,1.74,.51-.12,.23-.46,.24-.75,.03-.91,.33-1.5,1.43-1.43,1.29,.08,2.6,.11,3.89,0,1.25-.11,1.31,.46,1.11,1.41-.76,3.54-1.53,7.08-2.24,10.63-.14,.7-.83,1.64,.36,2.07,.81,.29,2.2-.83,2.29-1.86,.14-1.62,.48-3.19,.86-4.77,1.1-4.55,3.88-7.17,8.51-7.84,.33,0,.67,0,1,0,3.28,.74,4.51,2.36,3.81,4.99-.29,1.1-.95,1.82-2.14,1.9-1.45,.1-1.96-.53-1.67-1.94,.12-.6,.52-1.4-.26-1.71-.65-.26-1.02,.51-1.32,.98-1.69,2.68-2.48,5.63-2.5,8.78,0,1.42,.75,2.02,2.17,1.96,2.57-.12,4.59-1.85,5.02-4.33,.48-2.78,1.29-5.44,3.16-7.64,1.57-1.85,3.56-2.86,6.01-2.67,2.6,.21,5.2,.02,7.8,.06,.81,.01,1.15,.07,.92,1.08-.86,3.78-1.61,7.58-2.37,11.38-.12,.6-.47,1.37,.3,1.74,.86,.42,1.25-.4,1.67-.9,.94-1.13,.9-2.6,1.22-3.93,.66-2.74,1.47-5.44,1.72-8.27,.05-.6,.48-1.12,1.41-1.13,2.84,0,5.67,.21,8.51,.02,2.41-.16,3.82,1.47,3.94,3.91,.14,2.97-.99,5.69-1.5,8.53-.3,1.66-.12,1.87,1.5,1.33,.82-.27,1.09-.07,.97,.76-.25,1.63-.92,3.05-2.54,3.63-1.53,.55-3.18,1.15-4.64-.25-1.32-1.26-1.71-2.83-1.4-4.59,.47-2.59,.98-5.17,1.42-7.76,.06-.37,.33-.99-.48-1.13-.61-.11-.94,.21-1.22,.6-.75,1.08-.97,2.36-1.24,3.61-.64,2.92-1.34,5.83-1.88,8.77-.15,.83-.37,1.15-1.19,1.04-1.68-.21-3.42,.4-5.07-.32-.18-.72-.44-.25-.69-.05Zm-10.27-6.27c.11,.8-.22,1.99,.94,2.25,1.1,.25,1.69-.72,2.2-1.57,.11-.18,.2-.39,.24-.6,.55-2.53,1.12-5.05,1.62-7.59,.22-1.13-.47-1.36-1.35-1.02-.83,.32-1.34,1.07-1.77,1.82-1.18,2.05-1.7,4.29-1.88,6.7Zm-48.13-3.47c2.12-.72,3.58-2.6,3.58-4.54,0-.35,.17-.81-.29-.99-.43-.17-.72,.18-.95,.46-1.25,1.45-1.89,3.18-2.34,5.08Z"/><path class="cls-9" d="M111.62,431.15c-1.06,.38-2.05,.9-3.27,.39-2.12-.89-2.13-3.62-.11-5.39,1.51-1.32,3.43-1.91,5.42-1.75,1.83,.14,2.75-.77,3.71-2.12,2.28-3.2,4.69-6.28,8.63-7.67,1.66-.58,3.32-.27,4.97-.31,.76-.02,.9,.59,.75,1.29-1.77,8.19-3.54,16.37-5.26,24.57-.18,.87-.54,1.15-1.4,1.11-1.24-.07-2.5-.09-3.73,0-1.11,.09-1.28-.35-1.08-1.31,.68-3.33,1.27-6.67,2-9.99,.22-1.01,.45-1.54-.95-1.84-2.13-.45-2.27-.55-3.04,1.39-1.6,4.03-3,8.12-3.35,12.49-.09,1.08-.1,2.16,1.14,3.08-1.46,0-2.53,.09-3.58-.02-2.13-.23-3.59-2.68-3.05-5.27,.58-2.8,1.23-5.6,2.65-8.14,.66-1.29,1.32-2.57,1.98-3.86-1.16,.17-2.42,.1-1.86,1.73,.21,.6-.25,1.12-.56,1.62Zm13.15-12.08c-2,1.58-3.17,3.67-4.35,5.86,.74,.23,1.41,.41,2.06,.64,.57,.2,.87,.13,1-.55,.39-1.99,.85-3.96,1.29-5.94Z"/><path class="cls-9" d="M188.02,422.08c-2.19,.1-3.04-2.06-3.12-4-.05-1.25,1.97-2.68,3.55-2.63,1.86,.06,3.33,1.68,3.22,3.55-.1,1.81-1.71,3.17-3.65,3.09Z"/></g></g><g id="SPIRITED"><g id="SPIRITED-2"><path class="cls-6" d="M193.96,73.13c-1.49,.13-3,.18-4.47,.42-1.9,.31-3.09-.19-3.62-1.76-.54-1.6,.18-3.86,1.54-4.46,.48-.21,.9-.48,1.34-.73,.72-.13,.35-.6,.3-.97-.16-3.51-.19-7.02-.52-10.51-.45-4.73-.61-9.46-.74-14.2,.13-.33,.17-.66-.03-.98-.09-1.95-.18-3.9-.28-5.85,.1-.44,.15-.88-.06-1.3-.21-4.41-.5-8.82-.79-13.22-.19-2.8-.81-5.64-.38-8.48,.1-.68,0-1.09-.89-1.09-2.9,0-3.7-4.02-2.67-5.66,.62-.98,1.7-1.19,2.56-1.4,4.45-1.12,8.9-2.31,13.54-2.34,6.18-.04,10.8,3.45,12.91,8.76,3.68,9.26,3,18.3-2.88,26.56-1.2,1.68-1.06,2.83-.4,4.56,2.82,7.42,5.48,14.9,7.65,22.54,.31,1.11,.71,2.04,2.06,2.34,1.69,.37,2.21,2.49,2.06,3.78-.19,1.68-1.14,2.36-3.06,2.35-3.03-.02-6.01,.4-9,.8-1.8,.24-3.3-.44-3.69-1.67-.62-1.91,.04-3.65,1.84-4.52,.71-.34,.82-.65,.53-1.36-1.58-3.86-3.12-7.73-4.65-11.61-1.03-2.59-2.06-5.18-3.35-7.66,.02-.36-.14-.7-.48-.67-.19,.02-.18,.44-.05,.69,.18,6.39,.36,12.77,.54,19.16,.03,.44-.4,1.01,.35,1.26,1.3,.53,2.83,.58,3.53,2.19,1.11,2.57-.16,4.69-2.94,4.73-1.61,.03-3.22-.07-4.81,.25-.33-.09-.66-.12-.97,.06Zm3.84-36.91c2.27-1.1,3.26-2.89,3.87-4.84,2.06-6.51,1.8-13.01-.38-19.44-.47-1.38-1.19-2.67-2.32-3.66-.44-.38-.95-.92-1.55-.63-.47,.23-.21,.89-.2,1.35,.18,8.97,.38,17.94,.58,27.23Z"/><path class="cls-6" d="M341.97,109.48c-3.37,.22-6.53-1.55-9.35-3.98-1.96-1.69-4.12-3.1-6.11-4.75-1.62-1.34-2.1-2.34-1.51-3.67,.78-1.73,2.26-2.65,4.09-2.11,1.01,.3,1.33-.04,1.75-.71,1.74-2.76,3.62-5.44,5.21-8.29,2.62-4.69,5.66-9.12,8.53-13.66,3.52-5.58,7.17-11.08,10.84-16.56,.44-.65,.39-.9-.08-1.44-1.73-1.98-1.76-3.5-.04-5.42,.87-.98,2.3-.82,3.12-.32,5.58,3.33,11.35,6.53,15.18,12.01,3.3,4.73,3.73,10.04,2.35,15.57-1.76,7.02-5.63,12.91-9.98,18.53-3.45,4.46-7.44,8.38-12.29,11.34-3.43,2.09-7.1,3.42-11.72,3.47Zm25.47-42.62c.04-1.43-.15-2.82-.82-4.1-.77-1.5-.97-1.52-2-.17-5.72,7.55-10.97,15.44-16.24,23.31-3.13,4.68-6.15,9.43-9.26,14.11-.76,1.14-.49,1.59,.78,1.75,1.22,.15,2.37-.09,3.49-.54,2.87-1.15,5.25-3.01,7.44-5.12,5.11-4.93,9.18-10.66,12.58-16.85,2.12-3.86,3.81-7.9,4.03-12.39Z"/><path class="cls-6" d="M122.26,27.22c4.98,.17,8.82,2.57,11.3,6.92,4.76,8.36,5.42,16.99,1.2,25.8-1.26,2.63-3.16,4.73-5.66,6.24-.76,.46-.96,.83-.6,1.76,1.93,4.96,3.79,9.96,5.57,14.98,.4,1.12,1.07,.74,1.71,.61,2.42-.5,3.64-.1,4.57,1.56,.94,1.69,.49,3.25-1.31,4.19-1.71,.89-3.51,1.6-5.24,2.47-1.91,.96-3.77,2.03-5.66,3.02-.41,.21-.81,.6-1.33,.45-.8-.24-1.83,.57-2.45-.5-1.2-2.06-1.26-3.73,.24-5.26,1.08-1.1,.82-1.87,.29-3.08-1.46-3.36-2.7-6.82-4.06-10.24-1-2.53-2.05-5.04-3.08-7.56-1.59-3.88-3.15-7.76-4.78-11.62-1.25-2.96-2.56-5.89-3.89-8.82-.62-1.38-1.11-2.82-1.76-4.2-.38-.81-.68-.87-1.38-.7-1.9,.44-3.18-.11-3.96-1.65-.86-1.69-.79-2.61,.89-4.01,4.64-3.83,9.23-7.78,15.13-9.64,.82-.26,1.67-.44,2.51-.59,.53-.1,1.08-.08,1.75-.12Zm3.26,33.03c1.39-1.54,1.94-3.16,2.11-4.9,.6-6.04-1.08-11.46-4.6-16.33-.83-1.15-1.9-2.07-3.15-2.77-.73-.41-1.49-.63-2.33-.55-.9,.09-1.36,.35-.93,1.44,2.97,7.61,5.89,15.24,8.91,23.11Z"/><path class="cls-3" d="M328.92,43.6c.81-1.51-.11-3.64,.71-5.55,.07-.17,.06-.51-.05-.62-1.29-1.23-2.73-2.27-4.31-3.08-.72-.37-.73,.53-.87,.86-2,4.81-4,9.63-5.89,14.49-1.16,2.98-1.06,3.01,1.73,4.58,1.73,.97,3.42,1.99,5.17,2.93,1.2,.64,2.05,1.51,1.84,2.93-.22,1.45-1.09,2.48-2.43,3.18-2.14,1.12-3.63-.56-5.27-1.23-1.4-.57-2.96-.96-4.17-2.01-.63-.54-.88-.08-1.1,.52-2.06,5.51-4.15,11.01-6.23,16.51-.04,.1-.07,.21-.1,.31-.36,1.29-1.67,2.75-1.14,3.73,.67,1.27,2.66,1.34,4.03,2.05,1.69,.88,3.02,.77,4.24-.91,.8-1.1,2.03-1.85,2.82-3.05,.67-1.02,1.88-.99,2.94-.7,1.22,.34,2,1.24,2.19,2.51,.14,.97,.01,1.89-.51,2.8-1.36,2.36-2.71,4.73-3.92,7.17-1.16,2.33-3.3,2.95-5.66,1.65-5.17-2.85-10.52-5.35-15.78-8.02-1.02-.52-2.1-.84-3.11-1.41-1.31-.75-2.05-1.71-1.83-3.19,.26-1.72,1.62-3.09,3.2-2.95,1.65,.15,2.01-.59,2.48-1.97,1.83-5.4,3.88-10.73,5.81-16.09,1.96-5.43,3.88-10.87,5.82-16.3,1.66-4.64,3.31-9.29,5.02-13.91,.28-.76,.14-1.25-.47-1.64-1.63-1.02-1.44-2.7-1.33-4.18,.14-1.84,2.65-2.85,4.3-1.8,5.05,3.24,10.32,6.11,15.49,9.14,1.43,.84,2.91,1.58,4.35,2.39,1.66,.93,2.09,1.92,1.48,3.74-.99,2.93-2.02,5.84-3.09,8.74-.66,1.79-2.39,2.6-4.37,2.15-1.31-.29-2.02-1.52-1.98-3.78Z"/><path class="cls-3" d="M294.77,13.89c-.44,4.01-.83,8.02-1.35,12.02-.2,1.52-1.92,2.64-3.8,2.55-1.47-.07-1.97-1.1-2.31-2.48-.51-2.09-.54-4.23-.91-6.33-.15-.85-.36-1.74-.46-2.63-.11-.94-1.29-.9-1.96-1.17-.8-.33-.79,.75-.86,1.21-.71,4.34-1.35,8.69-2.01,13.04-.83,5.45-1.7,10.9-2.51,16.35-.71,4.72-1.36,9.44-2.04,14.16-.35,2.44-.57,4.91-1.12,7.31-.39,1.72-.36,2.96,1.46,3.76,1.39,.61,1.62,1.93,1.42,3.25-.36,2.32-2.13,3.33-4.55,2.53-2.63-.87-5.39-1.15-8.07-1.79-.71-.17-1.54-.24-2.3-.37-1.32-.22-2.6-1.7-2.38-2.9,.29-1.63,.96-3.37,2.56-3.46,1.62-.09,1.92-.95,2-2.39,.14-2.29,.57-4.55,.85-6.83,.25-2.02,.45-4.05,.71-6.07,.3-2.28,.57-4.56,.98-6.82,.37-2,.41-4.05,.65-6.07,.26-2.24,.59-4.46,.87-6.7,.27-2.07,.53-4.14,.77-6.21,.27-2.34,.53-4.68,.93-7.01,.44-2.63,.43-5.32,.97-7.95,.06-.3-.18-.37-.3-.47-.65-.56-1.52,.11-2.29-.41-.31-.21-.53,.65-.71,1.06-.99,2.18-2.05,4.34-2.94,6.57-.58,1.47-1.53,1.85-3,1.73-1.44-.11-2.06-1.01-2.71-2.1-.73-1.22-.23-2.44,.05-3.49,.64-2.38,.64-4.83,1.21-7.2,.3-1.25,.42-2.56,.75-3.8,.38-1.44,2.45-2.16,4.52-1.45,4.6,1.58,9.28,2.87,13.97,4.14,3.5,.95,6.99,1.92,10.56,2.55,2.55,.45,3.4,1.41,3.36,3.86Z"/><path class="cls-3" d="M103.87,100.03c-.26-4.92-3.72-9.72-9.22-11-3.46-.8-7.02-1.04-10.43-2.27-5.2-1.88-8.99-5.16-11.5-10.03-1.55-3-2.14-6.22-1.99-9.54,.27-5.88,4.12-12.19,10.35-14.29,1.94-.66,3.27-.19,4.56,1.4,1.63,2.01,3.29,3.99,4.91,6,1.34,1.68,1.25,3.22-.22,4.72-1.24,1.26-2.75,1.27-4.41-.04-1.42-1.12-2.95-2.07-4.48-3.03-.74-.46-1.14-.28-1.66,.21-1.42,1.36-1.64,3.41-.72,5.83,1.84,4.88,5.56,7.22,10.52,8.06,4.37,.74,8.74,1.55,12.61,3.9,5.07,3.09,7.91,7.76,9.16,13.44,1.18,5.35,.28,10.37-2.96,14.85-2.17,3-5.18,4.95-8.53,6.38-1.36,.58-3.25-.06-4.16-1.25-1.93-2.52-3.85-5.05-5.73-7.61-1.16-1.59-.88-3.48,.62-4.86,.82-.75,2.78-.64,4.01,.31,1.45,1.12,2.84,2.31,4.27,3.44,1.48,1.17,2.78,1.08,3.72-.49,.76-1.26,1.66-2.57,1.3-4.14Z"/><path class="cls-6" d="M241.73,54.56c-.6,3.31-.09,6.68-.62,9.99-.16,.99,.24,1.47,1.23,1.83,2.49,.9,3.08,4.08,1.2,5.75-.68,.6-1.43,.71-2.26,.61-3.5-.41-7.01-.62-10.52-.5-1.68,.06-2.81-.59-3.27-2.15-.37-1.25,.36-3.77,2.08-4.14,1.57-.34,1.77-1.6,1.8-2.85,.24-9.13,.43-18.27,.64-27.4,.24-1.19,.14-2.39,.06-3.59,.08-4.44,.17-8.88,.25-13.33,.29-1.09,.18-2.19,.07-3.29,.08-2.54,.14-5.08,.25-7.62,.03-.79-.2-1.13-1.05-1.27-1.68-.27-2.7-2.09-2.49-4.19,.14-1.41,1.35-2.5,3-2.41,4.3,.24,8.6,.55,12.89,.92,1.03,.09,1.75,.87,1.96,1.88,.42,2.02-.18,3.7-1.75,4.23-1.38,.46-1.53,1.25-1.51,2.5,.02,2.11-.16,4.22-.26,6.32-.15,.65-.28,1.29-.07,1.95-.58,7.48-.74,14.97-1.05,22.46-.08,1.94-.15,3.88-.22,5.82-.21,.43-.14,.87-.04,1.31-.09,1.95-.18,3.9-.26,5.85-.23,.43-.2,.86-.05,1.3Z"/><path class="cls-3" d="M159.21,76.01c-.03-.77,0-1.96,1-2.43,2.28-1.05,1.46-2.79,1.17-4.4-.47-2.69-1.02-5.36-1.54-8.04-.63-3.27-1.27-6.55-1.85-9.83-.55-3.17-1.26-6.31-1.77-9.49-.58-3.64-1.48-7.22-2.17-10.84-.58-3.06-1.07-6.14-1.6-9.21-.12-.71-.48-1.35-.45-2.14,.02-.48-.5-.86-1.24-.9-2.31-.12-4.28-3.51-2.71-5.54,.41-.53,.91-.87,1.54-1.08,3.7-1.24,7.39-2.53,11.1-3.76,2.15-.71,3.49-.32,4.19,1.12,.87,1.77,.39,3.55-1.33,4.76-.65,.45-.75,.88-.63,1.73,1.07,7.97,2.47,15.9,3.73,23.84,1.18,7.46,2.53,14.89,3.78,22.33,.39,2.33,.74,4.66,1.06,7,.07,.52,.11,.9,.75,1.05,2.68,.61,3.72,1.64,3.72,3.55,0,1.6-1.43,2.87-3.81,3.2-2.91,.4-5.66,1.28-8.42,2.26-2.99,1.06-4.66-.1-4.52-3.18Z"/></g></g></svg>