<?xml version="1.0" encoding="UTF-8"?><svg id="_層_2" xmlns="http://www.w3.org/2000/svg" viewBox="0 0 907.09 907.09"><defs><style>.cls-1{fill:#d5ab87;}.cls-2{fill:#3f271a;}</style></defs><g id="_層_1-2"><g><polygon class="cls-2" points="895.42 892.95 12 892.95 11.01 13.77 894.42 13.77 895.42 892.95"/><path class="cls-1" d="M878.25,907.09H29.83c-.69,0-1.25-.69-1.25-1.55,0-18.04-11.82-32.71-26.34-32.71-.69,0-1.25-.69-1.25-1.55L0,35.81c0-.86,.56-1.55,1.25-1.55,14.52,0,26.34-14.67,26.34-32.71,0-.85,.56-1.55,1.25-1.55H877.26c.69,0,1.25,.69,1.25,1.55,0,18.04,11.82,32.71,26.34,32.71,.69,0,1.25,.69,1.25,1.55l1,835.47c0,.85-.56,1.55-1.25,1.55-14.52,0-26.34,14.67-26.34,32.71,0,.85-.56,1.55-1.25,1.55Zm-847.2-3.1H877.03c.64-18.52,12.65-33.44,27.56-34.23l-1-832.44c-14.91-.79-26.92-15.71-27.56-34.23H30.05c-.64,18.52-12.65,33.44-27.56,34.23l1,832.44c14.91,.79,26.92,15.71,27.56,34.23Z"/><path class="cls-1" d="M895.69,894.48H12.4c-.69,0-1.25-.69-1.25-1.55L10.15,14.16c0-.85,.56-1.55,1.25-1.55H894.69c.69,0,1.25,.69,1.25,1.55l1,878.77c0,.85-.56,1.55-1.25,1.55Zm-882.04-3.1H894.44l-1-875.68H12.65l1,875.68Z"/></g></g></svg>