<?xml version="1.0" encoding="UTF-8"?><svg id="_層_2" xmlns="http://www.w3.org/2000/svg" viewBox="0 0 1559.06 708.66"><defs><style>.cls-1{fill:#d5ab87;}.cls-2{fill:#3f271a;}</style></defs><g id="_層_1-2"><g><polygon class="cls-2" points="1539.01 697.61 20.63 697.61 18.92 10.76 1537.29 10.76 1539.01 697.61"/><path class="cls-1" d="M1509.5,708.66H51.27c-1.18,0-2.14-.54-2.14-1.21,0-14.09-20.31-25.56-45.27-25.56-1.18,0-2.14-.54-2.14-1.21L0,27.98c0-.67,.96-1.21,2.14-1.21,24.96,0,45.27-11.46,45.27-25.56,0-.67,.96-1.21,2.14-1.21H1507.78c1.18,0,2.14,.54,2.14,1.21,0,14.09,20.31,25.56,45.27,25.56,1.18,0,2.14,.54,2.14,1.21l1.71,652.71c0,.67-.96,1.21-2.14,1.21-24.96,0-45.27,11.46-45.27,25.56,0,.67-.96,1.21-2.14,1.21Zm-1456.13-2.42H1507.4c1.09-14.47,21.74-26.12,47.37-26.74l-1.71-650.34c-25.63-.62-46.28-12.27-47.37-26.74H51.65c-1.09,14.47-21.74,26.12-47.37,26.74l1.71,650.34c25.63,.62,46.28,12.27,47.37,26.74Z"/><path class="cls-1" d="M1539.46,698.81H21.31c-1.18,0-2.14-.54-2.14-1.21L17.45,11.06c0-.67,.96-1.21,2.14-1.21H1537.75c1.18,0,2.14,.54,2.14,1.21l1.71,686.54c0,.67-.96,1.21-2.14,1.21Zm-1516.01-2.42H1537.32l-1.71-684.12H21.73l1.71,684.12Z"/></g></g></svg>