<?xml version="1.0" encoding="UTF-8"?><svg id="_層_2" xmlns="http://www.w3.org/2000/svg" viewBox="0 0 907.09 907.09"><defs><style>.cls-1{fill:#d5ab87;}.cls-2{fill:#fdfce8;}</style></defs><g id="_層_1-2"><g><polygon class="cls-2" points="895.42 895.45 12 895.45 11.01 11.33 894.42 11.33 895.42 895.45"/><path class="cls-1" d="M878.25,907.09H29.83c-.69,0-1.25-.57-1.25-1.27,0-14.84-11.82-26.91-26.34-26.91-.69,0-1.25-.57-1.25-1.27L0,29.46c0-.7,.56-1.27,1.25-1.27,14.52,0,26.34-12.07,26.34-26.91,0-.7,.56-1.27,1.25-1.27H877.26c.69,0,1.25,.57,1.25,1.27,0,14.84,11.82,26.91,26.34,26.91,.69,0,1.25,.57,1.25,1.27l1,848.18c0,.7-.56,1.27-1.25,1.27-14.52,0-26.34,12.07-26.34,26.91,0,.7-.56,1.27-1.25,1.27Zm-847.2-2.55H877.03c.64-15.23,12.65-27.5,27.56-28.16l-1-845.68c-14.91-.65-26.92-12.92-27.56-28.16H30.05c-.64,15.23-12.65,27.5-27.56,28.16l1,845.68c14.91,.65,26.92,12.92,27.56,28.16Z"/><path class="cls-1" d="M895.69,896.71H12.4c-.69,0-1.25-.57-1.25-1.27L10.15,11.64c0-.7,.56-1.27,1.25-1.27H894.69c.69,0,1.25,.57,1.25,1.27l1,883.8c0,.7-.56,1.27-1.25,1.27Zm-882.04-2.55H894.44l-1-881.25H12.65l1,881.25Z"/></g></g></svg>