<?xml version="1.0" encoding="UTF-8"?><svg id="_層_2" xmlns="http://www.w3.org/2000/svg" viewBox="0 0 1275.59 907.09"><defs><style>.cls-1{fill:#ffffe8;}.cls-2{fill:#daae89;}</style></defs><g id="_層_1-2"><g><rect class="cls-1" x="10.97" y="11.92" width="1253.36" height="883.9"/><path class="cls-2" d="M1275.59,28.85V877.74c0,.69-.55,1.25-1.23,1.25-14.36,0-26.05,11.82-26.05,26.36,0,.69-.55,1.25-1.23,1.25l-1218.56,.5c-.68,0-1.23-.56-1.23-1.25,0-14.53-11.69-26.36-26.05-26.36-.68,0-1.23-.56-1.23-1.25V29.35c0-.69,.55-1.25,1.23-1.25,14.36,0,26.05-11.82,26.05-26.36,0-.69,.55-1.25,1.23-1.25l1218.56-.5c.68,0,1.23,.56,1.23,1.25,0,14.53,11.69,26.36,26.05,26.36,.68,0,1.23,.56,1.23,1.25Zm-2.47,847.67V30.07c-14.75-.64-26.63-12.66-27.26-27.58L29.72,2.99c-.63,14.92-12.51,26.94-27.26,27.58V877.02c14.75,.64,26.63,12.66,27.26,27.58l1216.15-.5c.63-14.92,12.51-26.94,27.26-27.58Z"/><path class="cls-2" d="M1265.55,11.41V895.18c0,.69-.55,1.25-1.23,1.25l-1253.04,.5c-.68,0-1.23-.56-1.23-1.25V11.91c0-.69,.55-1.25,1.23-1.25l1253.04-.5c.68,0,1.23,.56,1.23,1.25Zm-2.47,882.53V12.65L12.51,13.15V894.43l1250.58-.5Z"/></g></g></svg>