<?xml version="1.0" encoding="UTF-8"?><svg id="_層_2" xmlns="http://www.w3.org/2000/svg" viewBox="0 0 907.09 1275.59"><defs><style>.cls-1{fill:#daae89;}.cls-2{fill:#40281b;}</style></defs><g id="_層_1-2"><g><polygon class="cls-2" points="895.57 1264.2 23.35 1264.2 10.87 11.09 883.08 11.09 895.57 1264.2"/><path class="cls-1" d="M878.62,1275.59H40.95c-.68,0-1.23-.56-1.23-1.25,0-14.52-11.67-26.34-26.01-26.34-.68,0-1.23-.56-1.23-1.25L0,28.83c0-.69,.55-1.25,1.23-1.25,14.34,0,26.01-11.82,26.01-26.34,0-.69,.55-1.25,1.23-1.25H866.13c.68,0,1.23,.56,1.23,1.25,0,14.52,11.67,26.34,26.01,26.34,.68,0,1.23,.56,1.23,1.25l12.49,1217.93c0,.69-.55,1.25-1.23,1.25-14.34,0-26.01,11.82-26.01,26.34,0,.69-.55,1.25-1.23,1.25Zm-836.46-2.49H877.41c.63-14.91,12.49-26.92,27.21-27.56L892.14,30.05c-14.72-.64-26.58-12.65-27.21-27.56H29.67c-.63,14.91-12.49,26.92-27.21,27.56L14.95,1245.54c14.72,.64,26.58,12.65,27.21,27.56Z"/><path class="cls-1" d="M895.83,1265.44H23.74c-.68,0-1.23-.56-1.23-1.25L10.02,11.4c0-.69,.55-1.25,1.23-1.25H883.35c.68,0,1.23,.56,1.23,1.25l12.49,1252.79c0,.69-.55,1.25-1.23,1.25Zm-870.86-2.49H894.6L882.12,12.64H12.49l12.49,1250.3Z"/></g></g></svg>