<?xml version="1.0" encoding="UTF-8"?><svg id="_層_2" xmlns="http://www.w3.org/2000/svg" viewBox="0 0 907.09 1275.59"><defs><style>.cls-1{fill:#ffffe8;}.cls-2{fill:#daae89;}</style></defs><g id="_層_1-2"><g><rect class="cls-1" x="11.26" y="10.97" width="883.9" height="1253.36"/><path class="cls-2" d="M878.24,1275.59H29.35c-.69,0-1.25-.55-1.25-1.23,0-14.36-11.82-26.05-26.36-26.05-.69,0-1.25-.55-1.25-1.23L0,28.52c0-.68,.56-1.23,1.25-1.23,14.53,0,26.36-11.69,26.36-26.05,0-.68,.56-1.23,1.25-1.23H877.74c.69,0,1.25,.55,1.25,1.23,0,14.36,11.82,26.05,26.36,26.05,.69,0,1.25,.55,1.25,1.23l.5,1218.56c0,.68-.56,1.23-1.25,1.23-14.53,0-26.36,11.69-26.36,26.05,0,.68-.56,1.23-1.25,1.23Zm-847.67-2.47H877.02c.64-14.75,12.66-26.63,27.58-27.26l-.5-1216.15c-14.92-.63-26.94-12.51-27.58-27.26H30.07c-.64,14.75-12.66,26.63-27.58,27.26l.5,1216.15c14.92,.63,26.94,12.51,27.58,27.26Z"/><path class="cls-2" d="M895.68,1265.55H11.9c-.69,0-1.25-.55-1.25-1.23L10.16,11.27c0-.68,.56-1.23,1.25-1.23H895.18c.69,0,1.25,.55,1.25,1.23l.5,1253.04c0,.68-.56,1.23-1.25,1.23Zm-882.53-2.47H894.43l-.5-1250.58H12.65l.5,1250.58Z"/></g></g></svg>