<?xml version="1.0" encoding="UTF-8"?><svg id="_層_2" xmlns="http://www.w3.org/2000/svg" viewBox="0 0 1275.59 907.09"><defs><style>.cls-1{fill:#daae89;}.cls-2{fill:#40281b;}</style></defs><g id="_層_1-2"><g><polygon class="cls-2" points="1264.2 11.52 1264.2 883.73 11.09 896.22 11.09 24 1264.2 11.52"/><path class="cls-1" d="M1275.59,28.47V866.13c0,.68-.56,1.23-1.25,1.23-14.52,0-26.34,11.67-26.34,26.01,0,.68-.56,1.23-1.25,1.23L28.83,907.09c-.69,0-1.25-.55-1.25-1.23,0-14.34-11.82-26.01-26.34-26.01-.69,0-1.25-.55-1.25-1.23V40.95c0-.68,.56-1.23,1.25-1.23,14.52,0,26.34-11.67,26.34-26.01,0-.68,.56-1.23,1.25-1.23L1246.76,0c.69,0,1.25,.55,1.25,1.23,0,14.34,11.82,26.01,26.34,26.01,.69,0,1.25,.55,1.25,1.23Zm-2.49,836.46V29.67c-14.91-.63-26.92-12.49-27.56-27.21L30.05,14.95c-.64,14.72-12.65,26.58-27.56,27.21V877.41c14.91,.63,26.92,12.49,27.56,27.21l1215.49-12.49c.64-14.72,12.65-26.58,27.56-27.21Z"/><path class="cls-1" d="M1265.44,11.26V883.35c0,.68-.56,1.23-1.25,1.23L11.4,897.06c-.69,0-1.25-.55-1.25-1.23V23.74c0-.68,.56-1.23,1.25-1.23L1264.19,10.03c.69,0,1.25,.55,1.25,1.23Zm-2.49,870.86V12.49L12.64,24.97V894.6l1250.3-12.49Z"/></g></g></svg>