<?xml version="1.0" encoding="UTF-8"?><svg id="_層_2" xmlns="http://www.w3.org/2000/svg" viewBox="0 0 1514 878"><defs><style>.cls-1{fill:none;stroke:#daae89;stroke-miterlimit:10;stroke-width:2px;}</style></defs><g id="_層_1-2"><g><path class="cls-1" d="M1508.64,79.94H907.77c-2.27-.13-4.1-3.02-4.2-6.64v-4.62c0-3.85-1.95-6.97-4.36-6.97h-22.43c-2.32-.04-4.21-2.98-4.31-6.66h0c.05-.6,.08-1.21,.08-1.81,0-28.81-52.32-52.17-116.91-52.24h0c-64.71,0-117.17,23.39-117.17,52.24,0,.61,.03,1.21,.08,1.81h0c-.1,3.68-1.98,6.62-4.31,6.66h-22.43c-2.41,0-4.36,3.12-4.36,6.97v4.62c-.1,3.62-1.93,6.51-4.2,6.64H5.49c-2.41,0-4.36,3.12-4.36,6.97l-.13,783.13c0,3.85,1.95,6.97,4.36,6.97H1508.51c2.41,0,4.36-3.12,4.36-6.97l.13-783.13c0-3.85-1.95-6.97-4.36-6.97Z"/><path class="cls-1" d="M944.05,95.93h-38c-7.39,0-13.53-8.02-14.77-18.57h-17.04c-8.28,0-15-10.08-15-22.5v-4.92c-13.96-19.09-55.54-32.94-104.66-32.94s-90.71,13.85-104.66,32.94v4.92c0,12.43-6.72,22.5-15,22.5h-17.04c-1.24,10.55-7.38,18.57-14.77,18.57H12.34l1.72,764.51H1501.66l-1.72-764.51H944.05Z"/></g></g></svg>