<?xml version="1.0" encoding="UTF-8"?><svg id="_層_2" xmlns="http://www.w3.org/2000/svg" viewBox="0 0 1532.71 2411.45"><defs><style>.cls-1{fill:none;stroke:#d5ab87;stroke-miterlimit:10;stroke-width:2px;}</style></defs><g id="_層_1-2"><g><path class="cls-1" d="M1527.29,80.26H918.95c-2.3-.13-4.15-3.03-4.25-6.67v-4.64c0-3.86-1.98-6.99-4.42-6.99h-22.71c-2.35-.04-4.26-2.99-4.36-6.69h0c.05-.6,.08-1.21,.08-1.82,0-28.93-52.97-52.39-118.36-52.45h0c-65.51,0-118.62,23.48-118.62,52.45,0,.61,.03,1.22,.08,1.82h0c-.1,3.7-2.01,6.65-4.36,6.69h-22.71c-2.44,0-4.42,3.13-4.42,6.99v4.64c-.1,3.63-1.95,6.54-4.25,6.67H5.45c-2.44,0-4.42,3.13-4.42,6.99l-.03,2316.2c0,3.86,1.98,6.99,4.42,6.99H1527.26c2.44,0,4.42-3.13,4.42-6.99l.03-2316.2c0-3.86-1.98-6.99-4.42-6.99Z"/><path class="cls-1" d="M955.68,96.32h-38.47c-7.48,0-13.7-8.05-14.95-18.65h-17.25c-8.39,0-15.19-10.12-15.19-22.6v-4.94c-14.13-19.17-56.23-33.07-105.97-33.07s-91.84,13.91-105.97,33.07v4.94c0,12.48-6.8,22.6-15.19,22.6h-17.25c-1.26,10.6-7.47,18.65-14.95,18.65H12.39l1.84,2297.5H1520.32l-1.84-2297.5H955.68Z"/></g></g></svg>