<?xml version="1.0" encoding="UTF-8"?><svg id="_層_2" xmlns="http://www.w3.org/2000/svg" viewBox="0 0 285.2 12.18"><defs><style>.cls-1{fill:#e87b38;}</style></defs><g id="_層_1-2"><g><g><path class="cls-1" d="M145.08,6.09c-1.37,0-2.48-2.73-2.48-6.09,0,3.36-1.11,6.09-2.48,6.09,1.37,0,2.48,2.73,2.48,6.09,0-3.36,1.11-6.09,2.48-6.09Z"/><path class="cls-1" d="M266.34,4.23c-.24,0-.45,.33-.57,.83-.14-1.58-.6-2.75-1.16-2.75s-.98,1.07-1.14,2.55c-.12-.38-.31-.63-.51-.63-.37,0-.67,.8-.67,1.8s.3,1.79,.67,1.79c.2,0,.39-.24,.51-.63,.16,1.48,.61,2.55,1.14,2.55s1.02-1.17,1.16-2.75c.12,.5,.33,.83,.57,.83,.37,0,.67-.8,.67-1.79s-.3-1.8-.67-1.8Z"/><path class="cls-1" d="M273.37,2.38c0,.17-.04,.35-.12,.51-.5-.61-1.15-.98-1.86-.98-1.42,0-2.59,1.47-2.83,3.4-.03,.23-.05,.47-.05,.71s.02,.48,.05,.71c.24,1.93,1.41,3.41,2.83,3.41,.71,0,1.36-.37,1.86-.98,.08,.17,.12,.34,.12,.51,0-2.01,5.3-3.65,11.83-3.65-6.53,0-11.83-1.63-11.83-3.65Z"/><path class="cls-1" d="M255.02,2.82c-.08,.86-4.05,2.13-6.09,2.13s-56.73-.19-56.73-.19h-33.89c-3.3,0-8-.56-6.09-4.66-3.03,.19-4.85,3.83-5.28,5.77,.42,1.94,2.25,5.82,5.28,6.01-1.92-4.1,2.79-4.58,6.09-4.58h33.89s54.69-.22,56.73-.22,6.02,1.39,6.09,2.25c.49-.78,2.56-2.25,4.59-3.22-2.03-.97-4.1-2.5-4.59-3.28Z"/></g><g><path class="cls-1" d="M18.85,4.23c.24,0,.45,.33,.57,.83,.14-1.58,.6-2.75,1.16-2.75s.98,1.07,1.14,2.55c.12-.38,.31-.63,.51-.63,.37,0,.67,.8,.67,1.8s-.3,1.79-.67,1.79c-.21,0-.39-.24-.51-.63-.16,1.48-.61,2.55-1.14,2.55s-1.02-1.17-1.16-2.75c-.12,.5-.33,.83-.57,.83-.37,0-.67-.8-.67-1.79s.3-1.8,.67-1.8Z"/><path class="cls-1" d="M11.83,2.38c0,.17,.04,.35,.12,.51,.5-.61,1.15-.98,1.86-.98,1.42,0,2.6,1.47,2.83,3.4,.03,.23,.05,.47,.05,.71s-.02,.48-.05,.71c-.24,1.93-1.41,3.41-2.83,3.41-.71,0-1.36-.37-1.86-.98-.08,.17-.12,.34-.12,.51,0-2.01-5.3-3.65-11.83-3.65,6.53,0,11.83-1.63,11.83-3.65Z"/><path class="cls-1" d="M30.17,2.82c.08,.86,4.05,2.13,6.09,2.13s56.73-.19,56.73-.19h33.89c3.3,0,8-.56,6.09-4.66,3.03,.19,4.85,3.83,5.28,5.77-.42,1.94-2.25,5.82-5.28,6.01,1.92-4.1-2.79-4.58-6.09-4.58h-33.89s-54.69-.22-56.73-.22-6.02,1.39-6.09,2.25c-.49-.78-2.55-2.25-4.59-3.22,2.03-.97,4.1-2.5,4.59-3.28Z"/></g></g></g></svg>