<?xml version="1.0" encoding="UTF-8"?><svg id="a" xmlns="http://www.w3.org/2000/svg" viewBox="0 0 1177.62 762.85"><defs><style>.c{fill:#ffffe8;stroke:#40281b;stroke-miterlimit:10;stroke-width:2px;}</style></defs><g id="b"><path class="c" d="M1171.56,58.35h-405.85c-2.63-.09-4.75-2.2-4.87-4.82v-3.36c0-2.79-2.27-5.06-5.06-5.06h-26.02c-2.7-.03-4.88-2.16-5-4.84h0c.05-.44,.09-.88,.09-1.32,0-20.9-60.48-37.85-135.23-37.95h0c-.07,0-.15,0-.22,0h-.17c-.07,0-.15,0-.22,0h0c-74.75,.11-135.23,17.06-135.23,37.95,0,.44,.03,.88,.09,1.32h0c-.11,2.67-2.3,4.81-5,4.84h-26.02c-2.79,0-5.06,2.27-5.06,5.06v3.36c-.12,2.63-2.24,4.73-4.87,4.82H6.06c-2.79,0-5.06,2.27-5.06,5.06l.15,693.37c0,2.79,2.27,5.06,5.06,5.06H1171.41c2.79,0,5.06-2.27,5.06-5.06l.15-693.37c0-2.79-2.27-5.06-5.06-5.06Z"/><path class="c" d="M1161.04,70.18h-397.75c-8.57,0-15.69-5.83-17.13-13.5h-19.77c-9.61,0-17.4-7.32-17.4-16.35v-3.58c-15.96-13.67-63.04-23.63-118.95-23.91h0c-.24-.01-.49,0-.73,0-.24,0-.49,0-.73,0h0c-55.91,.3-103,10.26-118.95,23.93v3.58c0,9.03-7.79,16.35-17.4,16.35h-19.77c-1.44,7.67-8.56,13.5-17.13,13.5H16.58l-2,679.84H1163.04l-2-679.84Z"/></g></svg>