<?xml version="1.0" encoding="UTF-8"?><svg id="a" xmlns="http://www.w3.org/2000/svg" viewBox="0 0 139.43 149"><defs><style>.c{fill:#40281b;}.d{fill:#f4b876;}</style></defs><g id="b"><g><path class="d" d="M108.24,68.54c-.07,.25-.14,.5-.21,.76-.32,.82-.29,.76-.05,.17-3.05,9.99-13.1,19.36-36.99,23.73-18.09,2.27-37.81-.57-43.64-24.93,11.21,9.07,38.43,26.84,58.59,3.4,14.49-19.83-4.93-32.29-14.94-33.43-10.02-1.13-21.23,5.67-24.81,11.9-3.59,6.23,3.54,6.94,4.41,6.23,13.15-10.6,26.52-11.9,32.35,2.27,5.83,14.16-30.91,19.83-40.78,9.63-9.88-10.2-20.16-14.73,0-31.73,20.16-17,48.73-9.07,56.86,0,2.57,2.87,6.28,8.56,8.4,15.34,1.59,8.45-3.01,7.13-2.84,9.68,.16,2.37,4.25,3.81,3.66,6.99Z"/><path class="d" d="M35.42,19.27c31.16-18.69,54.25-7.94,74.87,2.54,20.62,10.48,26.9,64.02,17.04,86.11-9.86,22.09-29.59,28.89-43.71,30.88,8.74-4.82,21.3-18.98,25.45-29.18,1.88-4.6,5.73-15.37,7.74-27.83-.9-1.71-1.69-3.54-2.14-4.94-1.34-4.25,.34-11.47,1.85-18.27,.32-1.42,.48-2.58,.54-3.61-1.24-6.65-3.72-12.92-8-18.15-9.14-11.2-20.75-16.35-32.68-17.36-8.22-3.09-12.24-4.71-15.43-1.51-1.13,1.13-2.36,2.2-3.49,3.12-5.17,1.26-10.2,3.14-14.87,5.48-8.56,4.27-13.94,11.06-17.17,18.31h0c-4.73,8.84-8.43,6.5-7.08,13.72,1.12,6,2.18,6.55,2.97,10.96,.11,1.19,.26,2.29,.44,3.25,.05,.51,.13,.87,.22,1.11,2.12,10.03,6.81,19,27.35,26.65,3.72,1.38,7.62,2.15,11.58,2.41,0,0,0,0,0,0,.83,.06,5.86,2.34,11.57,1.92,5.72-.43,2.19,2.12,11.56-5.35h-.03c10.41-3.58,19.58-9.39,25.06-15.14,0,0,3.91,12.04-7.06,27.36-12.17,6.23-13.7,7.83-18.22,13.88-1.48,1.98-2.2,3.6-2.51,4.89-18.62,11.19-35.05,6.95-48.44-3.65-7.11-9.67-8.3-14.93-12.16-16.04-3.1-.89-4.52-2.1-5.52-3.52C.19,84.12,4.91,37.57,35.42,19.27Z"/></g><g><path class="c" d="M97.18,44.98c-1.86,4.62-4.54,13.81-1.18,13.6,3.36-.21,3.53-7.01,4.03-8.92,.5-1.91-1.01-9.26-2.86-4.67Z"/><path class="c" d="M66.42,59.56c-4-1.75-5.04-3.36-4.71,1.34,.34,4.7,2.02,5.55,3.87,5.55s2.19-1.15,2.02-4.29c-.17-3.14,.33-1.93-1.18-2.59Z"/><path class="c" d="M0,74.5c0,25.62,12.11,48.22,30.54,61.63,5.98,1.49,9.99,3.61,18.56,4.67,8.57,1.06,10.09,2.13,18.53,8.16,.69,.02,1.39,.04,2.09,.04,15.44,0,29.71-5.37,41.27-14.46,1.15-.42,2.43-.88,3.85-1.39,9.58-3.4,11.94-11.26,15.56-21.95h0c5.75-10.83,9.04-23.36,9.04-36.7,0-8.73-1.41-17.1-3.99-24.88h0c-.18-.62-.36-1.11-.53-1.54-.32-.9-.65-1.79-1-2.67-.4-1.47-.66-3.67-.75-8.7-.17-9.98-8.41-12.96-16.84-17.6h0C103.98,7.23,87.64,0,69.72,0c-6.53,0-12.85,.96-18.84,2.75-.84,.86-2.21,2.02-4.75,3.78-8.18,5.66-5.83,7.93-13.67,7.22-.97-.09-1.86-.2-2.67-.32C11.78,26.9,0,49.23,0,74.5Zm15.17,32.83C.19,84.12,4.91,37.57,35.42,19.27c31.16-18.69,54.25-7.94,74.87,2.54,20.62,10.48,26.9,64.02,17.04,86.11-9.86,22.09-29.59,28.89-43.71,30.88,8.74-4.82,21.3-18.98,25.45-29.18,1.88-4.6,5.73-15.37,7.74-27.83-.9-1.71-1.69-3.54-2.14-4.94-1.34-4.25,.34-11.47,1.85-18.27,.32-1.42,.48-2.58,.54-3.61-1.24-6.65-3.72-12.92-8-18.15-9.14-11.2-20.75-16.35-32.68-17.36-8.22-3.09-12.24-4.71-15.43-1.51-1.13,1.13-2.36,2.2-3.49,3.12-5.17,1.26-10.2,3.14-14.87,5.48-8.56,4.27-13.94,11.06-17.17,18.31h0c-4.73,8.84-8.43,6.5-7.08,13.72,1.12,6,2.18,6.55,2.97,10.96,.11,1.19,.26,2.29,.44,3.25,.05,.51,.13,.87,.22,1.11,2.12,10.03,6.81,19,27.35,26.65,3.72,1.38,7.62,2.15,11.58,2.41,0,0,0,0,0,0,.83,.06,5.86,2.34,11.57,1.92,5.72-.43,2.19,2.12,11.56-5.35h-.03c10.41-3.58,19.58-9.39,25.06-15.14,0,0,3.91,12.04-7.06,27.36-12.17,6.23-13.7,7.83-18.22,13.88-1.48,1.98-2.2,3.6-2.51,4.89-18.62,11.19-35.05,6.95-48.44-3.65-7.11-9.67-8.3-14.93-12.16-16.04-3.1-.89-4.52-2.1-5.52-3.52ZM104.58,61.56c.16,2.37,4.25,3.81,3.66,6.99-.07,.25-.14,.5-.21,.76-.32,.82-.29,.76-.05,.17-3.05,9.99-13.1,19.36-36.99,23.73-18.09,2.27-37.81-.57-43.64-24.93,11.21,9.07,38.43,26.84,58.59,3.4,14.49-19.83-4.93-32.29-14.94-33.43-10.02-1.13-21.23,5.67-24.81,11.9-3.59,6.23,3.54,6.94,4.41,6.23,13.15-10.6,26.52-11.9,32.35,2.27,5.83,14.16-30.91,19.83-40.78,9.63-9.88-10.2-20.16-14.73,0-31.73,20.16-17,48.73-9.07,56.86,0,2.57,2.87,6.28,8.56,8.4,15.34,1.59,8.45-3.01,7.13-2.84,9.68Z"/><path class="c" d="M62.72,117.43c-5.83-2.27-10.98-4.53-11.43,0-.45,4.53,3.14,9.63,5.72,9.91s1.68-2.27,5.72-5.1c4.04-2.83,1.02-4.42,0-4.82Z"/></g></g></svg>