<?xml version="1.0" encoding="UTF-8"?><svg id="a" xmlns="http://www.w3.org/2000/svg" viewBox="0 0 172.75 7.38"><defs><style>.b{fill:#ffffe8;}</style></defs><g><path class="b" d="M87.88,3.69c-.83,0-1.5-1.65-1.5-3.69,0,2.04-.67,3.69-1.5,3.69,.83,0,1.5,1.65,1.5,3.69,0-2.04,.67-3.69,1.5-3.69Z"/><path class="b" d="M161.33,2.56c-.14,0-.27,.2-.34,.5-.08-.96-.37-1.66-.7-1.66s-.59,.65-.69,1.54c-.08-.23-.19-.38-.31-.38-.23,0-.41,.49-.41,1.09s.18,1.09,.41,1.09c.12,0,.23-.15,.31-.38,.1,.9,.37,1.54,.69,1.54s.62-.71,.7-1.66c.07,.3,.2,.5,.34,.5,.23,0,.41-.49,.41-1.09s-.18-1.09-.41-1.09Z"/><path class="b" d="M165.58,1.44c0,.11-.03,.21-.07,.31-.3-.37-.7-.6-1.13-.6-.86,0-1.57,.89-1.71,2.06-.02,.14-.03,.28-.03,.43s.01,.29,.03,.43c.14,1.17,.85,2.06,1.71,2.06,.43,0,.82-.22,1.13-.6,.05,.1,.07,.21,.07,.31,0-1.22,3.21-2.21,7.17-2.21-3.96,0-7.17-.99-7.17-2.21Z"/><path class="b" d="M154.47,1.71c-.05,.52-2.45,1.29-3.69,1.29s-34.36-.12-34.36-.12h-20.53c-2,0-4.85-.34-3.69-2.82-1.83,.11-2.94,2.32-3.2,3.5,.26,1.18,1.36,3.53,3.2,3.64-1.16-2.48,1.69-2.78,3.69-2.78h20.53s33.13-.13,34.36-.13,3.64,.84,3.69,1.36c.3-.47,1.55-1.37,2.78-1.95-1.23-.59-2.48-1.52-2.78-1.99Z"/></g><g><path class="b" d="M11.42,2.56c.14,0,.27,.2,.34,.5,.08-.96,.37-1.66,.7-1.66s.59,.65,.69,1.54c.07-.23,.19-.38,.31-.38,.23,0,.41,.49,.41,1.09s-.18,1.09-.41,1.09c-.12,0-.24-.15-.31-.38-.1,.9-.37,1.54-.69,1.54s-.62-.71-.7-1.66c-.07,.3-.2,.5-.34,.5-.23,0-.41-.49-.41-1.09s.18-1.09,.41-1.09Z"/><path class="b" d="M7.17,1.44c0,.11,.03,.21,.07,.31,.3-.37,.7-.6,1.13-.6,.86,0,1.57,.89,1.71,2.06,.02,.14,.03,.28,.03,.43s-.01,.29-.03,.43c-.14,1.17-.85,2.06-1.71,2.06-.43,0-.82-.22-1.13-.6-.05,.1-.07,.21-.07,.31,0-1.22-3.21-2.21-7.17-2.21,3.96,0,7.17-.99,7.17-2.21Z"/><path class="b" d="M18.28,1.71c.05,.52,2.45,1.29,3.69,1.29s34.36-.12,34.36-.12h20.53c2,0,4.85-.34,3.69-2.82,1.83,.11,2.94,2.32,3.2,3.5-.26,1.18-1.36,3.53-3.2,3.64,1.16-2.48-1.69-2.78-3.69-2.78h-20.53s-33.13-.13-34.36-.13-3.64,.84-3.69,1.36c-.3-.47-1.55-1.37-2.78-1.95,1.23-.59,2.48-1.52,2.78-1.99Z"/></g></svg>